<svg width="157" height="57" viewBox="0 0 157 57" fill="none" xmlns="http://www.w3.org/2000/svg">
<path d="M28.7058 0.753662H128.075L156.078 28.7571L128.075 56.7605H28.7058L0.702393 28.7571L28.7058 0.753662Z" fill="url(#paint0_linear_104_73)"/>
<path d="M127.804 1.40894L155.152 28.7566L127.804 56.1052H28.9768L1.62817 28.7566L28.9768 1.40894H127.804Z" stroke="white" stroke-opacity="0.3" stroke-width="1.31"/>
<path opacity="0.6" d="M36.6434 34.545C36.6434 34.2778 36.6748 34.1443 36.7377 34.1443C36.9891 34.1129 37.2091 34.0893 37.3976 34.0736C37.5862 34.0579 37.7354 33.995 37.8454 33.885C37.9083 33.8222 37.9633 33.7043 38.0104 33.5315C38.0576 33.3587 38.089 33.0365 38.1047 32.5652C38.1204 32.0938 38.1283 31.426 38.1283 30.5618C38.144 29.6976 38.1518 28.5427 38.1518 27.0972C38.1518 25.7773 38.144 24.7167 38.1283 23.9153C38.1125 23.114 38.089 22.4933 38.0576 22.0534C38.0418 21.5977 38.0104 21.2835 37.9633 21.1106C37.9161 20.9378 37.8611 20.8199 37.7983 20.7571C37.7512 20.71 37.649 20.6628 37.4919 20.6157C37.3348 20.5528 37.1619 20.5057 36.9734 20.4743C36.7848 20.4271 36.5884 20.3957 36.3842 20.38C36.1956 20.3486 36.0463 20.3328 35.9363 20.3328C35.8735 20.3328 35.8421 20.2543 35.8421 20.0972C35.8421 20.0029 35.8499 19.9479 35.8656 19.9322C35.8813 19.9007 35.9049 19.8772 35.9363 19.8615C36.2192 19.8458 36.5648 19.83 36.9734 19.8143C37.3976 19.7829 37.814 19.7593 38.2225 19.7436C38.6468 19.7122 39.0396 19.6965 39.401 19.6965C39.7781 19.6808 40.0688 19.6729 40.273 19.6729C41.0115 19.6729 41.64 19.6886 42.1586 19.7201C42.6771 19.7515 43.117 19.7986 43.4784 19.8615C43.8555 19.9086 44.1698 19.9793 44.4212 20.0736C44.6726 20.1679 44.9083 20.2779 45.1283 20.4036C45.6625 20.7021 46.0474 21.0792 46.2831 21.5349C46.5345 21.9748 46.6602 22.4619 46.6602 22.9961C46.6602 23.2947 46.621 23.5932 46.5424 23.8918C46.4638 24.1903 46.3224 24.4888 46.1182 24.7874C45.9296 25.0859 45.6625 25.3845 45.3168 25.683C44.9868 25.9658 44.5626 26.2487 44.0441 26.5315C44.7511 26.6729 45.3404 26.8772 45.8118 27.1443C46.2831 27.3957 46.6524 27.6864 46.9195 28.0163C47.2023 28.3463 47.3987 28.7077 47.5087 29.1005C47.6187 29.4776 47.6737 29.8626 47.6737 30.2554C47.6737 31.0096 47.5244 31.6774 47.2259 32.2588C46.9274 32.8401 46.5188 33.3272 46.0003 33.72C45.4818 34.0971 44.8769 34.3878 44.1855 34.5921C43.4941 34.7964 42.7556 34.8985 41.97 34.8985C41.7972 34.8985 41.5693 34.8906 41.2865 34.8749C41.0194 34.8592 40.7366 34.8356 40.438 34.8042C40.1552 34.7885 39.8724 34.7728 39.5895 34.7571C39.3224 34.7414 39.0946 34.7335 38.906 34.7335C38.2618 34.7335 37.759 34.7571 37.3976 34.8042C37.0519 34.8514 36.8477 34.8749 36.7848 34.8749C36.6905 34.8749 36.6434 34.7649 36.6434 34.545ZM40.0845 26.178C40.0845 26.3037 40.1002 26.3901 40.1316 26.4372C40.1788 26.4844 40.2652 26.5079 40.3909 26.5079H41.9229C42.0329 26.5079 42.1978 26.5158 42.4178 26.5315C42.6535 26.5315 42.8813 26.5236 43.1013 26.5079C43.5256 26.3351 43.9105 26.013 44.2562 25.5416C44.6176 25.0545 44.7983 24.4103 44.7983 23.6089C44.7983 23.059 44.6804 22.5798 44.4448 22.1712C44.2091 21.7627 43.8791 21.4249 43.4549 21.1578C43.0463 20.8906 42.5514 20.6864 41.97 20.545C41.4043 20.4036 40.7758 20.3328 40.0845 20.3328V26.178ZM40.0845 31.481C40.0845 32.1409 40.1002 32.628 40.1316 32.9423C40.163 33.2565 40.2573 33.5001 40.4145 33.6729C40.5559 33.8457 40.7916 33.9714 41.1215 34.05C41.4672 34.1129 41.8443 34.1443 42.2528 34.1443C42.6614 34.1443 43.062 34.0814 43.4549 33.9557C43.8634 33.83 44.2248 33.6336 44.539 33.3665C44.8533 33.0994 45.1047 32.7537 45.2932 32.3295C45.4975 31.8895 45.5996 31.371 45.5996 30.7739C45.5996 30.3025 45.5289 29.8547 45.3875 29.4305C45.2461 28.9905 44.9711 28.6056 44.5626 28.2756C44.1698 27.9456 43.612 27.6785 42.8892 27.4743C42.1664 27.27 41.2315 27.1679 40.0845 27.1679V31.481ZM57.3455 32.7773C57.3769 32.7773 57.4162 32.793 57.4633 32.8244C57.5105 32.8558 57.5497 32.8873 57.5812 32.9187C57.6283 32.9973 57.6362 33.0994 57.6047 33.2251C57.4319 33.4294 57.1962 33.6415 56.8977 33.8615C56.6148 34.0657 56.3084 34.2621 55.9785 34.4507C55.6642 34.6235 55.3342 34.7649 54.9886 34.8749C54.6586 35.0006 54.3601 35.0635 54.0929 35.0635C53.3387 35.0635 52.6788 34.9378 52.1131 34.6864C51.5632 34.4193 51.1075 34.0736 50.7461 33.6493C50.4005 33.2251 50.1412 32.738 49.9684 32.1881C49.7955 31.6381 49.7091 31.0725 49.7091 30.4911C49.7091 29.5483 49.9134 28.6527 50.3219 27.8042C50.7304 26.9557 51.3747 26.3037 52.2546 25.848C52.4431 25.7537 52.6474 25.6673 52.8674 25.5887C53.0873 25.5102 53.3073 25.4395 53.5273 25.3766C53.7473 25.2981 53.9594 25.2431 54.1637 25.2116C54.3679 25.1645 54.5408 25.1409 54.6822 25.1409C55.1221 25.1409 55.5228 25.2431 55.8842 25.4473C56.2456 25.6359 56.552 25.8951 56.8034 26.2251C57.0705 26.5551 57.2669 26.9322 57.3926 27.3564C57.534 27.7807 57.6047 28.2206 57.6047 28.6763C57.6047 28.912 57.5812 29.0612 57.534 29.1241C57.4869 29.1869 57.3376 29.2341 57.0862 29.2655C57.0076 29.2812 56.8269 29.2969 56.5441 29.3126C56.2613 29.3284 55.9235 29.3519 55.5307 29.3833C55.1536 29.4148 54.7372 29.4462 54.2815 29.4776C53.8415 29.509 53.4252 29.5405 53.0323 29.5719C52.6395 29.6033 52.3017 29.6347 52.0189 29.6662C51.736 29.6819 51.5553 29.6897 51.4768 29.6897V29.8547C51.4768 31.1117 51.8225 32.0938 52.5138 32.8009C53.2209 33.4922 54.1479 33.8379 55.295 33.8379C55.4364 33.8379 55.6014 33.8065 55.7899 33.7436C55.9942 33.665 56.1906 33.5708 56.3791 33.4608C56.5834 33.3508 56.772 33.233 56.9448 33.1072C57.1176 32.9815 57.2512 32.8716 57.3455 32.7773ZM51.5239 28.6527C51.5239 28.7313 51.5711 28.7706 51.6653 28.7706H55.7663C55.892 28.7706 55.9549 28.7234 55.9549 28.6291C55.9549 28.3306 55.8999 28.0321 55.7899 27.7335C55.6956 27.4193 55.5464 27.1364 55.3421 26.885C55.1535 26.6336 54.9179 26.4294 54.635 26.2722C54.3522 26.0994 54.038 26.013 53.6923 26.013C53.378 26.013 53.0873 26.1151 52.8202 26.3194C52.5688 26.5079 52.341 26.7436 52.1367 27.0264C51.9482 27.3093 51.7989 27.6 51.6889 27.8985C51.5789 28.197 51.5239 28.4484 51.5239 28.6527ZM59.5125 32.6123C59.5597 32.5337 59.6461 32.4709 59.7718 32.4237C59.8975 32.3766 59.9761 32.3766 60.0075 32.4237C60.0232 32.5023 60.0468 32.5966 60.0782 32.7066C60.1096 32.8166 60.141 32.9108 60.1725 32.9894C60.3924 33.4294 60.6988 33.7593 61.0917 33.9793C61.4845 34.1993 61.8851 34.3093 62.2937 34.3093C62.8279 34.3093 63.2364 34.1757 63.5193 33.9086C63.8178 33.6415 63.9671 33.2801 63.9671 32.8244C63.9671 32.4473 63.8414 32.0938 63.59 31.7638C63.3543 31.4181 62.8593 31.0882 62.1051 30.7739C61.3509 30.4754 60.7853 30.1376 60.4082 29.7605C60.031 29.3676 59.8425 28.8177 59.8425 28.1106C59.8425 27.655 59.9446 27.2307 60.1489 26.8379C60.3689 26.4294 60.7067 26.068 61.1624 25.7537C61.5395 25.5023 61.9009 25.3452 62.2465 25.2823C62.6079 25.2038 62.9693 25.1645 63.3307 25.1645C63.7392 25.1645 64.0849 25.2038 64.3677 25.2823C64.6506 25.3609 64.8784 25.4395 65.0512 25.518C65.0827 25.7851 65.1062 26.0994 65.122 26.4608C65.1377 26.8065 65.1298 27.1207 65.0984 27.4036C65.067 27.4664 64.9963 27.5135 64.8863 27.545C64.792 27.5607 64.7134 27.5528 64.6506 27.5214C64.6506 27.4585 64.6427 27.3486 64.627 27.1914C64.6113 27.0186 64.5956 26.9086 64.5799 26.8615C64.517 26.6572 64.3363 26.4686 64.0378 26.2958C63.7392 26.123 63.315 26.0365 62.7651 26.0365C62.3408 26.0365 61.9558 26.1465 61.6102 26.3665C61.2645 26.5865 61.0917 26.9479 61.0917 27.4507C61.0917 27.8121 61.2252 28.1263 61.4923 28.3934C61.7594 28.6606 62.2622 28.9355 63.0007 29.2184C63.9278 29.5326 64.5799 29.9097 64.957 30.3497C65.3341 30.7896 65.5226 31.3474 65.5226 32.0231C65.5226 32.463 65.4362 32.8716 65.2634 33.2487C65.0905 33.6258 64.8548 33.9557 64.5563 34.2386C64.2578 34.5057 63.9042 34.7178 63.4957 34.8749C63.1029 35.0321 62.6708 35.1106 62.1994 35.1106C61.728 35.1106 61.2959 35.0792 60.9031 35.0163C60.5103 34.9535 60.1803 34.8828 59.9132 34.8042C59.9132 34.7414 59.9132 34.6707 59.9132 34.5921C59.9132 34.4978 59.8975 34.3721 59.8661 34.215C59.8504 34.0422 59.8111 33.83 59.7482 33.5786C59.7011 33.3115 59.6225 32.9894 59.5125 32.6123ZM73.374 32.9187C73.4055 32.9187 73.4369 32.9344 73.4683 32.9658C73.5155 32.9815 73.5547 33.0051 73.5862 33.0365C73.6647 33.1151 73.704 33.2015 73.704 33.2958C73.6255 33.4215 73.484 33.5786 73.2798 33.7672C73.0755 33.9557 72.8477 34.1443 72.5963 34.3328C72.3606 34.5057 72.117 34.6549 71.8656 34.7806C71.6142 34.9221 71.4021 34.9928 71.2293 34.9928C70.7893 34.9928 70.3886 34.9378 70.0273 34.8278C69.6659 34.7335 69.3595 34.5607 69.1081 34.3093C68.8567 34.0579 68.6602 33.72 68.5188 33.2958C68.3774 32.8716 68.3146 32.3373 68.3303 31.6931L68.4481 26.8143H67.1518C67.0576 26.8143 67.0104 26.7515 67.0104 26.6258C67.0104 26.5158 67.0261 26.4372 67.0576 26.3901C67.089 26.3429 67.1283 26.3037 67.1754 26.2722C67.8039 25.9266 68.2596 25.6123 68.5424 25.3295C68.8252 25.0309 69.0609 24.7638 69.2495 24.5281C69.4066 24.3082 69.5323 24.0882 69.6266 23.8682C69.7366 23.6482 69.8151 23.5225 69.8623 23.4911L70.2394 23.3025C70.3336 23.2711 70.3808 23.2947 70.3808 23.3732C70.3808 23.4361 70.3415 23.7032 70.2629 24.1746C70.2001 24.6303 70.1687 25.1409 70.1687 25.7066H72.4784C72.8084 25.7066 73.0441 25.6987 73.1855 25.683C73.3269 25.6516 73.4212 25.6359 73.4683 25.6359C73.5155 25.6359 73.539 25.6673 73.539 25.7302C73.539 25.8244 73.5076 25.9344 73.4448 26.0601L73.2562 26.5315C73.2091 26.6572 73.1226 26.72 72.9969 26.72L70.2158 26.7436C70.1372 26.7436 70.098 26.7986 70.098 26.9086L70.0508 31.5988C70.0508 32.0702 70.1058 32.4473 70.2158 32.7301C70.3415 33.013 70.5065 33.233 70.7108 33.3901C70.915 33.5315 71.1507 33.6336 71.4178 33.6965C71.6849 33.7436 71.9599 33.7672 72.2427 33.7672C72.3842 33.7672 72.5727 33.665 72.8084 33.4608C73.0598 33.2565 73.2483 33.0758 73.374 32.9187ZM74.4963 32.6123C74.5435 32.5337 74.6299 32.4709 74.7556 32.4237C74.8813 32.3766 74.9599 32.3766 74.9913 32.4237C75.007 32.5023 75.0306 32.5966 75.062 32.7066C75.0934 32.8166 75.1248 32.9108 75.1563 32.9894C75.3762 33.4294 75.6826 33.7593 76.0755 33.9793C76.4683 34.1993 76.869 34.3093 77.2775 34.3093C77.8117 34.3093 78.2202 34.1757 78.5031 33.9086C78.8016 33.6415 78.9509 33.2801 78.9509 32.8244C78.9509 32.4473 78.8252 32.0938 78.5738 31.7638C78.3381 31.4181 77.8431 31.0882 77.0889 30.7739C76.3347 30.4754 75.7691 30.1376 75.392 29.7605C75.0149 29.3676 74.8263 28.8177 74.8263 28.1106C74.8263 27.655 74.9284 27.2307 75.1327 26.8379C75.3527 26.4294 75.6905 26.068 76.1462 25.7537C76.5233 25.5023 76.8847 25.3452 77.2303 25.2823C77.5917 25.2038 77.9531 25.1645 78.3145 25.1645C78.723 25.1645 79.0687 25.2038 79.3516 25.2823C79.6344 25.3609 79.8622 25.4395 80.0351 25.518C80.0665 25.7851 80.09 26.0994 80.1058 26.4608C80.1215 26.8065 80.1136 27.1207 80.0822 27.4036C80.0508 27.4664 79.9801 27.5135 79.8701 27.545C79.7758 27.5607 79.6972 27.5528 79.6344 27.5214C79.6344 27.4585 79.6265 27.3486 79.6108 27.1914C79.5951 27.0186 79.5794 26.9086 79.5637 26.8615C79.5008 26.6572 79.3201 26.4686 79.0216 26.2958C78.723 26.123 78.2988 26.0365 77.7489 26.0365C77.3246 26.0365 76.9397 26.1465 76.594 26.3665C76.2483 26.5865 76.0755 26.9479 76.0755 27.4507C76.0755 27.8121 76.209 28.1263 76.4761 28.3934C76.7433 28.6606 77.2461 28.9355 77.9846 29.2184C78.9116 29.5326 79.5637 29.9097 79.9408 30.3497C80.3179 30.7896 80.5064 31.3474 80.5064 32.0231C80.5064 32.463 80.42 32.8716 80.2472 33.2487C80.0743 33.6258 79.8386 33.9557 79.5401 34.2386C79.2416 34.5057 78.888 34.7178 78.4795 34.8749C78.0867 35.0321 77.6546 35.1106 77.1832 35.1106C76.7118 35.1106 76.2797 35.0792 75.8869 35.0163C75.4941 34.9535 75.1641 34.8828 74.897 34.8042C74.897 34.7414 74.897 34.6707 74.897 34.5921C74.897 34.4978 74.8813 34.3721 74.8499 34.215C74.8342 34.0422 74.7949 33.83 74.732 33.5786C74.6849 33.3115 74.6063 32.9894 74.4963 32.6123ZM90.1671 32.7773C90.1986 32.7773 90.2379 32.793 90.285 32.8244C90.3321 32.8558 90.3714 32.8873 90.4028 32.9187C90.45 32.9973 90.4578 33.0994 90.4264 33.2251C90.2536 33.4294 90.0179 33.6415 89.7193 33.8615C89.4365 34.0657 89.1301 34.2621 88.8001 34.4507C88.4859 34.6235 88.1559 34.7649 87.8102 34.8749C87.4803 35.0006 87.1817 35.0635 86.9146 35.0635C86.1604 35.0635 85.5005 34.9378 84.9348 34.6864C84.3849 34.4193 83.9292 34.0736 83.5678 33.6493C83.2221 33.2251 82.9629 32.738 82.79 32.1881C82.6172 31.6381 82.5308 31.0725 82.5308 30.4911C82.5308 29.5483 82.7351 28.6527 83.1436 27.8042C83.5521 26.9557 84.1963 26.3037 85.0762 25.848C85.2648 25.7537 85.4691 25.6673 85.689 25.5887C85.909 25.5102 86.129 25.4395 86.349 25.3766C86.5689 25.2981 86.7811 25.2431 86.9853 25.2116C87.1896 25.1645 87.3624 25.1409 87.5039 25.1409C87.9438 25.1409 88.3445 25.2431 88.7059 25.4473C89.0673 25.6359 89.3737 25.8951 89.6251 26.2251C89.8922 26.5551 90.0886 26.9322 90.2143 27.3564C90.3557 27.7807 90.4264 28.2206 90.4264 28.6763C90.4264 28.912 90.4028 29.0612 90.3557 29.1241C90.3086 29.1869 90.1593 29.2341 89.9079 29.2655C89.8293 29.2812 89.6486 29.2969 89.3658 29.3126C89.083 29.3284 88.7452 29.3519 88.3523 29.3833C87.9752 29.4148 87.5588 29.4462 87.1032 29.4776C86.6632 29.509 86.2468 29.5405 85.854 29.5719C85.4612 29.6033 85.1234 29.6347 84.8406 29.6662C84.5577 29.6819 84.377 29.6897 84.2985 29.6897V29.8547C84.2985 31.1117 84.6441 32.0938 85.3355 32.8009C86.0426 33.4922 86.9696 33.8379 88.1166 33.8379C88.2581 33.8379 88.423 33.8065 88.6116 33.7436C88.8159 33.665 89.0123 33.5708 89.2008 33.4608C89.4051 33.3508 89.5936 33.233 89.7665 33.1072C89.9393 32.9815 90.0729 32.8716 90.1671 32.7773ZM84.3456 28.6527C84.3456 28.7313 84.3927 28.7706 84.487 28.7706H88.588C88.7137 28.7706 88.7766 28.7234 88.7766 28.6291C88.7766 28.3306 88.7216 28.0321 88.6116 27.7335C88.5173 27.4193 88.368 27.1364 88.1638 26.885C87.9752 26.6336 87.7395 26.4294 87.4567 26.2722C87.1739 26.0994 86.8596 26.013 86.514 26.013C86.1997 26.013 85.909 26.1151 85.6419 26.3194C85.3905 26.5079 85.1627 26.7436 84.9584 27.0264C84.7698 27.3093 84.6206 27.6 84.5106 27.8985C84.4006 28.197 84.3456 28.4484 84.3456 28.6527ZM95.1209 18.1881C95.1994 18.1881 95.2466 18.2195 95.2623 18.2823C95.2309 18.5023 95.2073 18.903 95.1916 19.4844C95.1759 20.0657 95.168 20.8592 95.168 21.8648V31.8581C95.168 32.6123 95.1759 33.1387 95.1916 33.4372C95.2073 33.7358 95.2309 33.9007 95.2623 33.9322C95.3566 34.0579 95.8594 34.1443 96.7707 34.1914C96.8021 34.2543 96.8178 34.3407 96.8178 34.4507C96.8178 34.4978 96.8021 34.5764 96.7707 34.6864C96.755 34.7964 96.7236 34.8514 96.6764 34.8514C96.6136 34.8514 96.4957 34.8435 96.3229 34.8278C96.1501 34.8121 95.9458 34.7964 95.7101 34.7806C95.4901 34.7806 95.2623 34.7728 95.0266 34.7571C94.7909 34.7414 94.5788 34.7335 94.3902 34.7335C94.2645 34.7335 94.0838 34.7414 93.8481 34.7571C93.6125 34.7728 93.3689 34.7806 93.1175 34.7806C92.8818 34.7964 92.654 34.8121 92.434 34.8278C92.2297 34.8435 92.104 34.8514 92.0569 34.8514C91.9941 34.8514 91.9548 34.8199 91.9391 34.7571C91.9233 34.6785 91.9155 34.5921 91.9155 34.4978C91.9155 34.3564 91.9469 34.2543 92.0098 34.1914C92.324 34.16 92.5911 34.1364 92.8111 34.1207C93.0311 34.105 93.1804 34.0579 93.2589 33.9793C93.2903 33.9322 93.3218 33.8457 93.3532 33.72C93.3846 33.5786 93.4082 33.3744 93.4239 33.1072C93.4396 32.8244 93.4475 32.4709 93.4475 32.0466C93.4632 31.6224 93.471 31.1039 93.471 30.4911V22.2891C93.471 21.7391 93.4553 21.2835 93.4239 20.9221C93.3925 20.5607 93.3375 20.2464 93.2589 19.9793H91.9626C91.9312 19.9793 91.8998 19.9479 91.8684 19.885C91.8526 19.8222 91.8448 19.7672 91.8448 19.7201C91.8448 19.4687 91.8841 19.3351 91.9626 19.3194C92.1512 19.2722 92.4026 19.2015 92.7168 19.1073C93.0468 18.9973 93.3689 18.8873 93.6832 18.7773C94.0131 18.6673 94.3117 18.5573 94.5788 18.4473C94.8459 18.3373 95.0266 18.2509 95.1209 18.1881ZM101.128 18.1881C101.207 18.1881 101.254 18.2195 101.27 18.2823C101.238 18.5023 101.215 18.903 101.199 19.4844C101.183 20.0657 101.175 20.8592 101.175 21.8648V31.8581C101.175 32.6123 101.183 33.1387 101.199 33.4372C101.215 33.7358 101.238 33.9007 101.27 33.9322C101.364 34.0579 101.867 34.1443 102.778 34.1914C102.809 34.2543 102.825 34.3407 102.825 34.4507C102.825 34.4978 102.809 34.5764 102.778 34.6864C102.762 34.7964 102.731 34.8514 102.684 34.8514C102.621 34.8514 102.503 34.8435 102.33 34.8278C102.157 34.8121 101.953 34.7964 101.717 34.7806C101.497 34.7806 101.27 34.7728 101.034 34.7571C100.798 34.7414 100.586 34.7335 100.398 34.7335C100.272 34.7335 100.091 34.7414 99.8555 34.7571C99.6198 34.7728 99.3762 34.7806 99.1248 34.7806C98.8892 34.7964 98.6613 34.8121 98.4413 34.8278C98.2371 34.8435 98.1114 34.8514 98.0642 34.8514C98.0014 34.8514 97.9621 34.8199 97.9464 34.7571C97.9307 34.6785 97.9228 34.5921 97.9228 34.4978C97.9228 34.3564 97.9543 34.2543 98.0171 34.1914C98.3314 34.16 98.5985 34.1364 98.8184 34.1207C99.0384 34.105 99.1877 34.0579 99.2663 33.9793C99.2977 33.9322 99.3291 33.8457 99.3605 33.72C99.392 33.5786 99.4155 33.3744 99.4312 33.1072C99.447 32.8244 99.4548 32.4709 99.4548 32.0466C99.4705 31.6224 99.4784 31.1039 99.4784 30.4911V22.2891C99.4784 21.7391 99.4627 21.2835 99.4312 20.9221C99.3998 20.5607 99.3448 20.2464 99.2663 19.9793H97.97C97.9385 19.9793 97.9071 19.9479 97.8757 19.885C97.86 19.8222 97.8521 19.7672 97.8521 19.7201C97.8521 19.4687 97.8914 19.3351 97.97 19.3194C98.1585 19.2722 98.4099 19.2015 98.7242 19.1073C99.0541 18.9973 99.3762 18.8873 99.6905 18.7773C100.02 18.6673 100.319 18.5573 100.586 18.4473C100.853 18.3373 101.034 18.2509 101.128 18.1881ZM111.826 32.7773C111.857 32.7773 111.896 32.793 111.944 32.8244C111.991 32.8558 112.03 32.8873 112.061 32.9187C112.109 32.9973 112.116 33.0994 112.085 33.2251C111.912 33.4294 111.677 33.6415 111.378 33.8615C111.095 34.0657 110.789 34.2621 110.459 34.4507C110.145 34.6235 109.815 34.7649 109.469 34.8749C109.139 35.0006 108.84 35.0635 108.573 35.0635C107.819 35.0635 107.159 34.9378 106.593 34.6864C106.044 34.4193 105.588 34.0736 105.226 33.6493C104.881 33.2251 104.622 32.738 104.449 32.1881C104.276 31.6381 104.189 31.0725 104.189 30.4911C104.189 29.5483 104.394 28.6527 104.802 27.8042C105.211 26.9557 105.855 26.3037 106.735 25.848C106.923 25.7537 107.128 25.6673 107.348 25.5887C107.568 25.5102 107.788 25.4395 108.008 25.3766C108.228 25.2981 108.44 25.2431 108.644 25.2116C108.848 25.1645 109.021 25.1409 109.162 25.1409C109.602 25.1409 110.003 25.2431 110.365 25.4473C110.726 25.6359 111.032 25.8951 111.284 26.2251C111.551 26.5551 111.747 26.9322 111.873 27.3564C112.014 27.7807 112.085 28.2206 112.085 28.6763C112.085 28.912 112.061 29.0612 112.014 29.1241C111.967 29.1869 111.818 29.2341 111.567 29.2655C111.488 29.2812 111.307 29.2969 111.024 29.3126C110.742 29.3284 110.404 29.3519 110.011 29.3833C109.634 29.4148 109.217 29.4462 108.762 29.4776C108.322 29.509 107.905 29.5405 107.513 29.5719C107.12 29.6033 106.782 29.6347 106.499 29.6662C106.216 29.6819 106.036 29.6897 105.957 29.6897V29.8547C105.957 31.1117 106.303 32.0938 106.994 32.8009C107.701 33.4922 108.628 33.8379 109.775 33.8379C109.917 33.8379 110.082 33.8065 110.27 33.7436C110.474 33.665 110.671 33.5708 110.859 33.4608C111.064 33.3508 111.252 33.233 111.425 33.1072C111.598 32.9815 111.732 32.8716 111.826 32.7773ZM106.004 28.6527C106.004 28.7313 106.051 28.7706 106.146 28.7706H110.247C110.372 28.7706 110.435 28.7234 110.435 28.6291C110.435 28.3306 110.38 28.0321 110.27 27.7335C110.176 27.4193 110.027 27.1364 109.822 26.885C109.634 26.6336 109.398 26.4294 109.115 26.2722C108.833 26.0994 108.518 26.013 108.173 26.013C107.858 26.013 107.568 26.1151 107.301 26.3194C107.049 26.5079 106.821 26.7436 106.617 27.0264C106.428 27.3093 106.279 27.6 106.169 27.8985C106.059 28.197 106.004 28.4484 106.004 28.6527ZM116.567 24.9288C116.615 24.9131 116.67 24.9209 116.732 24.9524C116.795 24.9681 116.827 24.9917 116.827 25.0231C116.827 25.0702 116.803 25.1802 116.756 25.353C116.725 25.5102 116.709 25.7773 116.709 26.1544C116.709 26.3429 116.709 26.5708 116.709 26.8379C116.725 27.0893 116.732 27.2778 116.732 27.4036C117.188 26.8379 117.628 26.3744 118.052 26.013C118.476 25.6516 118.83 25.4002 119.113 25.2588C119.239 25.2273 119.364 25.2116 119.49 25.2116C119.631 25.1959 119.781 25.1881 119.938 25.1881C120.111 25.1881 120.307 25.2588 120.527 25.4002C120.763 25.5259 120.959 25.7459 121.116 26.0601V26.4137L120.503 27.6392C120.472 27.6707 120.433 27.6864 120.386 27.6864C120.354 27.6864 120.338 27.6707 120.338 27.6392V27.5214C120.166 27.2857 119.946 27.0893 119.678 26.9322C119.411 26.775 119.113 26.6965 118.783 26.6965C118.594 26.6965 118.359 26.775 118.076 26.9322C117.793 27.0893 117.542 27.2778 117.322 27.4978C117.133 27.6864 116.999 27.8514 116.921 27.9928C116.858 28.1342 116.827 28.2756 116.827 28.417V33.2487C116.827 33.4372 116.842 33.5943 116.874 33.72C116.905 33.83 116.976 33.9165 117.086 33.9793C117.196 34.0422 117.361 34.0893 117.581 34.1207C117.817 34.1364 118.139 34.1443 118.547 34.1443C118.594 34.1443 118.626 34.1836 118.641 34.2621C118.657 34.3407 118.665 34.4114 118.665 34.4743C118.665 34.6314 118.641 34.7335 118.594 34.7806C118.547 34.8278 118.484 34.8514 118.406 34.8514C117.982 34.8514 117.534 34.8356 117.062 34.8042C116.591 34.7728 116.253 34.7571 116.049 34.7571C115.703 34.7571 115.326 34.7728 114.918 34.8042C114.509 34.8356 114.14 34.8514 113.81 34.8514C113.716 34.8514 113.668 34.7806 113.668 34.6392C113.668 34.5607 113.676 34.4585 113.692 34.3328C113.723 34.2071 113.755 34.1443 113.786 34.1443C114.493 34.1443 114.894 34.0893 114.988 33.9793C115.004 33.9636 115.02 33.8929 115.035 33.7672C115.051 33.6258 115.059 33.4058 115.059 33.1072C115.075 32.8087 115.083 32.408 115.083 31.9052C115.098 31.4024 115.106 30.7661 115.106 29.9961C115.106 29.4305 115.098 28.967 115.083 28.6056C115.083 28.2285 115.075 27.9299 115.059 27.7099C115.043 27.49 115.028 27.325 115.012 27.215C114.996 27.0893 114.98 26.995 114.965 26.9322L113.928 26.5315C113.833 26.5158 113.786 26.4137 113.786 26.2251C113.786 26.1151 113.833 26.0523 113.928 26.0365C114.053 25.9894 114.226 25.9266 114.446 25.848C114.682 25.7694 114.925 25.683 115.177 25.5887C115.428 25.4787 115.672 25.3688 115.907 25.2588C116.159 25.1488 116.379 25.0388 116.567 24.9288Z" fill="white"/>
<defs>
<linearGradient id="paint0_linear_104_73" x1="173.61" y1="0.753662" x2="173.61" y2="56.7605" gradientUnits="userSpaceOnUse">
<stop stop-color="white" stop-opacity="0.05"/>
<stop offset="1" stop-color="white" stop-opacity="0"/>
</linearGradient>
</defs>
</svg>
