<svg width="156" height="56" viewBox="0 0 156 56" fill="none" xmlns="http://www.w3.org/2000/svg">
<path d="M28.0034 0H127.373L155.376 28.0034L127.373 56.0069H28.0034L0 28.0034L28.0034 0Z" fill="#FFB84C"/>
<path opacity="0.6" d="M35.941 33.7913C35.941 33.5242 35.9724 33.3906 36.0353 33.3906C36.2867 33.3592 36.5067 33.3356 36.6952 33.3199C36.8838 33.3042 37.033 33.2414 37.143 33.1314C37.2059 33.0685 37.2609 32.9507 37.308 32.7778C37.3552 32.605 37.3866 32.2829 37.4023 31.8115C37.418 31.3401 37.4259 30.6723 37.4259 29.8081C37.4416 28.9439 37.4494 27.7891 37.4494 26.3435C37.4494 25.0236 37.4416 23.963 37.4259 23.1617C37.4102 22.3603 37.3866 21.7397 37.3552 21.2997C37.3394 20.8441 37.308 20.5298 37.2609 20.357C37.2137 20.1841 37.1587 20.0663 37.0959 20.0034C37.0488 19.9563 36.9466 19.9092 36.7895 19.862C36.6324 19.7992 36.4595 19.752 36.271 19.7206C36.0824 19.6735 35.886 19.642 35.6818 19.6263C35.4932 19.5949 35.3439 19.5792 35.2339 19.5792C35.1711 19.5792 35.1397 19.5006 35.1397 19.3435C35.1397 19.2492 35.1475 19.1942 35.1632 19.1785C35.179 19.1471 35.2025 19.1235 35.2339 19.1078C35.5168 19.0921 35.8625 19.0764 36.271 19.0607C36.6952 19.0292 37.1116 19.0057 37.5201 18.99C37.9444 18.9585 38.3372 18.9428 38.6986 18.9428C39.0757 18.9271 39.3664 18.9193 39.5706 18.9193C40.3091 18.9193 40.9376 18.935 41.4562 18.9664C41.9747 18.9978 42.4146 19.045 42.776 19.1078C43.1531 19.1549 43.4674 19.2257 43.7188 19.3199C43.9702 19.4142 44.2059 19.5242 44.4259 19.6499C44.9601 19.9484 45.3451 20.3255 45.5807 20.7812C45.8321 21.2212 45.9578 21.7083 45.9578 22.2425C45.9578 22.541 45.9186 22.8396 45.84 23.1381C45.7614 23.4366 45.62 23.7352 45.4158 24.0337C45.2272 24.3323 44.9601 24.6308 44.6144 24.9294C44.2844 25.2122 43.8602 25.495 43.3417 25.7778C44.0488 25.9192 44.638 26.1235 45.1094 26.3906C45.5807 26.642 45.95 26.9327 46.2171 27.2627C46.4999 27.5926 46.6963 27.954 46.8063 28.3469C46.9163 28.724 46.9713 29.1089 46.9713 29.5017C46.9713 30.2559 46.822 30.9237 46.5235 31.5051C46.225 32.0865 45.8164 32.5736 45.2979 32.9664C44.7794 33.3435 44.1745 33.6342 43.4831 33.8384C42.7917 34.0427 42.0532 34.1448 41.2676 34.1448C41.0948 34.1448 40.8669 34.137 40.5841 34.1213C40.317 34.1056 40.0342 34.082 39.7356 34.0506C39.4528 34.0348 39.17 34.0191 38.8871 34.0034C38.62 33.9877 38.3922 33.9798 38.2036 33.9798C37.5594 33.9798 37.0566 34.0034 36.6952 34.0506C36.3495 34.0977 36.1453 34.1213 36.0824 34.1213C35.9882 34.1213 35.941 34.0113 35.941 33.7913ZM39.3821 25.4243C39.3821 25.55 39.3978 25.6364 39.4292 25.6836C39.4764 25.7307 39.5628 25.7543 39.6885 25.7543H41.2205C41.3305 25.7543 41.4954 25.7621 41.7154 25.7778C41.9511 25.7778 42.1789 25.77 42.3989 25.7543C42.8232 25.5814 43.2081 25.2593 43.5538 24.7879C43.9152 24.3008 44.0959 23.6566 44.0959 22.8553C44.0959 22.3053 43.978 21.8261 43.7424 21.4176C43.5067 21.009 43.1767 20.6712 42.7525 20.4041C42.3439 20.137 41.849 19.9327 41.2676 19.7913C40.702 19.6499 40.0735 19.5792 39.3821 19.5792V25.4243ZM39.3821 30.7273C39.3821 31.3873 39.3978 31.8744 39.4292 32.1886C39.4607 32.5029 39.5549 32.7464 39.7121 32.9192C39.8535 33.0921 40.0892 33.2178 40.4191 33.2963C40.7648 33.3592 41.1419 33.3906 41.5504 33.3906C41.959 33.3906 42.3596 33.3278 42.7525 33.2021C43.161 33.0764 43.5224 32.88 43.8366 32.6128C44.1509 32.3457 44.4023 32.0001 44.5908 31.5758C44.7951 31.1359 44.8972 30.6173 44.8972 30.0203C44.8972 29.5489 44.8265 29.1011 44.6851 28.6768C44.5437 28.2369 44.2687 27.8519 43.8602 27.5219C43.4674 27.192 42.9096 26.9249 42.1868 26.7206C41.464 26.5163 40.5291 26.4142 39.3821 26.4142V30.7273ZM56.6431 32.0236C56.6745 32.0236 56.7138 32.0393 56.7609 32.0708C56.8081 32.1022 56.8473 32.1336 56.8788 32.165C56.9259 32.2436 56.9338 32.3457 56.9023 32.4714C56.7295 32.6757 56.4938 32.8878 56.1953 33.1078C55.9124 33.3121 55.606 33.5085 55.2761 33.697C54.9618 33.8699 54.6319 34.0113 54.2862 34.1213C53.9562 34.247 53.6577 34.3098 53.3906 34.3098C52.6363 34.3098 51.9764 34.1841 51.4108 33.9327C50.8608 33.6656 50.4051 33.3199 50.0438 32.8957C49.6981 32.4714 49.4388 31.9843 49.266 31.4344C49.0931 30.8845 49.0067 30.3188 49.0067 29.7374C49.0067 28.7947 49.211 27.899 49.6195 27.0506C50.028 26.2021 50.6723 25.55 51.5522 25.0943C51.7407 25.0001 51.945 24.9136 52.165 24.8351C52.3849 24.7565 52.6049 24.6858 52.8249 24.623C53.0449 24.5444 53.257 24.4894 53.4613 24.458C53.6655 24.4108 53.8384 24.3873 53.9798 24.3873C54.4197 24.3873 54.8204 24.4894 55.1818 24.6937C55.5432 24.8822 55.8496 25.1415 56.101 25.4714C56.3681 25.8014 56.5645 26.1785 56.6902 26.6027C56.8316 27.027 56.9023 27.4669 56.9023 27.9226C56.9023 28.1583 56.8788 28.3076 56.8316 28.3704C56.7845 28.4333 56.6352 28.4804 56.3838 28.5118C56.3053 28.5276 56.1246 28.5433 55.8417 28.559C55.5589 28.5747 55.2211 28.5983 54.8283 28.6297C54.4512 28.6611 54.0348 28.6925 53.5791 28.724C53.1391 28.7554 52.7228 28.7868 52.3299 28.8182C51.9371 28.8497 51.5993 28.8811 51.3165 28.9125C51.0337 28.9282 50.853 28.9361 50.7744 28.9361V29.1011C50.7744 30.3581 51.1201 31.3401 51.8114 32.0472C52.5185 32.7385 53.4455 33.0842 54.5926 33.0842C54.734 33.0842 54.899 33.0528 55.0875 32.99C55.2918 32.9114 55.4882 32.8171 55.6767 32.7071C55.881 32.5971 56.0696 32.4793 56.2424 32.3536C56.4152 32.2279 56.5488 32.1179 56.6431 32.0236ZM50.8215 27.899C50.8215 27.9776 50.8687 28.0169 50.9629 28.0169H55.064C55.1897 28.0169 55.2525 27.9698 55.2525 27.8755C55.2525 27.5769 55.1975 27.2784 55.0875 26.9799C54.9932 26.6656 54.844 26.3828 54.6397 26.1314C54.4512 25.88 54.2155 25.6757 53.9326 25.5186C53.6498 25.3457 53.3356 25.2593 52.9899 25.2593C52.6756 25.2593 52.3849 25.3614 52.1178 25.5657C51.8664 25.7543 51.6386 25.99 51.4343 26.2728C51.2458 26.5556 51.0965 26.8463 50.9865 27.1448C50.8765 27.4434 50.8215 27.6948 50.8215 27.899ZM58.8101 31.8586C58.8573 31.7801 58.9437 31.7172 59.0694 31.6701C59.1951 31.6229 59.2737 31.6229 59.3051 31.6701C59.3208 31.7486 59.3444 31.8429 59.3758 31.9529C59.4072 32.0629 59.4386 32.1572 59.4701 32.2357C59.69 32.6757 59.9964 33.0057 60.3893 33.2256C60.7821 33.4456 61.1827 33.5556 61.5913 33.5556C62.1255 33.5556 62.534 33.422 62.8169 33.1549C63.1154 32.8878 63.2647 32.5264 63.2647 32.0708C63.2647 31.6937 63.139 31.3401 62.8876 31.0102C62.6519 30.6645 62.1569 30.3345 61.4027 30.0203C60.6485 29.7217 60.0829 29.3839 59.7058 29.0068C59.3287 28.614 59.1401 28.064 59.1401 27.357C59.1401 26.9013 59.2422 26.477 59.4465 26.0842C59.6665 25.6757 60.0043 25.3143 60.46 25.0001C60.8371 24.7487 61.1985 24.5915 61.5441 24.5287C61.9055 24.4501 62.2669 24.4108 62.6283 24.4108C63.0368 24.4108 63.3825 24.4501 63.6654 24.5287C63.9482 24.6072 64.176 24.6858 64.3489 24.7644C64.3803 25.0315 64.4038 25.3457 64.4196 25.7071C64.4353 26.0528 64.4274 26.3671 64.396 26.6499C64.3646 26.7127 64.2939 26.7599 64.1839 26.7913C64.0896 26.807 64.011 26.7992 63.9482 26.7677C63.9482 26.7049 63.9403 26.5949 63.9246 26.4378C63.9089 26.2649 63.8932 26.1549 63.8775 26.1078C63.8146 25.9035 63.6339 25.715 63.3354 25.5421C63.0368 25.3693 62.6126 25.2829 62.0627 25.2829C61.6384 25.2829 61.2535 25.3929 60.9078 25.6129C60.5621 25.8328 60.3893 26.1942 60.3893 26.697C60.3893 27.0584 60.5228 27.3727 60.7899 27.6398C61.057 27.9069 61.5599 28.1819 62.2983 28.4647C63.2254 28.779 63.8775 29.1561 64.2546 29.596C64.6317 30.036 64.8202 30.5938 64.8202 31.2694C64.8202 31.7094 64.7338 32.1179 64.561 32.495C64.3881 32.8721 64.1524 33.2021 63.8539 33.4849C63.5554 33.752 63.2018 33.9641 62.7933 34.1213C62.4005 34.2784 61.9684 34.357 61.497 34.357C61.0256 34.357 60.5935 34.3255 60.2007 34.2627C59.8079 34.1998 59.4779 34.1291 59.2108 34.0506C59.2108 33.9877 59.2108 33.917 59.2108 33.8384C59.2108 33.7442 59.1951 33.6185 59.1637 33.4613C59.148 33.2885 59.1087 33.0764 59.0458 32.825C58.9987 32.5579 58.9201 32.2357 58.8101 31.8586ZM72.6717 32.165C72.7031 32.165 72.7345 32.1807 72.7659 32.2122C72.8131 32.2279 72.8524 32.2515 72.8838 32.2829C72.9623 32.3614 73.0016 32.4479 73.0016 32.5421C72.9231 32.6678 72.7816 32.825 72.5774 33.0135C72.3731 33.2021 72.1453 33.3906 71.8939 33.5792C71.6582 33.752 71.4146 33.9013 71.1632 34.027C70.9118 34.1684 70.6997 34.2391 70.5269 34.2391C70.0869 34.2391 69.6862 34.1841 69.3249 34.0741C68.9635 33.9798 68.6571 33.807 68.4057 33.5556C68.1543 33.3042 67.9579 32.9664 67.8164 32.5421C67.675 32.1179 67.6122 31.5837 67.6279 30.9394L67.7457 26.0607H66.4494C66.3552 26.0607 66.308 25.9978 66.308 25.8721C66.308 25.7621 66.3237 25.6836 66.3552 25.6364C66.3866 25.5893 66.4259 25.55 66.473 25.5186C67.1015 25.1729 67.5572 24.8586 67.84 24.5758C68.1228 24.2773 68.3585 24.0102 68.5471 23.7745C68.7042 23.5545 68.8299 23.3345 68.9242 23.1145C69.0342 22.8946 69.1127 22.7689 69.1599 22.7374L69.537 22.5489C69.6313 22.5175 69.6784 22.541 69.6784 22.6196C69.6784 22.6824 69.6391 22.9496 69.5605 23.4209C69.4977 23.8766 69.4663 24.3873 69.4663 24.9529H71.776C72.106 24.9529 72.3417 24.9451 72.4831 24.9294C72.6245 24.8979 72.7188 24.8822 72.7659 24.8822C72.8131 24.8822 72.8366 24.9136 72.8366 24.9765C72.8366 25.0708 72.8052 25.1808 72.7424 25.3065L72.5538 25.7778C72.5067 25.9035 72.4203 25.9664 72.2946 25.9664L69.5134 25.99C69.4348 25.99 69.3956 26.045 69.3956 26.1549L69.3484 30.8452C69.3484 31.3166 69.4034 31.6937 69.5134 31.9765C69.6391 32.2593 69.8041 32.4793 70.0084 32.6364C70.2126 32.7778 70.4483 32.88 70.7154 32.9428C70.9825 32.99 71.2575 33.0135 71.5403 33.0135C71.6818 33.0135 71.8703 32.9114 72.106 32.7071C72.3574 32.5029 72.546 32.3222 72.6717 32.165ZM73.7939 31.8586C73.8411 31.7801 73.9275 31.7172 74.0532 31.6701C74.1789 31.6229 74.2575 31.6229 74.2889 31.6701C74.3046 31.7486 74.3282 31.8429 74.3596 31.9529C74.391 32.0629 74.4225 32.1572 74.4539 32.2357C74.6739 32.6757 74.9803 33.0057 75.3731 33.2256C75.7659 33.4456 76.1666 33.5556 76.5751 33.5556C77.1093 33.5556 77.5178 33.422 77.8007 33.1549C78.0992 32.8878 78.2485 32.5264 78.2485 32.0708C78.2485 31.6937 78.1228 31.3401 77.8714 31.0102C77.6357 30.6645 77.1407 30.3345 76.3865 30.0203C75.6323 29.7217 75.0667 29.3839 74.6896 29.0068C74.3125 28.614 74.1239 28.064 74.1239 27.357C74.1239 26.9013 74.226 26.477 74.4303 26.0842C74.6503 25.6757 74.9881 25.3143 75.4438 25.0001C75.8209 24.7487 76.1823 24.5915 76.528 24.5287C76.8893 24.4501 77.2507 24.4108 77.6121 24.4108C78.0207 24.4108 78.3663 24.4501 78.6492 24.5287C78.932 24.6072 79.1598 24.6858 79.3327 24.7644C79.3641 25.0315 79.3877 25.3457 79.4034 25.7071C79.4191 26.0528 79.4112 26.3671 79.3798 26.6499C79.3484 26.7127 79.2777 26.7599 79.1677 26.7913C79.0734 26.807 78.9948 26.7992 78.932 26.7677C78.932 26.7049 78.9241 26.5949 78.9084 26.4378C78.8927 26.2649 78.877 26.1549 78.8613 26.1078C78.7984 25.9035 78.6177 25.715 78.3192 25.5421C78.0207 25.3693 77.5964 25.2829 77.0465 25.2829C76.6222 25.2829 76.2373 25.3929 75.8916 25.6129C75.5459 25.8328 75.3731 26.1942 75.3731 26.697C75.3731 27.0584 75.5066 27.3727 75.7737 27.6398C76.0409 27.9069 76.5437 28.1819 77.2822 28.4647C78.2092 28.779 78.8613 29.1561 79.2384 29.596C79.6155 30.036 79.804 30.5938 79.804 31.2694C79.804 31.7094 79.7176 32.1179 79.5448 32.495C79.3719 32.8721 79.1363 33.2021 78.8377 33.4849C78.5392 33.752 78.1856 33.9641 77.7771 34.1213C77.3843 34.2784 76.9522 34.357 76.4808 34.357C76.0094 34.357 75.5773 34.3255 75.1845 34.2627C74.7917 34.1998 74.4617 34.1291 74.1946 34.0506C74.1946 33.9877 74.1946 33.917 74.1946 33.8384C74.1946 33.7442 74.1789 33.6185 74.1475 33.4613C74.1318 33.2885 74.0925 33.0764 74.0296 32.825C73.9825 32.5579 73.9039 32.2357 73.7939 31.8586ZM89.4648 32.0236C89.4962 32.0236 89.5355 32.0393 89.5826 32.0708C89.6297 32.1022 89.669 32.1336 89.7004 32.165C89.7476 32.2436 89.7554 32.3457 89.724 32.4714C89.5512 32.6757 89.3155 32.8878 89.0169 33.1078C88.7341 33.3121 88.4277 33.5085 88.0978 33.697C87.7835 33.8699 87.4535 34.0113 87.1079 34.1213C86.7779 34.247 86.4793 34.3098 86.2122 34.3098C85.458 34.3098 84.7981 34.1841 84.2324 33.9327C83.6825 33.6656 83.2268 33.3199 82.8654 32.8957C82.5198 32.4714 82.2605 31.9843 82.0877 31.4344C81.9148 30.8845 81.8284 30.3188 81.8284 29.7374C81.8284 28.7947 82.0327 27.899 82.4412 27.0506C82.8497 26.2021 83.4939 25.55 84.3739 25.0943C84.5624 25.0001 84.7667 24.9136 84.9866 24.8351C85.2066 24.7565 85.4266 24.6858 85.6466 24.623C85.8666 24.5444 86.0787 24.4894 86.2829 24.458C86.4872 24.4108 86.66 24.3873 86.8015 24.3873C87.2414 24.3873 87.6421 24.4894 88.0035 24.6937C88.3649 24.8822 88.6713 25.1415 88.9227 25.4714C89.1898 25.8014 89.3862 26.1785 89.5119 26.6027C89.6533 27.027 89.724 27.4669 89.724 27.9226C89.724 28.1583 89.7004 28.3076 89.6533 28.3704C89.6062 28.4333 89.4569 28.4804 89.2055 28.5118C89.1269 28.5276 88.9462 28.5433 88.6634 28.559C88.3806 28.5747 88.0428 28.5983 87.6499 28.6297C87.2728 28.6611 86.8565 28.6925 86.4008 28.724C85.9608 28.7554 85.5444 28.7868 85.1516 28.8182C84.7588 28.8497 84.421 28.8811 84.1382 28.9125C83.8553 28.9282 83.6746 28.9361 83.5961 28.9361V29.1011C83.5961 30.3581 83.9418 31.3401 84.6331 32.0472C85.3402 32.7385 86.2672 33.0842 87.4143 33.0842C87.5557 33.0842 87.7206 33.0528 87.9092 32.99C88.1135 32.9114 88.3099 32.8171 88.4984 32.7071C88.7027 32.5971 88.8912 32.4793 89.0641 32.3536C89.2369 32.2279 89.3705 32.1179 89.4648 32.0236ZM83.6432 27.899C83.6432 27.9776 83.6903 28.0169 83.7846 28.0169H87.8856C88.0113 28.0169 88.0742 27.9698 88.0742 27.8755C88.0742 27.5769 88.0192 27.2784 87.9092 26.9799C87.8149 26.6656 87.6657 26.3828 87.4614 26.1314C87.2728 25.88 87.0371 25.6757 86.7543 25.5186C86.4715 25.3457 86.1572 25.2593 85.8116 25.2593C85.4973 25.2593 85.2066 25.3614 84.9395 25.5657C84.6881 25.7543 84.4603 25.99 84.256 26.2728C84.0675 26.5556 83.9182 26.8463 83.8082 27.1448C83.6982 27.4434 83.6432 27.6948 83.6432 27.899ZM94.4185 17.4344C94.497 17.4344 94.5442 17.4658 94.5599 17.5287C94.5285 17.7487 94.5049 18.1493 94.4892 18.7307C94.4735 19.3121 94.4656 20.1056 94.4656 21.1112V31.1044C94.4656 31.8586 94.4735 32.385 94.4892 32.6836C94.5049 32.9821 94.5285 33.1471 94.5599 33.1785C94.6542 33.3042 95.157 33.3906 96.0683 33.4378C96.0997 33.5006 96.1155 33.587 96.1155 33.697C96.1155 33.7442 96.0997 33.8227 96.0683 33.9327C96.0526 34.0427 96.0212 34.0977 95.974 34.0977C95.9112 34.0977 95.7933 34.0898 95.6205 34.0741C95.4477 34.0584 95.2434 34.0427 95.0077 34.027C94.7877 34.027 94.5599 34.0191 94.3242 34.0034C94.0885 33.9877 93.8764 33.9798 93.6878 33.9798C93.5621 33.9798 93.3814 33.9877 93.1458 34.0034C92.9101 34.0191 92.6665 34.027 92.4151 34.027C92.1794 34.0427 91.9516 34.0584 91.7316 34.0741C91.5274 34.0898 91.4016 34.0977 91.3545 34.0977C91.2917 34.0977 91.2524 34.0663 91.2367 34.0034C91.221 33.9249 91.2131 33.8384 91.2131 33.7442C91.2131 33.6027 91.2445 33.5006 91.3074 33.4378C91.6216 33.4063 91.8887 33.3828 92.1087 33.3671C92.3287 33.3513 92.478 33.3042 92.5565 33.2256C92.588 33.1785 92.6194 33.0921 92.6508 32.9664C92.6822 32.825 92.7058 32.6207 92.7215 32.3536C92.7372 32.0708 92.7451 31.7172 92.7451 31.293C92.7608 30.8687 92.7687 30.3502 92.7687 29.7374V21.5354C92.7687 20.9855 92.7529 20.5298 92.7215 20.1684C92.6901 19.807 92.6351 19.4928 92.5565 19.2257H91.2602C91.2288 19.2257 91.1974 19.1942 91.166 19.1314C91.1502 19.0685 91.1424 19.0135 91.1424 18.9664C91.1424 18.715 91.1817 18.5814 91.2602 18.5657C91.4488 18.5186 91.7002 18.4479 92.0144 18.3536C92.3444 18.2436 92.6665 18.1336 92.9808 18.0236C93.3107 17.9136 93.6093 17.8037 93.8764 17.6937C94.1435 17.5837 94.3242 17.4973 94.4185 17.4344ZM100.426 17.4344C100.504 17.4344 100.552 17.4658 100.567 17.5287C100.536 17.7487 100.512 18.1493 100.497 18.7307C100.481 19.3121 100.473 20.1056 100.473 21.1112V31.1044C100.473 31.8586 100.481 32.385 100.497 32.6836C100.512 32.9821 100.536 33.1471 100.567 33.1785C100.662 33.3042 101.164 33.3906 102.076 33.4378C102.107 33.5006 102.123 33.587 102.123 33.697C102.123 33.7442 102.107 33.8227 102.076 33.9327C102.06 34.0427 102.029 34.0977 101.981 34.0977C101.919 34.0977 101.801 34.0898 101.628 34.0741C101.455 34.0584 101.251 34.0427 101.015 34.027C100.795 34.027 100.567 34.0191 100.332 34.0034C100.096 33.9877 99.8837 33.9798 99.6952 33.9798C99.5695 33.9798 99.3888 33.9877 99.1531 34.0034C98.9174 34.0191 98.6739 34.027 98.4225 34.027C98.1868 34.0427 97.9589 34.0584 97.739 34.0741C97.5347 34.0898 97.409 34.0977 97.3618 34.0977C97.299 34.0977 97.2597 34.0663 97.244 34.0034C97.2283 33.9249 97.2204 33.8384 97.2204 33.7442C97.2204 33.6027 97.2519 33.5006 97.3147 33.4378C97.629 33.4063 97.8961 33.3828 98.1161 33.3671C98.336 33.3513 98.4853 33.3042 98.5639 33.2256C98.5953 33.1785 98.6267 33.0921 98.6581 32.9664C98.6896 32.825 98.7131 32.6207 98.7288 32.3536C98.7446 32.0708 98.7524 31.7172 98.7524 31.293C98.7681 30.8687 98.776 30.3502 98.776 29.7374V21.5354C98.776 20.9855 98.7603 20.5298 98.7288 20.1684C98.6974 19.807 98.6424 19.4928 98.5639 19.2257H97.2676C97.2361 19.2257 97.2047 19.1942 97.1733 19.1314C97.1576 19.0685 97.1497 19.0135 97.1497 18.9664C97.1497 18.715 97.189 18.5814 97.2676 18.5657C97.4561 18.5186 97.7075 18.4479 98.0218 18.3536C98.3517 18.2436 98.6739 18.1336 98.9881 18.0236C99.3181 17.9136 99.6166 17.8037 99.8837 17.6937C100.151 17.5837 100.332 17.4973 100.426 17.4344ZM111.123 32.0236C111.155 32.0236 111.194 32.0393 111.241 32.0708C111.288 32.1022 111.328 32.1336 111.359 32.165C111.406 32.2436 111.414 32.3457 111.383 32.4714C111.21 32.6757 110.974 32.8878 110.676 33.1078C110.393 33.3121 110.086 33.5085 109.756 33.697C109.442 33.8699 109.112 34.0113 108.766 34.1213C108.437 34.247 108.138 34.3098 107.871 34.3098C107.117 34.3098 106.457 34.1841 105.891 33.9327C105.341 33.6656 104.885 33.3199 104.524 32.8957C104.178 32.4714 103.919 31.9843 103.746 31.4344C103.573 30.8845 103.487 30.3188 103.487 29.7374C103.487 28.7947 103.691 27.899 104.1 27.0506C104.508 26.2021 105.153 25.55 106.032 25.0943C106.221 25.0001 106.425 24.9136 106.645 24.8351C106.865 24.7565 107.085 24.6858 107.305 24.623C107.525 24.5444 107.737 24.4894 107.942 24.458C108.146 24.4108 108.319 24.3873 108.46 24.3873C108.9 24.3873 109.301 24.4894 109.662 24.6937C110.023 24.8822 110.33 25.1415 110.581 25.4714C110.848 25.8014 111.045 26.1785 111.171 26.6027C111.312 27.027 111.383 27.4669 111.383 27.9226C111.383 28.1583 111.359 28.3076 111.312 28.3704C111.265 28.4333 111.116 28.4804 110.864 28.5118C110.786 28.5276 110.605 28.5433 110.322 28.559C110.039 28.5747 109.701 28.5983 109.309 28.6297C108.931 28.6611 108.515 28.6925 108.059 28.724C107.619 28.7554 107.203 28.7868 106.81 28.8182C106.417 28.8497 106.08 28.8811 105.797 28.9125C105.514 28.9282 105.333 28.9361 105.255 28.9361V29.1011C105.255 30.3581 105.6 31.3401 106.292 32.0472C106.999 32.7385 107.926 33.0842 109.073 33.0842C109.214 33.0842 109.379 33.0528 109.568 32.99C109.772 32.9114 109.969 32.8171 110.157 32.7071C110.361 32.5971 110.55 32.4793 110.723 32.3536C110.896 32.2279 111.029 32.1179 111.123 32.0236ZM105.302 27.899C105.302 27.9776 105.349 28.0169 105.443 28.0169H109.544C109.67 28.0169 109.733 27.9698 109.733 27.8755C109.733 27.5769 109.678 27.2784 109.568 26.9799C109.474 26.6656 109.324 26.3828 109.12 26.1314C108.931 25.88 108.696 25.6757 108.413 25.5186C108.13 25.3457 107.816 25.2593 107.47 25.2593C107.156 25.2593 106.865 25.3614 106.598 25.5657C106.347 25.7543 106.119 25.99 105.915 26.2728C105.726 26.5556 105.577 26.8463 105.467 27.1448C105.357 27.4434 105.302 27.6948 105.302 27.899ZM115.865 24.1751C115.912 24.1594 115.967 24.1673 116.03 24.1987C116.093 24.2144 116.124 24.238 116.124 24.2694C116.124 24.3166 116.101 24.4265 116.054 24.5994C116.022 24.7565 116.006 25.0236 116.006 25.4007C116.006 25.5893 116.006 25.8171 116.006 26.0842C116.022 26.3356 116.03 26.5242 116.03 26.6499C116.486 26.0842 116.926 25.6207 117.35 25.2593C117.774 24.8979 118.128 24.6465 118.41 24.5051C118.536 24.4737 118.662 24.458 118.788 24.458C118.929 24.4423 119.078 24.4344 119.235 24.4344C119.408 24.4344 119.605 24.5051 119.825 24.6465C120.06 24.7722 120.257 24.9922 120.414 25.3065V25.66L119.801 26.8856C119.77 26.917 119.73 26.9327 119.683 26.9327C119.652 26.9327 119.636 26.917 119.636 26.8856V26.7677C119.463 26.532 119.243 26.3356 118.976 26.1785C118.709 26.0214 118.41 25.9428 118.08 25.9428C117.892 25.9428 117.656 26.0214 117.373 26.1785C117.091 26.3356 116.839 26.5242 116.619 26.7442C116.431 26.9327 116.297 27.0977 116.219 27.2391C116.156 27.3805 116.124 27.5219 116.124 27.6634V32.495C116.124 32.6836 116.14 32.8407 116.171 32.9664C116.203 33.0764 116.274 33.1628 116.384 33.2256C116.493 33.2885 116.658 33.3356 116.878 33.3671C117.114 33.3828 117.436 33.3906 117.845 33.3906C117.892 33.3906 117.923 33.4299 117.939 33.5085C117.955 33.587 117.963 33.6577 117.963 33.7206C117.963 33.8777 117.939 33.9798 117.892 34.027C117.845 34.0741 117.782 34.0977 117.703 34.0977C117.279 34.0977 116.831 34.082 116.36 34.0506C115.889 34.0191 115.551 34.0034 115.346 34.0034C115.001 34.0034 114.624 34.0191 114.215 34.0506C113.807 34.082 113.437 34.0977 113.107 34.0977C113.013 34.0977 112.966 34.027 112.966 33.8856C112.966 33.807 112.974 33.7049 112.99 33.5792C113.021 33.4535 113.052 33.3906 113.084 33.3906C113.791 33.3906 114.192 33.3356 114.286 33.2256C114.302 33.2099 114.317 33.1392 114.333 33.0135C114.349 32.8721 114.357 32.6521 114.357 32.3536C114.372 32.055 114.38 31.6544 114.38 31.1516C114.396 30.6488 114.404 30.0124 114.404 29.2425C114.404 28.6768 114.396 28.2133 114.38 27.8519C114.38 27.4748 114.372 27.1763 114.357 26.9563C114.341 26.7363 114.325 26.5713 114.309 26.4613C114.294 26.3356 114.278 26.2414 114.262 26.1785L113.225 25.7778C113.131 25.7621 113.084 25.66 113.084 25.4714C113.084 25.3614 113.131 25.2986 113.225 25.2829C113.351 25.2357 113.524 25.1729 113.744 25.0943C113.979 25.0158 114.223 24.9294 114.474 24.8351C114.726 24.7251 114.969 24.6151 115.205 24.5051C115.456 24.3951 115.676 24.2851 115.865 24.1751Z" fill="black"/>
</svg>
