<svg width="116" height="56" viewBox="0 0 116 56" fill="none" xmlns="http://www.w3.org/2000/svg">
<path d="M28.0034 0H87.3725L115.376 28.0034L87.3725 56.0069H28.0034L0 28.0034L28.0034 0Z" fill="#FFB84D"/>
<path d="M72.0124 17.4699L75.0396 23.6037L81.8086 24.5873L76.9105 29.3619L78.0668 36.1036L72.0124 32.9206L65.9579 36.1036L67.1142 29.3619L62.2161 24.5873L68.9851 23.6037L72.0124 17.4699Z" fill="white" fill-opacity="0.6"/>
<path opacity="0.6" d="M39.5683 21.9125L39.4269 21.8654C39.1597 22.2425 38.8298 22.7139 38.437 23.2795C38.0599 23.8295 37.667 24.3951 37.2585 24.9765C36.8657 25.5579 36.4886 26.1157 36.1272 26.6499C35.7658 27.1684 35.4673 27.5848 35.2316 27.899C35.1687 27.9933 35.1923 28.0562 35.3023 28.0876C35.4437 28.119 35.6323 28.1504 35.8679 28.1819C36.1036 28.1976 36.3707 28.2133 36.6693 28.229C36.9835 28.229 37.3135 28.2369 37.6592 28.2526C38.0049 28.2526 38.3505 28.2526 38.6962 28.2526H39.4504L39.5683 21.9125ZM39.2854 33.0371C39.4112 32.8485 39.474 32.2279 39.474 31.1751V29.3839H33.7939C33.6839 29.3525 33.5975 29.266 33.5346 29.1246C33.4875 28.9832 33.456 28.8497 33.4403 28.724C33.7075 28.394 34.0217 27.9933 34.3831 27.5219C34.7445 27.0506 35.1294 26.5478 35.538 26.0135C35.9465 25.4636 36.3629 24.9058 36.7871 24.3401C37.2114 23.7588 37.6199 23.1931 38.0127 22.6432C38.4213 22.0932 38.7905 21.5826 39.1205 21.1112C39.4661 20.6398 39.7647 20.2313 40.0161 19.8856L41.2417 19.3671L41.4067 19.5085C41.3752 19.7913 41.3517 20.137 41.336 20.5455C41.3202 20.954 41.3045 21.4019 41.2888 21.8889C41.2888 22.3603 41.281 22.8553 41.2652 23.3738C41.2652 23.8766 41.2652 24.3637 41.2652 24.8351V28.2761C41.8938 28.2761 42.3651 28.2604 42.6794 28.229C43.0094 28.1976 43.3236 28.1662 43.6221 28.1347C43.6536 28.1347 43.685 28.1583 43.7164 28.2054C43.7478 28.2369 43.7478 28.2683 43.7164 28.2997C43.685 28.3469 43.6221 28.4411 43.5279 28.5825C43.4336 28.724 43.355 28.8182 43.2922 28.8654C42.9779 29.0068 42.6637 29.1011 42.3494 29.1482C42.0509 29.1953 41.6816 29.2503 41.2417 29.3132V31.0337C41.2417 31.7251 41.2574 32.2122 41.2888 32.495C41.336 32.7621 41.3831 32.9507 41.4302 33.0607C41.4774 33.1392 41.6502 33.2021 41.9487 33.2492C42.2473 33.2806 42.6322 33.3121 43.1036 33.3435C43.1665 33.3906 43.1979 33.5163 43.1979 33.7206C43.1979 33.8149 43.1822 33.9013 43.1508 33.9798C43.1351 34.0584 43.0879 34.0977 43.0094 34.0977C42.7894 34.0977 42.4358 34.082 41.9487 34.0506C41.4774 34.0191 40.9588 34.0034 40.3932 34.0034C39.7804 34.0034 39.254 34.0191 38.8141 34.0506C38.3741 34.082 38.0206 34.0977 37.7535 34.0977C37.7063 34.0977 37.6749 34.0506 37.6592 33.9563C37.6592 33.862 37.6592 33.752 37.6592 33.6263C37.6592 33.4378 37.7063 33.3435 37.8006 33.3435C38.7277 33.2492 39.2226 33.1471 39.2854 33.0371ZM46.1118 29.1482C45.939 29.1482 45.8525 29.0854 45.8525 28.9597V28.1819C45.8525 28.0405 45.939 27.9698 46.1118 27.9698H50.802V23.2795C50.802 23.1067 50.8727 23.0203 51.0142 23.0203H51.7919C51.9176 23.0203 51.9805 23.1067 51.9805 23.2795V27.9698H56.6472C56.82 27.9698 56.9064 28.0405 56.9064 28.1819V28.9597C56.9064 29.0854 56.82 29.1482 56.6472 29.1482H51.9805V33.8384C51.9805 34.0113 51.9176 34.0977 51.7919 34.0977H51.0142C50.8727 34.0977 50.802 34.0113 50.802 33.8384V29.1482H46.1118Z" fill="black"/>
</svg>
