<svg width="371" height="134" viewBox="0 0 371 134" fill="none" xmlns="http://www.w3.org/2000/svg">
<g filter="url(#filter0_d_104_79)">
<path d="M67.0403 9H304.696L350.737 55.0403L304.696 101.081H67.0403L21 55.0403L67.0403 9Z" fill="#070707"/>
<path d="M304.489 9.5L350.029 55.04L304.489 100.58H67.2471L21.707 55.04L67.2471 9.5H304.489Z" stroke="white" stroke-opacity="0.5"/>
<path d="M109.774 42.9048C109.795 43.4614 109.817 43.9323 109.838 44.3176C109.881 44.7029 109.924 45.0668 109.967 45.4093C110.031 45.7304 110.095 46.0622 110.159 46.4047C110.223 46.7257 110.288 47.111 110.352 47.5606C110.352 47.6034 110.298 47.6569 110.191 47.7211C110.084 47.7853 109.945 47.8174 109.774 47.8174C109.539 47.8174 109.41 47.7639 109.389 47.6569C109.153 47.1003 108.886 46.5866 108.586 46.1157C108.308 45.6233 107.944 45.2059 107.494 44.8634C107.045 44.4996 106.488 44.2213 105.825 44.0286C105.182 43.836 104.401 43.7397 103.481 43.7397C102.346 43.7397 101.308 43.9323 100.366 44.3176C99.4244 44.7029 98.611 45.2809 97.926 46.0515C97.2624 46.8221 96.7487 47.7746 96.3848 48.9091C96.0209 50.0436 95.8389 51.3493 95.8389 52.8263C95.8389 54.3033 96.0423 55.6519 96.449 56.872C96.8557 58.0921 97.4336 59.141 98.1828 60.0186C98.932 60.8963 99.8418 61.5812 100.912 62.0736C101.982 62.5445 103.181 62.7799 104.508 62.7799C104.979 62.7799 105.461 62.7264 105.953 62.6194C106.467 62.491 106.959 62.2769 107.43 61.9772C107.901 61.6776 108.34 61.2709 108.747 60.7571C109.175 60.222 109.549 59.5477 109.87 58.7343C109.913 58.6915 109.977 58.6594 110.063 58.638C110.149 58.6166 110.234 58.6059 110.32 58.6059C110.555 58.6059 110.694 58.6808 110.737 58.8306C110.694 59.1517 110.609 59.5156 110.48 59.9223C110.352 60.329 110.213 60.7464 110.063 61.1745C109.913 61.5812 109.763 61.9772 109.613 62.3625C109.485 62.7478 109.389 63.0689 109.324 63.3258C109.303 63.4114 109.25 63.4542 109.164 63.4542C109.1 63.4542 109.046 63.4435 109.003 63.4221C108.961 63.4007 108.918 63.3793 108.875 63.3579C108.704 63.2509 108.511 63.1974 108.297 63.1974C108.147 63.1974 107.933 63.2402 107.655 63.3258C107.398 63.4114 107.055 63.497 106.627 63.5827C106.221 63.6897 105.718 63.786 105.118 63.8716C104.54 63.9573 103.855 64.0001 103.063 64.0001C101.415 64.0001 99.9274 63.7539 98.6002 63.2616C97.2945 62.7478 96.1707 62.0308 95.2289 61.1103C94.3084 60.1899 93.5913 59.0768 93.0776 57.771C92.5853 56.4439 92.3391 54.9562 92.3391 53.308C92.3391 51.8524 92.5746 50.4824 93.0455 49.1981C93.5378 47.8923 94.2549 46.7578 95.1968 45.7946C96.16 44.8313 97.348 44.0714 98.7608 43.5149C100.174 42.9583 101.822 42.6801 103.705 42.6801C104.476 42.6801 105.14 42.7015 105.696 42.7443C106.253 42.7871 106.734 42.8406 107.141 42.9048C107.548 42.9691 107.88 43.0226 108.136 43.0654C108.393 43.1082 108.607 43.1296 108.779 43.1296C109.1 43.1296 109.357 43.044 109.549 42.8727L109.774 42.9048ZM120.66 50.3861C121.538 50.3861 122.33 50.5466 123.036 50.8677C123.764 51.1674 124.374 51.6062 124.866 52.1842C125.38 52.7621 125.776 53.4471 126.054 54.2391C126.332 55.0311 126.472 55.9087 126.472 56.872C126.472 58.0279 126.279 59.0447 125.894 59.9223C125.53 60.7785 125.027 61.5063 124.385 62.1057C123.742 62.6836 123.004 63.1224 122.169 63.4221C121.334 63.7218 120.457 63.8716 119.536 63.8716C118.573 63.8716 117.706 63.7218 116.935 63.4221C116.165 63.101 115.501 62.6622 114.945 62.1057C114.41 61.5277 113.992 60.832 113.692 60.0186C113.393 59.2052 113.243 58.2955 113.243 57.2894C113.243 56.1549 113.468 55.1595 113.917 54.3033C114.388 53.4257 114.987 52.6979 115.715 52.12C116.443 51.542 117.235 51.1139 118.091 50.8356C118.969 50.5359 119.825 50.3861 120.66 50.3861ZM119.119 51.6062C118.733 51.6062 118.348 51.7025 117.963 51.8952C117.599 52.0664 117.267 52.3447 116.968 52.73C116.668 53.0939 116.422 53.5755 116.229 54.1749C116.058 54.7528 115.972 55.4378 115.972 56.2298C115.972 57.2359 116.101 58.1456 116.357 58.959C116.614 59.7511 116.946 60.4253 117.353 60.9819C117.781 61.5384 118.263 61.9665 118.798 62.2662C119.354 62.5445 119.921 62.6836 120.499 62.6836C121.463 62.6836 122.244 62.2448 122.843 61.3672C123.464 60.4895 123.775 59.2801 123.775 57.7389C123.775 56.7757 123.646 55.9194 123.389 55.1703C123.132 54.4211 122.79 53.7789 122.362 53.2437C121.934 52.7086 121.431 52.3019 120.853 52.0236C120.296 51.7454 119.718 51.6062 119.119 51.6062ZM137.563 63.0368C137.563 62.7585 137.616 62.6194 137.723 62.6194C137.937 62.6194 138.162 62.6087 138.397 62.5873C138.633 62.5659 138.772 62.5338 138.815 62.491C138.858 62.4482 138.89 62.2662 138.911 61.9451C138.954 61.6026 138.986 61.0354 139.007 60.2434L139.104 55.9087C139.125 54.6886 138.858 53.7682 138.301 53.1474C137.745 52.5053 136.963 52.1842 135.957 52.1842C135.786 52.1842 135.572 52.2377 135.315 52.3447C135.08 52.4303 134.823 52.5481 134.544 52.6979C134.266 52.8477 133.999 53.0083 133.742 53.1795C133.506 53.3508 133.303 53.5113 133.132 53.6612V59.6975C133.132 60.2755 133.132 60.7357 133.132 61.0782C133.132 61.4207 133.142 61.6883 133.164 61.8809C133.185 62.0522 133.196 62.1806 133.196 62.2662C133.217 62.3304 133.249 62.3732 133.292 62.3946C133.442 62.5445 133.934 62.6194 134.769 62.6194C134.855 62.6194 134.898 62.7478 134.898 63.0047C134.898 63.39 134.844 63.5827 134.737 63.5827C134.651 63.5827 134.502 63.572 134.287 63.5505C134.073 63.5505 133.827 63.5398 133.549 63.5184C133.292 63.497 133.014 63.4756 132.714 63.4542C132.415 63.4542 132.136 63.4542 131.879 63.4542C131.623 63.4542 131.334 63.4542 131.012 63.4542C130.691 63.4756 130.381 63.497 130.081 63.5184C129.803 63.5398 129.546 63.5505 129.311 63.5505C129.097 63.572 128.947 63.5827 128.861 63.5827C128.818 63.5827 128.776 63.5291 128.733 63.4221C128.711 63.2937 128.701 63.176 128.701 63.0689C128.701 62.7692 128.743 62.6194 128.829 62.6194C129.129 62.6194 129.439 62.598 129.76 62.5552C130.103 62.5124 130.295 62.4589 130.338 62.3946C130.36 62.3518 130.381 62.2341 130.402 62.0415C130.445 61.8488 130.467 61.5491 130.467 61.1424C130.488 60.7143 130.499 60.1685 130.499 59.5049C130.52 58.8413 130.531 58.0172 130.531 57.0325C130.531 56.1121 130.509 55.3094 130.467 54.6244C130.445 53.918 130.413 53.3829 130.37 53.019L129.118 52.3447C129.032 52.3019 128.979 52.2591 128.958 52.2163C128.936 52.1735 128.925 52.0664 128.925 51.8952C128.925 51.7239 128.968 51.6276 129.054 51.6062C129.268 51.542 129.535 51.4564 129.857 51.3494C130.199 51.2209 130.542 51.0818 130.884 50.9319C131.248 50.7821 131.59 50.6323 131.911 50.4824C132.233 50.3112 132.489 50.1613 132.682 50.0329C132.746 50.0329 132.832 50.0436 132.939 50.065C133.046 50.0864 133.099 50.1185 133.099 50.1613C133.099 50.2256 133.089 50.3433 133.067 50.5145C133.046 50.6858 133.035 50.8677 133.035 51.0604C133.035 51.1246 133.025 51.253 133.003 51.4457C133.003 51.6383 132.992 51.831 132.971 52.0236C132.95 52.2163 132.928 52.3982 132.907 52.5695C132.907 52.7407 132.907 52.837 132.907 52.8584C132.907 52.9655 132.95 52.9976 133.035 52.9548C133.891 51.9701 134.673 51.2958 135.379 50.9319C136.086 50.568 136.717 50.3861 137.274 50.3861C138.601 50.3861 139.671 50.7821 140.484 51.5741C141.319 52.3661 141.726 53.6076 141.705 55.2987L141.608 60.2434C141.587 61.0568 141.587 61.6133 141.608 61.913C141.63 62.1913 141.662 62.3518 141.705 62.3946C141.747 62.4375 141.94 62.491 142.282 62.5552C142.625 62.598 143 62.6194 143.406 62.6194C143.556 62.6194 143.631 62.7157 143.631 62.9084C143.631 63.0796 143.62 63.2402 143.599 63.39C143.578 63.5184 143.524 63.5827 143.438 63.5827C143.374 63.5827 143.182 63.572 142.86 63.5505C142.561 63.5505 142.229 63.5398 141.865 63.5184C141.523 63.497 141.191 63.4756 140.87 63.4542C140.57 63.4542 140.388 63.4542 140.324 63.4542C140.174 63.4542 139.96 63.4542 139.682 63.4542C139.403 63.4756 139.125 63.497 138.847 63.5184C138.569 63.5398 138.312 63.5505 138.076 63.5505C137.862 63.572 137.745 63.5827 137.723 63.5827C137.659 63.5827 137.616 63.5184 137.595 63.39C137.573 63.2616 137.563 63.1438 137.563 63.0368ZM158.351 50.0329C158.415 50.0543 158.49 50.0864 158.576 50.1292C158.661 50.1506 158.704 50.1827 158.704 50.2256C158.704 50.247 158.693 50.3433 158.672 50.5145C158.672 50.6858 158.661 51.0176 158.64 51.5099C158.618 51.9808 158.597 52.6551 158.576 53.5327C158.576 54.4104 158.576 55.577 158.576 57.0325C158.576 58.0386 158.576 58.8734 158.576 59.537C158.597 60.2006 158.618 60.7464 158.64 61.1745C158.661 61.5812 158.683 61.8809 158.704 62.0736C158.725 62.2662 158.757 62.3839 158.8 62.4268C158.886 62.5552 159.485 62.6194 160.598 62.6194C160.641 62.6194 160.663 62.6729 160.663 62.7799C160.684 62.8656 160.695 62.9512 160.695 63.0368C160.695 63.4007 160.598 63.5827 160.406 63.5827C160.234 63.5827 160.01 63.572 159.731 63.5505C159.475 63.5291 159.196 63.5077 158.897 63.4863C158.618 63.4863 158.329 63.4756 158.03 63.4542C157.751 63.4328 157.505 63.4221 157.291 63.4221C157.12 63.4221 156.884 63.4328 156.585 63.4542C156.307 63.4756 156.007 63.497 155.686 63.5184C155.386 63.5398 155.108 63.5613 154.851 63.5827C154.594 63.6041 154.401 63.6148 154.273 63.6148C154.187 63.6148 154.145 63.497 154.145 63.2616C154.145 63.0903 154.155 62.9512 154.177 62.8442C154.219 62.7157 154.273 62.6515 154.337 62.6515C154.722 62.6515 155.033 62.6301 155.268 62.5873C155.525 62.5231 155.675 62.4696 155.718 62.4268C155.761 62.3839 155.793 62.2876 155.814 62.1378C155.857 61.9879 155.889 61.7311 155.911 61.3672C155.932 60.9819 155.943 60.4681 155.943 59.826C155.964 59.1838 155.975 58.3597 155.975 57.3536C155.975 56.5616 155.964 55.9087 155.943 55.395C155.943 54.8813 155.932 54.4532 155.911 54.1107C155.911 53.7682 155.9 53.5006 155.878 53.308C155.857 53.0939 155.836 52.912 155.814 52.7621C155.707 52.6551 155.482 52.5588 155.14 52.4731C154.819 52.3875 154.316 52.3768 153.631 52.441L150.195 52.6658C150.045 52.6658 149.97 52.7193 149.97 52.8263L149.938 59.1838C149.938 60.0828 149.96 60.8106 150.003 61.3672C150.067 61.9023 150.142 62.2127 150.227 62.2983C150.313 62.4053 150.452 62.491 150.645 62.5552C150.837 62.598 151.137 62.6194 151.544 62.6194H151.897C151.961 62.6194 152.004 62.6729 152.025 62.7799C152.047 62.887 152.057 62.994 152.057 63.101C152.057 63.3151 152.025 63.4542 151.961 63.5184C151.918 63.5827 151.843 63.6148 151.736 63.6148C151.565 63.6148 151.34 63.6041 151.062 63.5827C150.805 63.5827 150.527 63.572 150.227 63.5505C149.949 63.5291 149.671 63.5077 149.392 63.4863C149.136 63.4863 148.922 63.4863 148.75 63.4863C148.536 63.4863 148.247 63.4863 147.883 63.4863C147.541 63.5077 147.198 63.5291 146.856 63.5505C146.535 63.572 146.235 63.5827 145.957 63.5827C145.7 63.6041 145.55 63.6148 145.507 63.6148C145.465 63.6148 145.432 63.5613 145.411 63.4542C145.39 63.3472 145.379 63.2402 145.379 63.1331C145.379 63.0047 145.39 62.887 145.411 62.7799C145.432 62.6729 145.497 62.6194 145.604 62.6194C146.032 62.6194 146.385 62.598 146.663 62.5552C146.942 62.5124 147.113 62.4375 147.177 62.3304C147.198 62.2876 147.22 62.2234 147.241 62.1378C147.263 62.0308 147.273 61.8809 147.273 61.6883C147.295 61.4956 147.305 61.2387 147.305 60.9177C147.327 60.5752 147.338 60.1471 147.338 59.6333V52.9227C147.338 52.7514 147.252 52.6658 147.081 52.6658H145.732C145.604 52.6658 145.539 52.6123 145.539 52.5053C145.539 52.4196 145.561 52.3233 145.604 52.2163C145.647 52.0878 145.7 52.0022 145.764 51.9594L147.37 51.2851C147.37 50.172 147.455 49.2088 147.627 48.3954C147.819 47.5606 148.076 46.8221 148.397 46.1799C148.74 45.5377 149.157 44.9598 149.649 44.446C150.142 43.9323 150.709 43.4293 151.351 42.9369C152.229 42.2734 153.01 41.8131 153.695 41.5563C154.38 41.2994 154.926 41.171 155.333 41.171C155.675 41.171 156.028 41.2352 156.392 41.3636C156.777 41.4707 157.12 41.6098 157.42 41.781C157.719 41.9523 157.965 42.1449 158.158 42.359C158.372 42.5516 158.479 42.7229 158.479 42.8727C158.479 43.1296 158.34 43.4079 158.062 43.7075C157.826 43.943 157.655 44.1035 157.548 44.1892C157.441 44.2748 157.334 44.3176 157.227 44.3176C157.12 44.3176 156.959 44.2534 156.745 44.125C156.553 43.9751 156.307 43.8146 156.007 43.6433C155.707 43.4721 155.365 43.3222 154.979 43.1938C154.594 43.044 154.155 42.9691 153.663 42.9691C153.042 42.9691 152.528 43.1296 152.122 43.4507C151.715 43.7504 151.394 44.0821 151.158 44.446C151.009 44.7029 150.859 45.0133 150.709 45.3772C150.581 45.7411 150.452 46.1906 150.324 46.7257C150.217 47.2609 150.131 47.903 150.067 48.6522C150.003 49.38 149.97 50.2363 149.97 51.2209H152.892C153.534 51.2209 154.091 51.2102 154.562 51.1888C155.054 51.1674 155.504 51.1139 155.911 51.0283C156.317 50.9426 156.713 50.8249 157.099 50.6751C157.484 50.5038 157.901 50.2898 158.351 50.0329ZM166.484 50.065C166.549 50.0436 166.624 50.0543 166.709 50.0971C166.816 50.1185 166.87 50.1506 166.87 50.1934C166.87 50.2577 166.848 50.3861 166.806 50.5787C166.784 50.7714 166.773 51.1246 166.773 51.6383C166.773 51.8952 166.773 52.2056 166.773 52.5695C166.795 52.912 166.806 53.1688 166.806 53.3401C167.426 52.5695 168.015 51.9594 168.572 51.5099C169.149 51.039 169.631 50.7072 170.016 50.5145C170.188 50.4717 170.348 50.4503 170.498 50.4503C170.648 50.4289 170.787 50.4182 170.915 50.4182C171.258 50.4182 171.59 50.5145 171.911 50.7072C172.232 50.8784 172.499 51.1781 172.713 51.6062V52.0878L171.782 53.918C171.74 53.9608 171.686 53.9822 171.622 53.9822C171.558 53.9822 171.525 53.9608 171.525 53.918V53.7575C171.29 53.4364 170.99 53.1688 170.626 52.9548C170.263 52.7407 169.856 52.6337 169.406 52.6337C169.171 52.6337 168.871 52.73 168.507 52.9227C168.143 53.1153 167.812 53.3401 167.512 53.5969C167.255 53.8324 167.084 54.0251 166.998 54.1749C166.913 54.3033 166.87 54.4318 166.87 54.5602V61.3672C166.87 61.624 166.891 61.8381 166.934 62.0093C166.977 62.1592 167.073 62.2769 167.223 62.3625C167.394 62.4482 167.63 62.5124 167.929 62.5552C168.25 62.5766 168.689 62.5873 169.246 62.5873C169.289 62.5873 169.321 62.6408 169.342 62.7478C169.364 62.8549 169.374 62.9512 169.374 63.0368C169.374 63.4007 169.267 63.5827 169.053 63.5827C168.454 63.5827 167.822 63.5613 167.159 63.5184C166.517 63.4756 166.024 63.4542 165.682 63.4542C165.168 63.4542 164.622 63.4756 164.044 63.5184C163.466 63.5613 162.953 63.5827 162.503 63.5827C162.375 63.5827 162.31 63.4649 162.31 63.2295C162.31 63.1224 162.321 62.994 162.342 62.8442C162.385 62.6729 162.428 62.5873 162.471 62.5873C163.434 62.5873 163.98 62.5124 164.108 62.3625C164.13 62.3411 164.151 62.2448 164.173 62.0736C164.194 61.8809 164.205 61.5812 164.205 61.1745C164.226 60.7678 164.237 60.2327 164.237 59.5691C164.258 58.8841 164.269 58.0172 164.269 56.9683C164.269 56.1549 164.258 55.502 164.237 55.0097C164.215 54.5174 164.183 54.1321 164.141 53.8538C164.119 53.5541 164.098 53.3401 164.076 53.2116C164.055 53.0832 164.034 52.9762 164.012 52.8906L162.664 52.2805C162.535 52.2591 162.471 52.12 162.471 51.8631C162.471 51.6918 162.535 51.5955 162.664 51.5741C162.856 51.5099 163.113 51.4243 163.434 51.3172C163.777 51.2102 164.13 51.0925 164.494 50.964C164.879 50.8142 165.243 50.6644 165.585 50.5145C165.949 50.3433 166.249 50.1934 166.484 50.065ZM182.773 63.0689C182.773 62.9619 182.784 62.8656 182.805 62.7799C182.827 62.6729 182.87 62.6194 182.934 62.6194C183.148 62.6194 183.373 62.6087 183.608 62.5873C183.865 62.5659 184.015 62.5338 184.058 62.491C184.1 62.4482 184.132 62.2555 184.154 61.913C184.197 61.5705 184.229 61.0033 184.25 60.2113L184.379 55.2987C184.379 54.892 184.304 54.5067 184.154 54.1428C184.025 53.7575 183.822 53.415 183.544 53.1153C183.287 52.8156 182.966 52.5802 182.581 52.4089C182.217 52.2163 181.821 52.12 181.393 52.12C181.221 52.12 181.007 52.1735 180.75 52.2805C180.494 52.3875 180.226 52.5267 179.948 52.6979C179.669 52.8477 179.402 53.019 179.145 53.2116C178.888 53.4043 178.685 53.5755 178.535 53.7254V59.6654C178.535 60.2434 178.535 60.7143 178.535 61.0782C178.535 61.4207 178.546 61.6883 178.567 61.8809C178.588 62.0522 178.599 62.1806 178.599 62.2662C178.621 62.3304 178.653 62.3732 178.695 62.3946C178.76 62.4589 178.931 62.5124 179.209 62.5552C179.487 62.5766 179.819 62.5873 180.205 62.5873C180.269 62.5873 180.301 62.6408 180.301 62.7478C180.322 62.8335 180.333 62.9298 180.333 63.0368C180.333 63.4007 180.279 63.5827 180.172 63.5827C180.087 63.5827 179.926 63.572 179.691 63.5505C179.477 63.5505 179.22 63.5398 178.92 63.5184C178.642 63.497 178.342 63.4756 178.021 63.4542C177.721 63.4542 177.454 63.4542 177.218 63.4542C176.983 63.4542 176.715 63.4542 176.416 63.4542C176.116 63.4756 175.816 63.497 175.517 63.5184C175.217 63.5398 174.949 63.5505 174.714 63.5505C174.479 63.572 174.318 63.5827 174.232 63.5827C174.19 63.5827 174.147 63.5291 174.104 63.4221C174.083 63.3151 174.072 63.2081 174.072 63.101C174.072 62.7585 174.115 62.5873 174.2 62.5873C174.5 62.5873 174.821 62.5766 175.164 62.5552C175.506 62.5124 175.699 62.4589 175.741 62.3946C175.763 62.3518 175.784 62.2341 175.806 62.0415C175.848 61.8488 175.87 61.5491 175.87 61.1424C175.891 60.7143 175.902 60.1685 175.902 59.5049C175.923 58.8413 175.934 58.0172 175.934 57.0325C175.934 56.3262 175.923 55.7589 175.902 55.3308C175.902 54.8813 175.891 54.5174 175.87 54.2391C175.87 53.9394 175.859 53.6933 175.838 53.5006C175.816 53.308 175.795 53.126 175.774 52.9548L174.489 52.3126C174.382 52.2698 174.318 52.227 174.297 52.1842C174.275 52.1414 174.264 52.045 174.264 51.8952C174.264 51.7239 174.318 51.6276 174.425 51.6062C174.639 51.542 174.896 51.4564 175.196 51.3494C175.517 51.2423 175.848 51.1246 176.191 50.9962C176.555 50.8463 176.897 50.6965 177.218 50.5466C177.561 50.3754 177.85 50.2041 178.085 50.0329C178.15 50.0329 178.225 50.0436 178.31 50.065C178.417 50.0864 178.471 50.1185 178.471 50.1613C178.471 50.2256 178.46 50.354 178.439 50.5466C178.417 50.7179 178.406 50.857 178.406 50.964C178.406 51.0497 178.396 51.1888 178.374 51.3815C178.374 51.5741 178.364 51.7775 178.342 51.9915C178.342 52.1842 178.332 52.3768 178.31 52.5695C178.31 52.7407 178.31 52.8584 178.31 52.9227C178.31 53.0511 178.353 53.0725 178.439 52.9869C180.044 51.1888 181.585 50.2898 183.062 50.2898C183.833 50.2898 184.518 50.5252 185.117 50.9962C185.716 51.4671 186.166 52.1949 186.466 53.1795C186.551 53.3294 186.669 53.308 186.819 53.1153C188.167 51.2958 189.591 50.3861 191.089 50.3861C191.646 50.3861 192.17 50.4931 192.663 50.7072C193.176 50.8998 193.626 51.1995 194.011 51.6062C194.396 51.9915 194.696 52.4945 194.91 53.1153C195.124 53.7147 195.231 54.4104 195.231 55.2024L195.135 60.2113C195.135 61.0247 195.135 61.5919 195.135 61.913C195.156 62.2127 195.188 62.3839 195.231 62.4268C195.274 62.4696 195.477 62.5124 195.841 62.5552C196.205 62.5766 196.58 62.5873 196.965 62.5873C197.115 62.5873 197.19 62.6943 197.19 62.9084C197.19 63.0796 197.179 63.2402 197.158 63.39C197.136 63.5184 197.083 63.5827 196.997 63.5827C196.912 63.5827 196.708 63.572 196.387 63.5505C196.066 63.5505 195.724 63.5398 195.36 63.5184C195.017 63.497 194.696 63.4756 194.396 63.4542C194.097 63.4542 193.936 63.4542 193.915 63.4542C193.765 63.4542 193.551 63.4649 193.273 63.4863C192.994 63.5077 192.705 63.5184 192.406 63.5184C192.127 63.5398 191.871 63.5613 191.635 63.5827C191.4 63.6041 191.271 63.6148 191.25 63.6148C191.186 63.6148 191.143 63.5505 191.121 63.4221C191.1 63.2937 191.089 63.176 191.089 63.0689C191.089 62.9619 191.1 62.8656 191.121 62.7799C191.143 62.6729 191.186 62.6194 191.25 62.6194C191.464 62.6194 191.689 62.6087 191.924 62.5873C192.181 62.5659 192.331 62.5338 192.374 62.491C192.416 62.4482 192.449 62.2555 192.47 61.913C192.513 61.5705 192.545 61.0033 192.566 60.2113L192.663 55.9087C192.684 54.71 192.363 53.811 191.699 53.2116C191.057 52.5909 190.297 52.2805 189.42 52.2805C189.227 52.2805 188.981 52.3661 188.681 52.5374C188.403 52.6872 188.125 52.8691 187.846 53.0832C187.589 53.2973 187.365 53.522 187.172 53.7575C186.979 53.9715 186.883 54.1428 186.883 54.2712L186.819 60.2113C186.819 61.0247 186.819 61.5919 186.819 61.913C186.84 62.2127 186.872 62.3839 186.915 62.4268C186.958 62.4696 187.065 62.5124 187.236 62.5552C187.429 62.5766 187.718 62.5873 188.103 62.5873C188.253 62.5873 188.328 62.6943 188.328 62.9084C188.328 63.0796 188.317 63.2402 188.296 63.39C188.274 63.5184 188.221 63.5827 188.135 63.5827C188.071 63.5827 187.9 63.572 187.622 63.5505C187.365 63.5505 187.086 63.5398 186.787 63.5184C186.487 63.497 186.209 63.4756 185.952 63.4542C185.716 63.4542 185.588 63.4542 185.567 63.4542C185.438 63.4542 185.235 63.4649 184.957 63.4863C184.678 63.5077 184.389 63.5184 184.09 63.5184C183.811 63.5398 183.555 63.5613 183.319 63.5827C183.084 63.6041 182.955 63.6148 182.934 63.6148C182.87 63.6148 182.827 63.5505 182.805 63.4221C182.784 63.2937 182.773 63.176 182.773 63.0689ZM217.053 42.4874C218.659 42.4874 220.093 42.7443 221.356 43.258C222.64 43.7504 223.721 44.4567 224.599 45.3772C225.498 46.2976 226.183 47.4 226.654 48.6844C227.125 49.9687 227.36 51.3922 227.36 52.9548C227.36 54.5388 227.092 56.0158 226.557 57.3857C226.044 58.7343 225.305 59.9116 224.342 60.9177C223.379 61.9023 222.223 62.6836 220.874 63.2616C219.526 63.8181 218.038 64.0964 216.411 64.0964C214.784 64.0964 213.318 63.8395 212.012 63.3258C210.728 62.8121 209.625 62.095 208.705 61.1745C207.806 60.2327 207.11 59.1196 206.618 57.8353C206.126 56.5509 205.879 55.1274 205.879 53.5648C205.879 51.9808 206.147 50.5145 206.682 49.166C207.217 47.8174 207.977 46.6508 208.962 45.6662C209.947 44.6601 211.124 43.8788 212.494 43.3222C213.864 42.7657 215.384 42.4874 217.053 42.4874ZM216.411 43.4828C215.255 43.4828 214.238 43.6968 213.361 44.125C212.505 44.5317 211.777 45.131 211.177 45.923C210.578 46.715 210.128 47.6676 209.829 48.7807C209.529 49.8938 209.379 51.146 209.379 52.5374C209.379 54.1 209.551 55.5341 209.893 56.8399C210.236 58.1242 210.728 59.2266 211.37 60.1471C212.034 61.0675 212.836 61.7846 213.778 62.2983C214.741 62.8121 215.833 63.0689 217.053 63.0689C218.145 63.0689 219.119 62.8549 219.975 62.4268C220.831 61.9772 221.548 61.3458 222.126 60.5324C222.704 59.7189 223.143 58.745 223.443 57.6105C223.742 56.4546 223.892 55.1703 223.892 53.7575C223.892 52.2591 223.71 50.8784 223.346 49.6155C223.004 48.3526 222.512 47.2716 221.869 46.3725C221.227 45.4521 220.446 44.7457 219.526 44.2534C218.605 43.7397 217.567 43.4828 216.411 43.4828ZM234.056 50.065C234.121 50.0436 234.196 50.0543 234.281 50.0971C234.388 50.1185 234.442 50.1506 234.442 50.1934C234.442 50.2577 234.42 50.3861 234.377 50.5787C234.356 50.7714 234.345 51.1246 234.345 51.6383C234.345 51.8952 234.345 52.2056 234.345 52.5695C234.367 52.912 234.377 53.1688 234.377 53.3401C234.998 52.5695 235.587 51.9594 236.143 51.5099C236.721 51.039 237.203 50.7072 237.588 50.5145C237.76 50.4717 237.92 50.4503 238.07 50.4503C238.22 50.4289 238.359 50.4182 238.487 50.4182C238.83 50.4182 239.162 50.5145 239.483 50.7072C239.804 50.8784 240.071 51.1781 240.285 51.6062V52.0878L239.354 53.918C239.311 53.9608 239.258 53.9822 239.194 53.9822C239.13 53.9822 239.097 53.9608 239.097 53.918V53.7575C238.862 53.4364 238.562 53.1688 238.198 52.9548C237.834 52.7407 237.428 52.6337 236.978 52.6337C236.743 52.6337 236.443 52.73 236.079 52.9227C235.715 53.1153 235.384 53.3401 235.084 53.5969C234.827 53.8324 234.656 54.0251 234.57 54.1749C234.484 54.3033 234.442 54.4318 234.442 54.5602V61.3672C234.442 61.624 234.463 61.8381 234.506 62.0093C234.549 62.1592 234.645 62.2769 234.795 62.3625C234.966 62.4482 235.202 62.5124 235.501 62.5552C235.822 62.5766 236.261 62.5873 236.818 62.5873C236.861 62.5873 236.893 62.6408 236.914 62.7478C236.935 62.8549 236.946 62.9512 236.946 63.0368C236.946 63.4007 236.839 63.5827 236.625 63.5827C236.026 63.5827 235.394 63.5613 234.731 63.5184C234.088 63.4756 233.596 63.4542 233.254 63.4542C232.74 63.4542 232.194 63.4756 231.616 63.5184C231.038 63.5613 230.524 63.5827 230.075 63.5827C229.947 63.5827 229.882 63.4649 229.882 63.2295C229.882 63.1224 229.893 62.994 229.914 62.8442C229.957 62.6729 230 62.5873 230.043 62.5873C231.006 62.5873 231.552 62.5124 231.68 62.3625C231.702 62.3411 231.723 62.2448 231.745 62.0736C231.766 61.8809 231.777 61.5812 231.777 61.1745C231.798 60.7678 231.809 60.2327 231.809 59.5691C231.83 58.8841 231.841 58.0172 231.841 56.9683C231.841 56.1549 231.83 55.502 231.809 55.0097C231.787 54.5174 231.755 54.1321 231.712 53.8538C231.691 53.5541 231.67 53.3401 231.648 53.2116C231.627 53.0832 231.605 52.9762 231.584 52.8906L230.235 52.2805C230.107 52.2591 230.043 52.12 230.043 51.8631C230.043 51.6918 230.107 51.5955 230.235 51.5741C230.428 51.5099 230.685 51.4243 231.006 51.3172C231.349 51.2102 231.702 51.0925 232.066 50.964C232.451 50.8142 232.815 50.6644 233.157 50.5145C233.521 50.3433 233.821 50.1934 234.056 50.065ZM255.651 61.7204C255.693 61.7204 255.736 61.7418 255.779 61.7846C255.843 61.806 255.875 61.8381 255.875 61.8809C255.875 62.0736 255.865 62.2662 255.843 62.4589C255.843 62.6301 255.811 62.7264 255.747 62.7478C255.083 62.9191 254.334 63.1117 253.499 63.3258C252.686 63.5184 251.872 63.8288 251.059 64.2569C251.016 64.2569 250.973 64.2355 250.931 64.1927C250.909 64.1499 250.899 64.1071 250.899 64.0643C250.899 64.0215 250.931 63.9466 250.995 63.8395C251.08 63.7539 251.145 63.6683 251.187 63.5827C251.123 63.2402 251.07 62.9298 251.027 62.6515C251.006 62.3518 250.984 62.095 250.963 61.8809C250.684 62.095 250.363 62.3197 249.999 62.5552C249.636 62.7692 249.261 62.9726 248.876 63.1652C248.49 63.3365 248.105 63.4756 247.72 63.5827C247.334 63.7111 246.981 63.7753 246.66 63.7753C246.018 63.7753 245.376 63.6469 244.734 63.39C244.113 63.1117 243.556 62.7157 243.064 62.202C242.572 61.6883 242.176 61.0675 241.876 60.3397C241.576 59.6119 241.427 58.7771 241.427 57.8353C241.427 56.7436 241.651 55.6626 242.101 54.5923C242.55 53.5006 243.321 52.5588 244.413 51.7668C245.29 51.146 246.114 50.7714 246.885 50.643C247.656 50.4931 248.255 50.4182 248.683 50.4182C249.068 50.4182 249.357 50.4289 249.55 50.4503C249.743 50.4503 249.957 50.4717 250.192 50.5145C250.342 50.5359 250.46 50.5573 250.545 50.5787C250.631 50.6002 250.695 50.6109 250.738 50.6109C250.802 50.6109 250.834 50.568 250.834 50.4824V43.6112C250.834 43.3972 250.791 43.2687 250.706 43.2259C250.62 43.1617 250.513 43.1296 250.385 43.1296H248.876C248.769 43.1296 248.715 42.9798 248.715 42.6801C248.715 42.4446 248.758 42.3162 248.844 42.2948C249.165 42.2306 249.539 42.1556 249.967 42.07C250.395 41.963 250.824 41.8453 251.252 41.7168C251.68 41.5884 252.087 41.4493 252.472 41.2994C252.879 41.1496 253.232 41.0104 253.531 40.882C253.596 40.882 253.66 40.9248 253.724 41.0104C253.81 41.0961 253.842 41.1817 253.82 41.2673L253.596 41.4921C253.553 41.7703 253.51 42.0914 253.467 42.4553C253.446 42.8192 253.424 43.2901 253.403 43.8681C253.382 44.4246 253.36 45.1096 253.339 45.923C253.339 46.7364 253.339 47.7425 253.339 48.9412V54.6565C253.339 55.5127 253.339 56.3476 253.339 57.161C253.36 57.953 253.382 58.6701 253.403 59.3122C253.446 59.9544 253.489 60.5002 253.531 60.9498C253.574 61.3993 253.628 61.699 253.692 61.8488C253.756 62.0415 253.895 62.1378 254.109 62.1378C254.43 62.1378 254.752 62.0736 255.073 61.9451C255.415 61.7953 255.608 61.7204 255.651 61.7204ZM250.899 61.1424C250.899 61.014 250.888 60.7785 250.866 60.436C250.866 60.0935 250.856 59.7082 250.834 59.2801C250.834 58.8306 250.834 58.3597 250.834 57.8674C250.834 57.375 250.834 56.9148 250.834 56.4867C250.834 55.5663 250.824 54.8385 250.802 54.3033C250.802 53.7468 250.791 53.308 250.77 52.9869C250.556 52.6872 250.203 52.3982 249.71 52.12C249.218 51.8203 248.565 51.6704 247.752 51.6704C247.217 51.6704 246.714 51.7989 246.243 52.0557C245.793 52.3126 245.397 52.6658 245.055 53.1153C244.734 53.5434 244.477 54.0465 244.284 54.6244C244.113 55.2024 244.027 55.8124 244.027 56.4546C244.027 57.3322 244.134 58.1242 244.348 58.8306C244.584 59.5156 244.894 60.1042 245.28 60.5966C245.686 61.0675 246.146 61.4314 246.66 61.6883C247.195 61.9237 247.773 62.0415 248.394 62.0415C248.737 62.0415 249.165 61.9558 249.678 61.7846C250.192 61.5919 250.599 61.3779 250.899 61.1424ZM267.823 60.6608C267.866 60.6608 267.92 60.6929 267.984 60.7571C268.07 60.7999 268.134 60.8427 268.177 60.8856C268.241 60.9926 268.252 61.1317 268.209 61.303C267.973 61.5812 267.652 61.8702 267.245 62.1699C266.86 62.4696 266.432 62.7478 265.961 63.0047C265.49 63.2616 265.019 63.4649 264.548 63.6148C264.077 63.786 263.639 63.8716 263.232 63.8716C262.247 63.8716 261.38 63.7111 260.631 63.39C259.903 63.0475 259.283 62.5873 258.769 62.0093C258.276 61.4314 257.902 60.7678 257.645 60.0186C257.41 59.2694 257.292 58.4774 257.292 57.6426C257.292 56.3583 257.57 55.1488 258.127 54.0143C258.683 52.8799 259.55 52.0022 260.727 51.3815C261.241 51.1246 261.83 50.8891 262.493 50.6751C263.178 50.461 263.756 50.354 264.227 50.354C264.827 50.354 265.372 50.4931 265.865 50.7714C266.357 51.0283 266.775 51.3815 267.117 51.831C267.481 52.2805 267.748 52.7942 267.92 53.3722C268.112 53.9501 268.209 54.5495 268.209 55.1703C268.209 55.4913 268.177 55.6947 268.112 55.7803C268.048 55.8659 267.845 55.9302 267.502 55.973C267.417 55.9944 267.181 56.0158 266.796 56.0372C266.411 56.0586 265.95 56.0907 265.415 56.1335C264.902 56.1763 264.345 56.2191 263.746 56.2619C263.146 56.3047 262.579 56.3476 262.044 56.3904C261.53 56.4332 261.081 56.476 260.695 56.5188C260.31 56.5402 260.064 56.5509 259.957 56.5509V56.7757C259.957 58.3811 260.417 59.6654 261.338 60.6287C262.258 61.5919 263.51 62.0736 265.094 62.0736C265.287 62.0736 265.501 62.0308 265.736 61.9451C265.972 61.8595 266.218 61.7525 266.475 61.624C266.732 61.4742 266.978 61.3244 267.213 61.1745C267.449 61.0033 267.652 60.832 267.823 60.6608ZM260.021 55.1381C260.021 55.2452 260.085 55.2987 260.214 55.2987H265.447C265.619 55.2987 265.704 55.2345 265.704 55.106C265.704 54.6993 265.629 54.2926 265.479 53.8859C265.351 53.4578 265.158 53.0725 264.902 52.73C264.645 52.3875 264.334 52.1092 263.97 51.8952C263.606 51.6811 263.2 51.5741 262.75 51.5741C262.365 51.5741 262.001 51.7132 261.659 51.9915C261.338 52.2484 261.049 52.5588 260.792 52.9227C260.556 53.2866 260.364 53.6826 260.214 54.1107C260.085 54.5174 260.021 54.8599 260.021 55.1381ZM274.443 50.065C274.507 50.0436 274.582 50.0543 274.668 50.0971C274.775 50.1185 274.828 50.1506 274.828 50.1934C274.828 50.2577 274.807 50.3861 274.764 50.5787C274.742 50.7714 274.732 51.1246 274.732 51.6383C274.732 51.8952 274.732 52.2056 274.732 52.5695C274.753 52.912 274.764 53.1688 274.764 53.3401C275.385 52.5695 275.973 51.9594 276.53 51.5099C277.108 51.039 277.589 50.7072 277.975 50.5145C278.146 50.4717 278.306 50.4503 278.456 50.4503C278.606 50.4289 278.745 50.4182 278.874 50.4182C279.216 50.4182 279.548 50.5145 279.869 50.7072C280.19 50.8784 280.458 51.1781 280.672 51.6062V52.0878L279.741 53.918C279.698 53.9608 279.644 53.9822 279.58 53.9822C279.516 53.9822 279.484 53.9608 279.484 53.918V53.7575C279.248 53.4364 278.949 53.1688 278.585 52.9548C278.221 52.7407 277.814 52.6337 277.365 52.6337C277.129 52.6337 276.829 52.73 276.466 52.9227C276.102 53.1153 275.77 53.3401 275.47 53.5969C275.213 53.8324 275.042 54.0251 274.956 54.1749C274.871 54.3033 274.828 54.4318 274.828 54.5602V61.3672C274.828 61.624 274.849 61.8381 274.892 62.0093C274.935 62.1592 275.031 62.2769 275.181 62.3625C275.352 62.4482 275.588 62.5124 275.888 62.5552C276.209 62.5766 276.648 62.5873 277.204 62.5873C277.247 62.5873 277.279 62.6408 277.3 62.7478C277.322 62.8549 277.333 62.9512 277.333 63.0368C277.333 63.4007 277.225 63.5827 277.011 63.5827C276.412 63.5827 275.781 63.5613 275.117 63.5184C274.475 63.4756 273.983 63.4542 273.64 63.4542C273.126 63.4542 272.58 63.4756 272.003 63.5184C271.425 63.5613 270.911 63.5827 270.461 63.5827C270.333 63.5827 270.269 63.4649 270.269 63.2295C270.269 63.1224 270.279 62.994 270.301 62.8442C270.344 62.6729 270.386 62.5873 270.429 62.5873C271.392 62.5873 271.938 62.5124 272.067 62.3625C272.088 62.3411 272.11 62.2448 272.131 62.0736C272.152 61.8809 272.163 61.5812 272.163 61.1745C272.184 60.7678 272.195 60.2327 272.195 59.5691C272.217 58.8841 272.227 58.0172 272.227 56.9683C272.227 56.1549 272.217 55.502 272.195 55.0097C272.174 54.5174 272.142 54.1321 272.099 53.8538C272.077 53.5541 272.056 53.3401 272.035 53.2116C272.013 53.0832 271.992 52.9762 271.97 52.8906L270.622 52.2805C270.493 52.2591 270.429 52.12 270.429 51.8631C270.429 51.6918 270.493 51.5955 270.622 51.5741C270.814 51.5099 271.071 51.4243 271.392 51.3172C271.735 51.2102 272.088 51.0925 272.452 50.964C272.837 50.8142 273.201 50.6644 273.544 50.5145C273.908 50.3433 274.207 50.1934 274.443 50.065Z" fill="white"/>
</g>
<defs>
<filter id="filter0_d_104_79" x="0.799999" y="0.799999" width="370.137" height="132.481" filterUnits="userSpaceOnUse" color-interpolation-filters="sRGB">
<feFlood flood-opacity="0" result="BackgroundImageFix"/>
<feColorMatrix in="SourceAlpha" type="matrix" values="0 0 0 0 0 0 0 0 0 0 0 0 0 0 0 0 0 0 127 0" result="hardAlpha"/>
<feOffset dy="12"/>
<feGaussianBlur stdDeviation="10.1"/>
<feComposite in2="hardAlpha" operator="out"/>
<feColorMatrix type="matrix" values="0 0 0 0 0.027451 0 0 0 0 0.027451 0 0 0 0 0.027451 0 0 0 0.82 0"/>
<feBlend mode="normal" in2="BackgroundImageFix" result="effect1_dropShadow_104_79"/>
<feBlend mode="normal" in="SourceGraphic" in2="effect1_dropShadow_104_79" result="shape"/>
</filter>
</defs>
</svg>
