<svg width="610" height="106" viewBox="0 0 610 106" fill="none" xmlns="http://www.w3.org/2000/svg">
<path d="M556.854 0.986328L609.019 53.1504L556.854 105.315H52.9834L0.818359 53.1504L52.9834 0.986328H556.854Z" fill="url(#paint0_linear_0_1)"/>
<path d="M556.854 0.986328L609.019 53.1504L556.854 105.315H52.9834L0.818359 53.1504L52.9834 0.986328H556.854Z" fill="#FFB84D"/>
<path d="M556.854 0.986328L609.019 53.1504L556.854 105.315H52.9834L0.818359 53.1504L52.9834 0.986328H556.854Z" stroke="#FFB84D"/>
<path d="M375 41H382.159L393.885 52.726L382.159 64.452H375" stroke="black" stroke-width="1.98454"/>
<path d="M392.769 41H399.927L411.653 52.726L399.927 64.452H392.769" stroke="black" stroke-width="1.98454"/>
<path d="M206.398 56.925C206.398 57.6483 206.41 58.255 206.433 58.745C206.457 59.2117 206.48 59.585 206.503 59.865C206.55 60.145 206.585 60.355 206.608 60.495C206.655 60.6117 206.702 60.6817 206.748 60.705C206.888 60.845 207.215 60.9383 207.728 60.985C208.242 61.0317 208.72 61.055 209.163 61.055H209.688C209.758 61.125 209.793 61.2767 209.793 61.51C209.793 61.7667 209.77 61.93 209.723 62C209.677 62.0933 209.583 62.14 209.443 62.14C209.21 62.14 208.895 62.1283 208.498 62.105C208.125 62.0817 207.728 62.0583 207.308 62.035C206.888 62.035 206.48 62.0233 206.083 62C205.687 61.9767 205.348 61.965 205.068 61.965C204.882 61.965 204.59 61.9767 204.193 62C203.82 62.0233 203.423 62.035 203.003 62.035C202.583 62.0583 202.187 62.0817 201.813 62.105C201.44 62.1283 201.183 62.14 201.043 62.14C200.973 62.14 200.915 62.07 200.868 61.93C200.845 61.7667 200.833 61.6267 200.833 61.51C200.833 61.3233 200.892 61.1833 201.008 61.09C201.452 61.0433 201.883 61.0083 202.303 60.985C202.747 60.9383 203.027 60.8567 203.143 60.74C203.19 60.6933 203.237 60.5767 203.283 60.39C203.33 60.18 203.365 59.7717 203.388 59.165C203.435 58.535 203.47 57.6367 203.493 56.47C203.517 55.28 203.528 53.67 203.528 51.64C203.528 49.4467 203.517 47.685 203.493 46.355C203.493 45.025 203.47 43.9983 203.423 43.275C203.4 42.5283 203.365 42.0267 203.318 41.77C203.272 41.49 203.202 41.3033 203.108 41.21C202.992 41.0467 202.7 40.9183 202.233 40.825C201.767 40.7317 201.09 40.685 200.203 40.685C200.133 40.6617 200.098 40.58 200.098 40.44C200.098 40.23 200.11 40.09 200.133 40.02C200.157 39.95 200.227 39.9033 200.343 39.88C201.347 39.7633 202.432 39.6817 203.598 39.635C204.765 39.5883 206.083 39.565 207.553 39.565C210.703 39.565 213.095 40.09 214.728 41.14C216.362 42.1667 217.178 43.6833 217.178 45.69C217.178 46.67 216.968 47.5917 216.548 48.455C216.128 49.3183 215.533 50.0883 214.763 50.765C214.017 51.4183 213.118 51.9433 212.068 52.34C211.018 52.7133 209.852 52.9 208.568 52.9C207.985 52.9 207.53 52.9 207.203 52.9C206.9 52.8767 206.632 52.8417 206.398 52.795V56.925ZM206.398 51.745C206.795 51.8383 207.238 51.885 207.728 51.885C209.735 51.885 211.287 51.3833 212.383 50.38C213.48 49.3767 214.028 47.965 214.028 46.145C214.028 44.2783 213.387 42.89 212.103 41.98C210.843 41.0467 209.093 40.58 206.853 40.58H206.398V51.745ZM223.629 37.395C223.746 37.395 223.816 37.4417 223.839 37.535C223.793 37.8617 223.758 38.4567 223.734 39.32C223.711 40.1833 223.699 41.3617 223.699 42.855V57.695C223.699 58.815 223.711 59.5967 223.734 60.04C223.758 60.4833 223.793 60.7283 223.839 60.775C223.979 60.9617 224.726 61.09 226.079 61.16C226.126 61.2533 226.149 61.3817 226.149 61.545C226.149 61.615 226.126 61.7317 226.079 61.895C226.056 62.0583 226.009 62.14 225.939 62.14C225.846 62.14 225.671 62.1283 225.414 62.105C225.158 62.0817 224.854 62.0583 224.504 62.035C224.178 62.035 223.839 62.0233 223.489 62C223.139 61.9767 222.824 61.965 222.544 61.965C222.358 61.965 222.089 61.9767 221.739 62C221.389 62.0233 221.028 62.035 220.654 62.035C220.304 62.0583 219.966 62.0817 219.639 62.105C219.336 62.1283 219.149 62.14 219.079 62.14C218.986 62.14 218.928 62.0933 218.904 62C218.881 61.8833 218.869 61.755 218.869 61.615C218.869 61.405 218.916 61.2533 219.009 61.16C219.476 61.1133 219.873 61.0783 220.199 61.055C220.526 61.0317 220.748 60.9617 220.864 60.845C220.911 60.775 220.958 60.6467 221.004 60.46C221.051 60.25 221.086 59.9467 221.109 59.55C221.133 59.13 221.144 58.605 221.144 57.975C221.168 57.345 221.179 56.575 221.179 55.665V43.485C221.179 42.6683 221.156 41.9917 221.109 41.455C221.063 40.9183 220.981 40.4517 220.864 40.055H218.939C218.893 40.055 218.846 40.0083 218.799 39.915C218.776 39.8217 218.764 39.74 218.764 39.67C218.764 39.2967 218.823 39.0983 218.939 39.075C219.219 39.005 219.593 38.9 220.059 38.76C220.549 38.5967 221.028 38.4333 221.494 38.27C221.984 38.1067 222.428 37.9433 222.824 37.78C223.221 37.6167 223.489 37.4883 223.629 37.395ZM230.555 51.85C230.439 51.85 230.205 51.7683 229.855 51.605C229.529 51.4183 229.237 51.22 228.98 51.01C228.817 50.8467 228.735 50.7183 228.735 50.625C228.735 50.2983 228.805 50.03 228.945 49.82C229.039 49.7033 229.295 49.5283 229.715 49.295C230.159 49.0617 230.672 48.8283 231.255 48.595C231.839 48.3617 232.445 48.1633 233.075 48C233.729 47.8133 234.324 47.72 234.86 47.72C235.21 47.72 235.619 47.825 236.085 48.035C236.575 48.2217 236.984 48.4783 237.31 48.805C237.824 49.3183 238.162 49.8317 238.325 50.345C238.489 50.8583 238.57 51.4183 238.57 52.025C238.57 52.305 238.559 52.7367 238.535 53.32C238.512 53.88 238.477 54.4983 238.43 55.175C238.407 55.8283 238.384 56.47 238.36 57.1C238.337 57.73 238.325 58.2317 238.325 58.605C238.325 59.0483 238.384 59.4217 238.5 59.725C238.617 60.005 238.757 60.2383 238.92 60.425C239.084 60.5883 239.247 60.7167 239.41 60.81C239.597 60.88 239.749 60.915 239.865 60.915C239.959 60.915 240.064 60.8917 240.18 60.845C240.32 60.775 240.449 60.705 240.565 60.635C240.682 60.5417 240.787 60.4717 240.88 60.425C240.997 60.355 241.067 60.32 241.09 60.32C241.207 60.32 241.265 60.39 241.265 60.53C241.265 60.8567 241.219 61.09 241.125 61.23C240.985 61.3 240.764 61.4167 240.46 61.58C240.157 61.72 239.83 61.86 239.48 62C239.154 62.14 238.839 62.2567 238.535 62.35C238.255 62.4667 238.057 62.525 237.94 62.525C237.777 62.525 237.59 62.4667 237.38 62.35C237.17 62.2333 236.96 62.0817 236.75 61.895C236.564 61.685 236.389 61.44 236.225 61.16C236.085 60.88 235.992 60.5767 235.945 60.25C235.409 60.74 234.93 61.1367 234.51 61.44C234.114 61.72 233.74 61.93 233.39 62.07C233.064 62.21 232.76 62.3033 232.48 62.35C232.2 62.3967 231.944 62.42 231.71 62.42C231.08 62.42 230.532 62.315 230.065 62.105C229.622 61.895 229.237 61.6033 228.91 61.23C228.607 60.8567 228.374 60.4367 228.21 59.97C228.07 59.48 228 58.9667 228 58.43C228 57.9167 228.245 57.4383 228.735 56.995C229.249 56.5283 229.879 56.1317 230.625 55.805C231.395 55.455 232.235 55.175 233.145 54.965C234.055 54.7317 234.919 54.58 235.735 54.51C235.782 54.51 235.829 54.4983 235.875 54.475C235.922 54.4283 235.945 54.3467 235.945 54.23L235.98 52.9C236.027 51.64 235.735 50.66 235.105 49.96C234.475 49.2367 233.67 48.875 232.69 48.875C232.41 48.875 232.154 48.98 231.92 49.19C231.687 49.3767 231.489 49.6217 231.325 49.925C231.185 50.205 231.069 50.5083 230.975 50.835C230.905 51.1617 230.87 51.4533 230.87 51.71C230.87 51.7567 230.824 51.7917 230.73 51.815C230.66 51.8383 230.602 51.85 230.555 51.85ZM235.945 56.085C235.945 56.0383 235.922 55.98 235.875 55.91C235.852 55.84 235.817 55.805 235.77 55.805C235.677 55.7817 235.514 55.77 235.28 55.77C235.047 55.7467 234.814 55.735 234.58 55.735C233.25 55.735 232.235 55.9333 231.535 56.33C230.859 56.7267 230.52 57.135 230.52 57.555C230.52 58.4417 230.789 59.2 231.325 59.83C231.862 60.46 232.539 60.775 233.355 60.775C233.612 60.775 233.997 60.6583 234.51 60.425C235.024 60.1683 235.467 59.865 235.84 59.515L235.945 56.085ZM253.725 59.165C253.795 59.165 253.877 59.2 253.97 59.27C254.063 59.3167 254.133 59.3633 254.18 59.41C254.273 59.5267 254.285 59.6667 254.215 59.83C253.748 60.32 253.258 60.74 252.745 61.09C252.232 61.4167 251.73 61.685 251.24 61.895C250.75 62.105 250.295 62.245 249.875 62.315C249.478 62.4083 249.152 62.455 248.895 62.455C248.032 62.455 247.227 62.2917 246.48 61.965C245.733 61.6383 245.08 61.195 244.52 60.635C243.96 60.0517 243.517 59.3517 243.19 58.535C242.887 57.7183 242.735 56.82 242.735 55.84C242.735 54.8133 242.91 53.845 243.26 52.935C243.61 52.0017 244.275 51.0683 245.255 50.135C246.072 49.4117 246.958 48.84 247.915 48.42C248.895 47.9767 249.852 47.755 250.785 47.755C251.275 47.755 251.718 47.8133 252.115 47.93C252.535 48.0233 252.897 48.1517 253.2 48.315C253.527 48.455 253.772 48.6067 253.935 48.77C254.122 48.9333 254.215 49.085 254.215 49.225C254.215 49.295 254.145 49.4933 254.005 49.82C253.865 50.1467 253.562 50.7067 253.095 51.5C252.978 51.57 252.862 51.57 252.745 51.5C252.745 51.4533 252.745 51.4067 252.745 51.36C252.768 51.3133 252.78 51.2667 252.78 51.22C252.593 50.66 252.127 50.205 251.38 49.855C250.657 49.505 249.922 49.33 249.175 49.33C248.568 49.33 248.055 49.435 247.635 49.645C247.215 49.8317 246.9 50.0183 246.69 50.205C246.387 50.5083 246.095 50.9983 245.815 51.675C245.535 52.3283 245.395 53.18 245.395 54.23C245.395 56.2133 245.897 57.7883 246.9 58.955C247.927 60.0983 249.315 60.67 251.065 60.67C251.275 60.67 251.625 60.5533 252.115 60.32C252.628 60.0867 253.165 59.7017 253.725 59.165ZM267.953 59.06C268 59.06 268.058 59.0833 268.128 59.13C268.198 59.1767 268.256 59.2233 268.303 59.27C268.373 59.3867 268.385 59.5383 268.338 59.725C268.081 60.0283 267.731 60.3433 267.288 60.67C266.868 60.9733 266.413 61.265 265.923 61.545C265.456 61.8017 264.966 62.0117 264.453 62.175C263.963 62.3617 263.52 62.455 263.123 62.455C262.003 62.455 261.023 62.2683 260.183 61.895C259.366 61.4983 258.69 60.985 258.153 60.355C257.64 59.725 257.255 59.0017 256.998 58.185C256.741 57.3683 256.613 56.5283 256.613 55.665C256.613 54.265 256.916 52.935 257.523 51.675C258.13 50.415 259.086 49.4467 260.393 48.77C260.673 48.63 260.976 48.5017 261.303 48.385C261.63 48.2683 261.956 48.1633 262.283 48.07C262.61 47.9533 262.925 47.8717 263.228 47.825C263.531 47.755 263.788 47.72 263.998 47.72C264.651 47.72 265.246 47.8717 265.783 48.175C266.32 48.455 266.775 48.84 267.148 49.33C267.545 49.82 267.836 50.38 268.023 51.01C268.233 51.64 268.338 52.2933 268.338 52.97C268.338 53.32 268.303 53.5417 268.233 53.635C268.163 53.7283 267.941 53.7983 267.568 53.845C267.451 53.8683 267.183 53.8917 266.763 53.915C266.343 53.9383 265.841 53.9733 265.258 54.02C264.698 54.0667 264.08 54.1133 263.403 54.16C262.75 54.2067 262.131 54.2533 261.548 54.3C260.965 54.3467 260.463 54.3933 260.043 54.44C259.623 54.4633 259.355 54.475 259.238 54.475V54.72C259.238 56.5867 259.751 58.045 260.778 59.095C261.828 60.1217 263.205 60.635 264.908 60.635C265.118 60.635 265.363 60.5883 265.643 60.495C265.946 60.3783 266.238 60.2383 266.518 60.075C266.821 59.9117 267.101 59.7367 267.358 59.55C267.615 59.3633 267.813 59.2 267.953 59.06ZM259.308 52.935C259.308 53.0517 259.378 53.11 259.518 53.11H265.608C265.795 53.11 265.888 53.04 265.888 52.9C265.888 52.4567 265.806 52.0133 265.643 51.57C265.503 51.1033 265.281 50.6833 264.978 50.31C264.698 49.9367 264.348 49.6333 263.928 49.4C263.508 49.1433 263.041 49.015 262.528 49.015C262.061 49.015 261.63 49.1667 261.233 49.47C260.86 49.75 260.521 50.1 260.218 50.52C259.938 50.94 259.716 51.3717 259.553 51.815C259.39 52.2583 259.308 52.6317 259.308 52.935ZM290.438 39.145C292.165 39.145 293.717 39.425 295.093 39.985C296.47 40.5217 297.637 41.2917 298.593 42.295C299.573 43.2983 300.32 44.5 300.833 45.9C301.347 47.3 301.603 48.8517 301.603 50.555C301.603 52.2817 301.312 53.8917 300.728 55.385C300.168 56.855 299.363 58.1383 298.313 59.235C297.287 60.3083 296.038 61.16 294.568 61.79C293.122 62.3967 291.512 62.7 289.738 62.7C287.988 62.7 286.402 62.42 284.978 61.86C283.578 61.3 282.377 60.5183 281.373 59.515C280.393 58.4883 279.635 57.275 279.098 55.875C278.585 54.475 278.328 52.9233 278.328 51.22C278.328 49.4933 278.62 47.895 279.203 46.425C279.787 44.955 280.603 43.6833 281.653 42.61C282.727 41.5133 283.998 40.6617 285.468 40.055C286.962 39.4483 288.618 39.145 290.438 39.145ZM289.738 40.195C288.455 40.195 287.312 40.4283 286.308 40.895C285.328 41.3617 284.5 42.0267 283.823 42.89C283.17 43.73 282.668 44.7683 282.318 46.005C281.968 47.2183 281.793 48.5833 281.793 50.1C281.793 51.8033 281.98 53.3667 282.353 54.79C282.75 56.19 283.31 57.4033 284.033 58.43C284.78 59.4333 285.69 60.215 286.763 60.775C287.837 61.335 289.062 61.615 290.438 61.615C291.675 61.615 292.772 61.37 293.728 60.88C294.708 60.39 295.525 59.7017 296.178 58.815C296.832 57.9283 297.322 56.8667 297.648 55.63C297.998 54.37 298.173 52.97 298.173 51.43C298.173 49.7967 297.975 48.2917 297.578 46.915C297.182 45.5383 296.622 44.3483 295.898 43.345C295.175 42.3417 294.288 41.5717 293.238 41.035C292.188 40.475 291.022 40.195 289.738 40.195ZM308.73 47.405C308.8 47.3817 308.881 47.3933 308.975 47.44C309.068 47.4633 309.115 47.4983 309.115 47.545C309.115 47.615 309.08 47.7783 309.01 48.035C308.963 48.2683 308.94 48.665 308.94 49.225C308.94 49.505 308.94 49.8433 308.94 50.24C308.963 50.6133 308.975 50.8933 308.975 51.08C309.651 50.24 310.305 49.5517 310.935 49.015C311.565 48.4783 312.09 48.105 312.51 47.895C312.696 47.8483 312.883 47.825 313.07 47.825C313.28 47.8017 313.501 47.79 313.735 47.79C313.991 47.79 314.283 47.895 314.61 48.105C314.96 48.2917 315.251 48.6183 315.485 49.085V49.61L314.575 51.43C314.528 51.4767 314.47 51.5 314.4 51.5C314.353 51.5 314.33 51.4767 314.33 51.43V51.255C314.073 50.905 313.746 50.6133 313.35 50.38C312.953 50.1467 312.51 50.03 312.02 50.03C311.74 50.03 311.39 50.1467 310.97 50.38C310.55 50.6133 310.176 50.8933 309.85 51.22C309.57 51.5 309.371 51.745 309.255 51.955C309.161 52.165 309.115 52.375 309.115 52.585V59.76C309.115 60.04 309.138 60.2733 309.185 60.46C309.231 60.6233 309.336 60.7517 309.5 60.845C309.663 60.9383 309.908 61.0083 310.235 61.055C310.585 61.0783 311.063 61.09 311.67 61.09C311.74 61.09 311.786 61.1483 311.81 61.265C311.833 61.3817 311.845 61.4867 311.845 61.58C311.845 61.8133 311.81 61.965 311.74 62.035C311.67 62.105 311.576 62.14 311.46 62.14C310.83 62.14 310.165 62.1167 309.465 62.07C308.765 62.0233 308.263 62 307.96 62C307.446 62 306.886 62.0233 306.28 62.07C305.673 62.1167 305.125 62.14 304.635 62.14C304.495 62.14 304.425 62.035 304.425 61.825C304.425 61.7083 304.436 61.5567 304.46 61.37C304.506 61.1833 304.553 61.09 304.6 61.09C305.65 61.09 306.245 61.0083 306.385 60.845C306.408 60.8217 306.431 60.7167 306.455 60.53C306.478 60.32 306.49 59.9933 306.49 59.55C306.513 59.1067 306.525 58.5117 306.525 57.765C306.548 57.0183 306.56 56.0733 306.56 54.93C306.56 54.09 306.548 53.4017 306.525 52.865C306.525 52.305 306.513 51.8617 306.49 51.535C306.466 51.2083 306.443 50.9633 306.42 50.8C306.396 50.6133 306.373 50.4733 306.35 50.38L304.81 49.785C304.67 49.7617 304.6 49.61 304.6 49.33C304.6 49.1667 304.67 49.0733 304.81 49.05C304.996 48.98 305.253 48.8867 305.58 48.77C305.93 48.6533 306.291 48.525 306.665 48.385C307.038 48.2217 307.4 48.0583 307.75 47.895C308.123 47.7317 308.45 47.5683 308.73 47.405ZM332.166 60.18C332.213 60.18 332.259 60.2033 332.306 60.25C332.376 60.2733 332.411 60.3083 332.411 60.355C332.411 60.5417 332.399 60.74 332.376 60.95C332.376 61.1367 332.341 61.2417 332.271 61.265C331.548 61.4517 330.789 61.65 329.996 61.86C329.203 62.07 328.363 62.4083 327.476 62.875C327.406 62.875 327.348 62.8517 327.301 62.805C327.278 62.7583 327.266 62.7117 327.266 62.665C327.266 62.6183 327.301 62.5483 327.371 62.455C327.441 62.3617 327.511 62.2683 327.581 62.175C327.488 61.7783 327.418 61.4633 327.371 61.23C327.348 60.9733 327.324 60.6817 327.301 60.355C326.998 60.565 326.648 60.7983 326.251 61.055C325.854 61.2883 325.446 61.4983 325.026 61.685C324.606 61.8717 324.174 62.0233 323.731 62.14C323.311 62.28 322.926 62.35 322.576 62.35C321.946 62.35 321.293 62.21 320.616 61.93C319.939 61.65 319.321 61.2417 318.761 60.705C318.224 60.1683 317.781 59.5033 317.431 58.71C317.081 57.8933 316.906 56.96 316.906 55.91C316.906 54.51 317.163 53.25 317.676 52.13C318.213 50.9867 319.134 49.9717 320.441 49.085C321.188 48.5717 321.946 48.2333 322.716 48.07C323.509 47.8833 324.163 47.79 324.676 47.79C325.003 47.79 325.318 47.8017 325.621 47.825C325.924 47.8483 326.204 47.8833 326.461 47.93C326.811 48 327.021 48.035 327.091 48.035C327.161 48.035 327.196 47.9883 327.196 47.895V40.23C327.196 40.0433 327.114 39.9267 326.951 39.88C326.811 39.8333 326.636 39.81 326.426 39.81H325.061C324.944 39.81 324.886 39.6467 324.886 39.32C324.886 39.0867 324.933 38.9583 325.026 38.935C325.376 38.865 325.773 38.7833 326.216 38.69C326.659 38.5733 327.091 38.445 327.511 38.305C327.954 38.165 328.386 38.025 328.806 37.885C329.226 37.7217 329.599 37.5583 329.926 37.395C329.996 37.395 330.066 37.4417 330.136 37.535C330.206 37.6283 330.229 37.7217 330.206 37.815L329.961 38.06C329.891 38.4567 329.833 38.8417 329.786 39.215C329.739 39.5883 329.704 40.0667 329.681 40.65C329.658 41.21 329.646 41.9333 329.646 42.82C329.646 43.6833 329.646 44.8033 329.646 46.18V52.41C329.646 53.3433 329.646 54.2533 329.646 55.14C329.669 56.0033 329.693 56.7967 329.716 57.52C329.763 58.22 329.809 58.815 329.856 59.305C329.903 59.795 329.961 60.1217 330.031 60.285C330.078 60.3783 330.124 60.46 330.171 60.53C330.218 60.6 330.323 60.635 330.486 60.635C330.836 60.635 331.186 60.565 331.536 60.425C331.909 60.2617 332.119 60.18 332.166 60.18ZM327.266 59.55C327.266 59.41 327.254 59.1533 327.231 58.78C327.231 58.3833 327.219 57.94 327.196 57.45C327.196 56.96 327.196 56.4467 327.196 55.91C327.196 55.3733 327.196 54.8717 327.196 54.405C327.196 53.4017 327.184 52.5967 327.161 51.99C327.161 51.3833 327.149 50.905 327.126 50.555C326.869 50.2283 326.461 49.9133 325.901 49.61C325.341 49.2833 324.629 49.12 323.766 49.12C323.066 49.12 322.448 49.2717 321.911 49.575C321.374 49.8783 320.919 50.2867 320.546 50.8C320.173 51.29 319.893 51.8617 319.706 52.515C319.519 53.1683 319.426 53.845 319.426 54.545C319.426 55.4317 319.554 56.2483 319.811 56.995C320.068 57.7183 320.406 58.3483 320.826 58.885C321.269 59.4217 321.794 59.8417 322.401 60.145C323.008 60.425 323.661 60.565 324.361 60.565C324.781 60.565 325.271 60.4717 325.831 60.285C326.391 60.075 326.869 59.83 327.266 59.55ZM345.404 59.06C345.451 59.06 345.509 59.0833 345.579 59.13C345.649 59.1767 345.707 59.2233 345.754 59.27C345.824 59.3867 345.836 59.5383 345.789 59.725C345.532 60.0283 345.182 60.3433 344.739 60.67C344.319 60.9733 343.864 61.265 343.374 61.545C342.907 61.8017 342.417 62.0117 341.904 62.175C341.414 62.3617 340.971 62.455 340.574 62.455C339.454 62.455 338.474 62.2683 337.634 61.895C336.817 61.4983 336.141 60.985 335.604 60.355C335.091 59.725 334.706 59.0017 334.449 58.185C334.192 57.3683 334.064 56.5283 334.064 55.665C334.064 54.265 334.367 52.935 334.974 51.675C335.581 50.415 336.537 49.4467 337.844 48.77C338.124 48.63 338.427 48.5017 338.754 48.385C339.081 48.2683 339.407 48.1633 339.734 48.07C340.061 47.9533 340.376 47.8717 340.679 47.825C340.982 47.755 341.239 47.72 341.449 47.72C342.102 47.72 342.697 47.8717 343.234 48.175C343.771 48.455 344.226 48.84 344.599 49.33C344.996 49.82 345.287 50.38 345.474 51.01C345.684 51.64 345.789 52.2933 345.789 52.97C345.789 53.32 345.754 53.5417 345.684 53.635C345.614 53.7283 345.392 53.7983 345.019 53.845C344.902 53.8683 344.634 53.8917 344.214 53.915C343.794 53.9383 343.292 53.9733 342.709 54.02C342.149 54.0667 341.531 54.1133 340.854 54.16C340.201 54.2067 339.582 54.2533 338.999 54.3C338.416 54.3467 337.914 54.3933 337.494 54.44C337.074 54.4633 336.806 54.475 336.689 54.475V54.72C336.689 56.5867 337.202 58.045 338.229 59.095C339.279 60.1217 340.656 60.635 342.359 60.635C342.569 60.635 342.814 60.5883 343.094 60.495C343.397 60.3783 343.689 60.2383 343.969 60.075C344.272 59.9117 344.552 59.7367 344.809 59.55C345.066 59.3633 345.264 59.2 345.404 59.06ZM336.759 52.935C336.759 53.0517 336.829 53.11 336.969 53.11H343.059C343.246 53.11 343.339 53.04 343.339 52.9C343.339 52.4567 343.257 52.0133 343.094 51.57C342.954 51.1033 342.732 50.6833 342.429 50.31C342.149 49.9367 341.799 49.6333 341.379 49.4C340.959 49.1433 340.492 49.015 339.979 49.015C339.512 49.015 339.081 49.1667 338.684 49.47C338.311 49.75 337.972 50.1 337.669 50.52C337.389 50.94 337.167 51.3717 337.004 51.815C336.841 52.2583 336.759 52.6317 336.759 52.935ZM352.445 47.405C352.515 47.3817 352.597 47.3933 352.69 47.44C352.784 47.4633 352.83 47.4983 352.83 47.545C352.83 47.615 352.795 47.7783 352.725 48.035C352.679 48.2683 352.655 48.665 352.655 49.225C352.655 49.505 352.655 49.8433 352.655 50.24C352.679 50.6133 352.69 50.8933 352.69 51.08C353.367 50.24 354.02 49.5517 354.65 49.015C355.28 48.4783 355.805 48.105 356.225 47.895C356.412 47.8483 356.599 47.825 356.785 47.825C356.995 47.8017 357.217 47.79 357.45 47.79C357.707 47.79 357.999 47.895 358.325 48.105C358.675 48.2917 358.967 48.6183 359.2 49.085V49.61L358.29 51.43C358.244 51.4767 358.185 51.5 358.115 51.5C358.069 51.5 358.045 51.4767 358.045 51.43V51.255C357.789 50.905 357.462 50.6133 357.065 50.38C356.669 50.1467 356.225 50.03 355.735 50.03C355.455 50.03 355.105 50.1467 354.685 50.38C354.265 50.6133 353.892 50.8933 353.565 51.22C353.285 51.5 353.087 51.745 352.97 51.955C352.877 52.165 352.83 52.375 352.83 52.585V59.76C352.83 60.04 352.854 60.2733 352.9 60.46C352.947 60.6233 353.052 60.7517 353.215 60.845C353.379 60.9383 353.624 61.0083 353.95 61.055C354.3 61.0783 354.779 61.09 355.385 61.09C355.455 61.09 355.502 61.1483 355.525 61.265C355.549 61.3817 355.56 61.4867 355.56 61.58C355.56 61.8133 355.525 61.965 355.455 62.035C355.385 62.105 355.292 62.14 355.175 62.14C354.545 62.14 353.88 62.1167 353.18 62.07C352.48 62.0233 351.979 62 351.675 62C351.162 62 350.602 62.0233 349.995 62.07C349.389 62.1167 348.84 62.14 348.35 62.14C348.21 62.14 348.14 62.035 348.14 61.825C348.14 61.7083 348.152 61.5567 348.175 61.37C348.222 61.1833 348.269 61.09 348.315 61.09C349.365 61.09 349.96 61.0083 350.1 60.845C350.124 60.8217 350.147 60.7167 350.17 60.53C350.194 60.32 350.205 59.9933 350.205 59.55C350.229 59.1067 350.24 58.5117 350.24 57.765C350.264 57.0183 350.275 56.0733 350.275 54.93C350.275 54.09 350.264 53.4017 350.24 52.865C350.24 52.305 350.229 51.8617 350.205 51.535C350.182 51.2083 350.159 50.9633 350.135 50.8C350.112 50.6133 350.089 50.4733 350.065 50.38L348.525 49.785C348.385 49.7617 348.315 49.61 348.315 49.33C348.315 49.1667 348.385 49.0733 348.525 49.05C348.712 48.98 348.969 48.8867 349.295 48.77C349.645 48.6533 350.007 48.525 350.38 48.385C350.754 48.2217 351.115 48.0583 351.465 47.895C351.839 47.7317 352.165 47.5683 352.445 47.405Z" fill="black"/>
<defs>
<linearGradient id="paint0_linear_0_1" x1="304.919" y1="0.486328" x2="304.919" y2="105.816" gradientUnits="userSpaceOnUse">
<stop stop-color="#FFB84D" stop-opacity="0.1"/>
<stop offset="1" stop-color="#996E2E" stop-opacity="0"/>
</linearGradient>
</defs>
</svg>
