<svg width="116" height="57" viewBox="0 0 116 57" fill="none" xmlns="http://www.w3.org/2000/svg">
<path d="M28.054 0.753662H87.4231L115.427 28.7571L87.4231 56.7605H28.054L0.0505371 28.7571L28.054 0.753662Z" fill="url(#paint0_linear_104_74)"/>
<path d="M87.1521 1.40894L114.5 28.7566L87.1521 56.1052H28.325L0.976318 28.7566L28.325 1.40894H87.1521Z" stroke="white" stroke-opacity="0.3" stroke-width="1.31"/>
<path d="M72.0629 18.2236L75.0901 24.3574L81.8592 25.341L76.961 30.1155L78.1173 36.8572L72.0629 33.6742L66.0084 36.8572L67.1647 30.1155L62.2666 25.341L69.0357 24.3574L72.0629 18.2236Z" fill="#FFB84D"/>
<path opacity="0.6" d="M39.6188 22.6662L39.4774 22.619C39.2103 22.9961 38.8803 23.4675 38.4875 24.0332C38.1104 24.5831 37.7176 25.1488 37.3091 25.7302C36.9162 26.3115 36.5391 26.8693 36.1777 27.4036C35.8163 27.9221 35.5178 28.3385 35.2821 28.6527C35.2193 28.747 35.2428 28.8098 35.3528 28.8413C35.4942 28.8727 35.6828 28.9041 35.9185 28.9355C36.1542 28.9512 36.4213 28.967 36.7198 28.9827C37.0341 28.9827 37.364 28.9905 37.7097 29.0062C38.0554 29.0062 38.4011 29.0062 38.7468 29.0062H39.501L39.6188 22.6662ZM39.336 33.7908C39.4617 33.6022 39.5245 32.9815 39.5245 31.9288V30.1376H33.8444C33.7344 30.1061 33.648 30.0197 33.5851 29.8783C33.538 29.7369 33.5066 29.6033 33.4909 29.4776C33.758 29.1477 34.0722 28.747 34.4336 28.2756C34.795 27.8042 35.18 27.3014 35.5885 26.7672C35.997 26.2172 36.4134 25.6594 36.8377 25.0938C37.2619 24.5124 37.6704 23.9468 38.0633 23.3968C38.4718 22.8469 38.841 22.3362 39.171 21.8648C39.5167 21.3935 39.8152 20.9849 40.0666 20.6392L41.2922 20.1207L41.4572 20.2621C41.4258 20.545 41.4022 20.8906 41.3865 21.2992C41.3708 21.7077 41.3551 22.1555 41.3394 22.6426C41.3394 23.114 41.3315 23.6089 41.3158 24.1275C41.3158 24.6303 41.3158 25.1174 41.3158 25.5887V29.0298C41.9443 29.0298 42.4157 29.0141 42.7299 28.9827C43.0599 28.9512 43.3741 28.9198 43.6727 28.8884C43.7041 28.8884 43.7355 28.912 43.767 28.9591C43.7984 28.9905 43.7984 29.022 43.767 29.0534C43.7355 29.1005 43.6727 29.1948 43.5784 29.3362C43.4841 29.4776 43.4056 29.5719 43.3427 29.619C43.0285 29.7605 42.7142 29.8547 42.4 29.9019C42.1014 29.949 41.7322 30.004 41.2922 30.0668V31.7874C41.2922 32.4787 41.3079 32.9658 41.3394 33.2487C41.3865 33.5158 41.4336 33.7043 41.4808 33.8143C41.5279 33.8929 41.7007 33.9557 41.9993 34.0029C42.2978 34.0343 42.6828 34.0657 43.1542 34.0971C43.217 34.1443 43.2484 34.27 43.2484 34.4743C43.2484 34.5685 43.2327 34.6549 43.2013 34.7335C43.1856 34.8121 43.1385 34.8514 43.0599 34.8514C42.8399 34.8514 42.4864 34.8356 41.9993 34.8042C41.5279 34.7728 41.0094 34.7571 40.4437 34.7571C39.8309 34.7571 39.3046 34.7728 38.8646 34.8042C38.4247 34.8356 38.0711 34.8514 37.804 34.8514C37.7569 34.8514 37.7254 34.8042 37.7097 34.7099C37.7097 34.6157 37.7097 34.5057 37.7097 34.38C37.7097 34.1914 37.7569 34.0971 37.8511 34.0971C38.7782 34.0029 39.2731 33.9007 39.336 33.7908ZM46.1623 29.9019C45.9895 29.9019 45.9031 29.839 45.9031 29.7133V28.9355C45.9031 28.7941 45.9895 28.7234 46.1623 28.7234H50.8526V24.0332C50.8526 23.8603 50.9233 23.7739 51.0647 23.7739H51.8425C51.9682 23.7739 52.031 23.8603 52.031 24.0332V28.7234H56.6977C56.8705 28.7234 56.957 28.7941 56.957 28.9355V29.7133C56.957 29.839 56.8705 29.9019 56.6977 29.9019H52.031V34.5921C52.031 34.7649 51.9682 34.8514 51.8425 34.8514H51.0647C50.9233 34.8514 50.8526 34.7649 50.8526 34.5921V29.9019H46.1623Z" fill="white"/>
<defs>
<linearGradient id="paint0_linear_104_74" x1="172.958" y1="0.753662" x2="172.958" y2="56.7605" gradientUnits="userSpaceOnUse">
<stop stop-color="white" stop-opacity="0.05"/>
<stop offset="1" stop-color="white" stop-opacity="0"/>
</linearGradient>
</defs>
</svg>
