<svg width="84" height="84" viewBox="0 0 84 84" fill="none" xmlns="http://www.w3.org/2000/svg">
<rect x="41.9153" y="0.912476" width="58.6655" height="58.6655" transform="rotate(45 41.9153 0.912476)" fill="#FFB84D"/>
<path d="M47.8697 51.0257L40.3313 43.4872L42.858 40.9605L50.3964 48.4989H52.8251L57.9981 53.672L57.9981 56.1006L55.4714 58.6273L53.0427 58.6273L47.8697 53.4543L47.8697 51.0257Z" fill="black"/>
<path d="M44.3772 27.4264C49.2318 32.2809 49.2318 40.1516 44.3772 45.0061C39.5227 49.8607 31.652 49.8607 26.7975 45.0061C21.9429 40.1516 21.9429 32.2809 26.7975 27.4264C31.652 22.5718 39.5227 22.5718 44.3772 27.4264ZM30.3134 41.4902C33.2261 44.4029 37.9486 44.4029 40.8613 41.4902C43.774 38.5775 43.774 33.855 40.8613 30.9423C37.9486 28.0296 33.2261 28.0296 30.3134 30.9423C27.4007 33.855 27.4007 38.5775 30.3134 41.4902Z" fill="black"/>
</svg>
