<svg width="44" height="60" viewBox="0 0 44 60" fill="none" xmlns="http://www.w3.org/2000/svg">
<path d="M6.58475 45.2636V27.063L0.310547 21.1352V0.834717L2.73588 3.26005V18.173L6.23831 21.6754V4.21303H8.32504V22.0811H9.62928V4.21303H12.1763V21.6754L15.6787 18.173V3.26005L18.104 0.834717V21.1352L12.1763 27.063V45.2636L18.1166 51.204L9.38051 59.9401L0.644404 51.204L6.58475 45.2636Z" fill="#FFB84D"/>
<path fill-rule="evenodd" clip-rule="evenodd" d="M37.0671 26.2477L37.0671 44.4484L43.0075 50.3888L34.2714 59.1249L25.5352 50.3888L31.4756 44.4484L31.4756 26.2477L25.5478 20.32L25.5478 6.76248L31.4756 0.834718L37.4135 0.834718L43.3413 6.76248L43.3413 20.32L37.0671 26.2477ZM29.7293 18.6536L33.1771 22.1013L35.498 22.1013L38.9457 18.6536L38.9457 7.92519L36.49 5.46942L32.1851 5.46942L29.7293 7.92519L29.7293 18.6536Z" fill="#FFB84D"/>
</svg>
