<svg width="301" height="92" viewBox="0 0 301 92" fill="none" xmlns="http://www.w3.org/2000/svg">
<path d="M51.5013 5.8241H249.478L289.257 45.6035L249.478 85.3829H51.5013L11.7219 45.6035L51.5013 5.8241Z" fill="#FFB84D"/>
<path d="M254.442 0.709961L299.335 45.6025L254.442 90.4961H46.5369L1.64331 45.6025L46.5369 0.709961H254.442Z" stroke="#FFB84D" stroke-width="1.42052"/>
<path d="M71.3395 33.6196C71.2949 33.5749 71.2726 33.5191 71.2726 33.4522C71.2949 33.3629 71.3172 33.2959 71.3395 33.2513C71.4735 32.9611 71.5851 32.7826 71.6744 32.7156C71.7636 32.6263 71.8418 32.5817 71.9087 32.5817C72.1542 32.5817 72.623 32.604 73.3149 32.6487C74.0068 32.6933 74.8885 32.7156 75.9598 32.7156C77.0089 32.7156 77.8459 32.6821 78.4708 32.6152C79.1181 32.5482 79.4976 32.5147 79.6092 32.5147C79.7208 32.5147 79.7766 32.6598 79.7766 32.95C79.7766 33.1509 79.7542 33.2959 79.7096 33.3852C79.6873 33.4522 79.6538 33.508 79.6092 33.5526L78.5713 33.6865C78.3927 33.7089 78.203 33.7424 78.0021 33.787C77.8236 33.8093 77.6785 33.8763 77.5669 33.9879C77.5222 34.0548 77.4776 34.2111 77.4329 34.4566C77.4106 34.7021 77.3883 35.1039 77.366 35.6619C77.3437 36.2199 77.3325 36.9676 77.3325 37.9051C77.3325 38.8425 77.3325 40.0255 77.3325 41.454C77.3325 42.1682 77.3325 42.9383 77.3325 43.7641C77.3548 44.5899 77.366 45.6055 77.366 46.8108C77.366 48.5964 77.3102 50.0695 77.1986 51.2302C77.1093 52.3685 76.9642 53.3171 76.7633 54.076C76.5625 54.8572 76.2946 55.5157 75.9598 56.0513C75.625 56.587 75.2233 57.1339 74.7545 57.6919C74.442 58.0936 74.0738 58.4731 73.6497 58.8302C73.2479 59.1873 72.8238 59.4998 72.3774 59.7676C71.9534 60.0578 71.5181 60.281 71.0717 60.4372C70.6476 60.6158 70.2459 60.7051 69.8664 60.7051C69.5316 60.7051 69.2303 60.6493 68.9625 60.5377C68.6946 60.4261 68.4714 60.2922 68.2928 60.1359C68.1143 60.002 67.9804 59.8569 67.8911 59.7007C67.7795 59.5668 67.7125 59.4775 67.6902 59.4328C67.6679 59.3659 67.6567 59.3101 67.6567 59.2654C67.6344 59.2208 67.6567 59.1427 67.7237 59.0311C67.8799 58.7856 68.0585 58.5624 68.2594 58.3615C68.4602 58.1829 68.65 58.0378 68.8285 57.9262C68.9625 57.8593 69.0964 57.8593 69.2303 57.9262C69.5205 58.0825 69.8664 58.2722 70.2682 58.4954C70.6699 58.7186 71.2168 58.8302 71.9087 58.8302C72.1766 58.8302 72.4667 58.7074 72.7792 58.4619C73.0917 58.2164 73.3707 57.703 73.6162 56.9218C73.884 56.1629 74.1072 55.0692 74.2858 53.6408C74.4644 52.19 74.5536 50.2816 74.5536 47.9156V36.6328C74.5536 35.74 74.5202 35.1039 74.4532 34.7244C74.3862 34.345 74.3081 34.1106 74.2188 34.0214C74.0626 33.8651 73.739 33.7758 73.2479 33.7535C72.7569 33.7089 72.1208 33.6642 71.3395 33.6196ZM97.1384 52.1676C97.1831 52.1676 97.2054 52.2123 97.2054 52.3016C97.2277 52.3908 97.2389 52.4801 97.2389 52.5694C97.2389 53.0604 97.1831 53.3171 97.0715 53.3394C96.8706 53.3841 96.5916 53.451 96.2344 53.5403C95.8996 53.6073 95.5314 53.6966 95.1296 53.8082C94.7278 53.9198 94.3261 54.0314 93.9243 54.143C93.5225 54.2769 93.1766 54.4108 92.8864 54.5447L92.5181 54.4443C92.4958 54.355 92.4735 54.1764 92.4512 53.9086C92.4512 53.6631 92.44 53.3952 92.4177 53.1051C92.4177 52.8149 92.4065 52.5359 92.3842 52.2681C92.3842 51.9779 92.3842 51.7659 92.3842 51.6319C92.0494 51.9891 91.6588 52.335 91.2124 52.6698C90.7883 52.9823 90.3419 53.2613 89.8732 53.5068C89.4268 53.7524 88.9916 53.9421 88.5675 54.076C88.1434 54.2322 87.7751 54.3104 87.4626 54.3104C86.3243 54.3104 85.398 53.9979 84.6838 53.3729C83.9695 52.748 83.6124 51.6766 83.6124 50.1588C83.6124 49.6008 83.6124 48.9759 83.6124 48.2839C83.6347 47.5697 83.657 46.8889 83.6794 46.2416C83.7017 45.5943 83.7128 45.014 83.7128 44.5007C83.7352 43.965 83.7463 43.5855 83.7463 43.3623C83.7463 43.0275 83.724 42.7374 83.6794 42.4918C83.657 42.224 83.6124 42.0343 83.5454 41.9227C83.5008 41.8557 83.2999 41.7999 82.9428 41.7553C82.5857 41.7106 82.2397 41.6883 81.9049 41.6883C81.8603 41.6883 81.8268 41.6437 81.8045 41.5544C81.7822 41.4428 81.771 41.32 81.771 41.1861C81.771 41.1192 81.771 41.0299 81.771 40.9183C81.7933 40.7844 81.8268 40.7062 81.8714 40.6839C83.1437 40.6393 84.1704 40.5835 84.9516 40.5165C85.7328 40.4496 86.235 40.4161 86.4582 40.4161C86.5252 40.5277 86.5475 40.6058 86.5252 40.6504C86.4582 41.0745 86.3913 41.6214 86.3243 42.291C86.2573 42.9383 86.2015 43.6637 86.1569 44.4672C86.1123 45.2484 86.0788 46.0854 86.0565 46.9782C86.0341 47.8487 86.023 48.7192 86.023 49.5897C86.023 49.8352 86.0565 50.1365 86.1234 50.4936C86.1904 50.8507 86.3801 51.1967 86.6926 51.5315C86.9158 51.777 87.2059 52.0002 87.5631 52.2011C87.9425 52.3797 88.4559 52.469 89.1032 52.469C89.2594 52.469 89.4826 52.4132 89.7728 52.3016C90.0629 52.19 90.3642 52.056 90.6767 51.8998C91.0115 51.7435 91.324 51.5761 91.6142 51.3976C91.9043 51.1967 92.1387 51.007 92.3173 50.8284C92.3173 50.449 92.3173 49.9245 92.3173 49.2549C92.3173 48.5852 92.3173 47.8598 92.3173 47.0786C92.3396 46.2974 92.3507 45.5051 92.3507 44.7015C92.3731 43.898 92.3842 43.1726 92.3842 42.5253C92.3842 42.3244 92.3619 42.1682 92.3173 42.0566C92.2949 41.945 92.2168 41.8557 92.0829 41.7888C91.949 41.7218 91.7481 41.666 91.4803 41.6214C91.2347 41.5767 90.8888 41.5321 90.4424 41.4874C90.3977 41.4651 90.3642 41.4093 90.3419 41.32C90.3419 41.2084 90.3419 41.0857 90.3419 40.9518C90.3419 40.7509 90.3754 40.6281 90.4424 40.5835C90.8218 40.5835 91.2236 40.5835 91.6477 40.5835C92.0717 40.5612 92.4847 40.55 92.8864 40.55C93.3105 40.5277 93.6899 40.5054 94.0248 40.483C94.3819 40.4384 94.6832 40.3938 94.9287 40.3491L95.0626 40.483C95.0403 40.7286 95.0068 41.1303 94.9622 41.6883C94.9399 42.2463 94.9064 42.9048 94.8618 43.6637C94.8394 44.4002 94.8171 45.2149 94.7948 46.1077C94.7725 46.9782 94.7613 47.8598 94.7613 48.7526C94.7613 49.6678 94.7725 50.382 94.7948 50.8954C94.8171 51.3864 94.8506 51.7659 94.8952 52.0337C94.9622 52.2792 95.0403 52.4355 95.1296 52.5024C95.2412 52.5471 95.364 52.5694 95.4979 52.5694C95.9889 52.5694 96.3572 52.5024 96.6027 52.3685C96.8706 52.2346 97.0491 52.1676 97.1384 52.1676ZM107.951 53.4734C107.951 53.1832 108.007 53.0381 108.118 53.0381C108.342 53.0381 108.587 53.027 108.855 53.0046C109.123 52.9823 109.279 52.9488 109.324 52.9042C109.368 52.8596 109.402 52.6587 109.424 52.3016C109.469 51.9444 109.502 51.3529 109.525 50.5271L109.658 45.3711C109.658 44.9024 109.58 44.4672 109.424 44.0654C109.268 43.6413 109.045 43.2731 108.754 42.9606C108.487 42.6481 108.141 42.4026 107.717 42.224C107.315 42.0231 106.868 41.9227 106.377 41.9227C106.221 41.9227 106.009 41.9785 105.741 42.0901C105.473 42.2017 105.183 42.3468 104.871 42.5253C104.581 42.6816 104.29 42.8601 104 43.061C103.71 43.2619 103.476 43.4405 103.297 43.5967V49.9579C103.297 50.5606 103.297 51.0516 103.297 51.4311C103.297 51.7882 103.308 52.0672 103.331 52.2681C103.353 52.4466 103.364 52.5806 103.364 52.6698C103.386 52.7368 103.42 52.7814 103.465 52.8038C103.532 52.8707 103.71 52.9265 104 52.9712C104.313 52.9935 104.67 53.0046 105.072 53.0046C105.161 53.0046 105.206 53.1497 105.206 53.4399C105.206 53.8193 105.15 54.009 105.038 54.009C104.949 54.009 104.793 53.9979 104.569 53.9756C104.346 53.9756 104.09 53.9644 103.799 53.9421C103.509 53.9198 103.208 53.8974 102.895 53.8751C102.583 53.8751 102.304 53.8751 102.058 53.8751C101.813 53.8751 101.534 53.8751 101.221 53.8751C100.931 53.8974 100.641 53.9198 100.351 53.9421C100.061 53.9644 99.7929 53.9756 99.5474 53.9756C99.3242 53.9979 99.168 54.009 99.0787 54.009C99.0341 54.009 98.9894 53.9532 98.9448 53.8416C98.9225 53.73 98.9113 53.6184 98.9113 53.5068C98.9113 53.172 98.9559 53.0046 99.0452 53.0046C99.3577 53.0046 99.6925 52.9935 100.05 52.9712C100.407 52.9265 100.608 52.8707 100.652 52.8038C100.675 52.7591 100.697 52.6364 100.719 52.4355C100.764 52.2346 100.786 51.9221 100.786 51.498C100.809 51.0516 100.82 50.4825 100.82 49.7905C100.842 49.0763 100.853 48.2058 100.853 47.1791C100.853 46.4425 100.842 45.8399 100.82 45.3711C100.82 44.9024 100.809 44.523 100.786 44.2328C100.786 43.9203 100.775 43.6637 100.753 43.4628C100.73 43.2619 100.708 43.0722 100.686 42.8936L99.3465 42.224C99.2349 42.1794 99.168 42.1459 99.1457 42.1236C99.1233 42.0789 99.1122 41.9673 99.1122 41.7888C99.1122 41.6325 99.168 41.5432 99.2796 41.5209C99.4805 41.454 99.7371 41.3647 100.05 41.2531C100.384 41.1192 100.719 40.9852 101.054 40.8513C101.389 40.6951 101.712 40.5277 102.025 40.3491C102.36 40.1706 102.639 40.0032 102.862 39.8469C102.929 39.8469 103.007 39.8692 103.096 39.9139C103.186 39.9362 103.23 39.9697 103.23 40.0143C103.23 40.0813 103.219 40.2152 103.197 40.4161C103.174 40.5946 103.163 40.7844 103.163 40.9852C103.163 41.2977 103.141 41.6437 103.096 42.0231C103.074 42.4026 103.052 42.6592 103.029 42.7932C103.029 42.8378 103.041 42.8713 103.063 42.8936C103.107 42.9159 103.152 42.9048 103.197 42.8601C103.911 42.0566 104.703 41.4093 105.574 40.9183C106.444 40.4049 107.259 40.1482 108.018 40.1482C108.821 40.1482 109.536 40.3714 110.161 40.8178C110.808 41.2642 111.288 41.9896 111.6 42.9941C111.645 43.128 111.745 43.1057 111.902 42.9271C112.616 41.9673 113.352 41.2866 114.111 40.8848C114.87 40.4607 115.64 40.2487 116.421 40.2487C117.002 40.2487 117.549 40.3603 118.062 40.5835C118.598 40.7844 119.066 41.0968 119.468 41.5209C119.87 41.9227 120.182 42.4472 120.406 43.0945C120.651 43.7195 120.774 44.4449 120.774 45.2707L120.673 50.5271C120.673 51.3753 120.673 51.9667 120.673 52.3016C120.696 52.614 120.729 52.7926 120.774 52.8372C120.819 52.8819 121.031 52.9265 121.41 52.9712C121.789 52.9935 122.18 53.0046 122.582 53.0046C122.738 53.0046 122.816 53.1051 122.816 53.306C122.816 53.4845 122.805 53.6519 122.783 53.8082C122.76 53.9421 122.705 54.009 122.615 54.009C122.526 54.009 122.314 53.9979 121.979 53.9756C121.667 53.9756 121.332 53.9644 120.975 53.9421C120.618 53.9198 120.283 53.8974 119.97 53.8751C119.68 53.8751 119.524 53.8751 119.502 53.8751C119.345 53.8751 119.122 53.8863 118.832 53.9086C118.564 53.9309 118.285 53.9421 117.995 53.9421C117.705 53.9644 117.448 53.9867 117.225 54.009C117.002 54.0314 116.879 54.0425 116.857 54.0425C116.79 54.0425 116.745 53.9756 116.723 53.8416C116.7 53.7077 116.689 53.585 116.689 53.4734C116.689 53.1832 116.745 53.0381 116.857 53.0381C117.08 53.0381 117.314 53.027 117.56 53.0046C117.828 52.9823 117.984 52.9488 118.028 52.9042C118.073 52.8596 118.107 52.6587 118.129 52.3016C118.174 51.9444 118.207 51.3529 118.229 50.5271L118.33 46.0408C118.33 45.3935 118.241 44.8243 118.062 44.3333C117.883 43.8422 117.627 43.4293 117.292 43.0945C116.957 42.7597 116.567 42.5142 116.12 42.3579C115.696 42.1794 115.238 42.0901 114.747 42.0901C114.524 42.0901 114.256 42.1682 113.944 42.3244C113.631 42.4807 113.33 42.6704 113.04 42.8936C112.772 43.0945 112.538 43.3065 112.337 43.5297C112.136 43.7306 112.036 43.8869 112.036 43.9985L111.935 50.5271C111.935 51.3753 111.935 51.9667 111.935 52.3016C111.957 52.614 111.991 52.7926 112.036 52.8372C112.08 52.8819 112.203 52.9265 112.404 52.9712C112.605 52.9935 112.906 53.0046 113.308 53.0046C113.464 53.0046 113.542 53.1051 113.542 53.306C113.542 53.4845 113.531 53.6519 113.509 53.8082C113.486 53.9421 113.431 54.009 113.341 54.009C113.274 54.009 113.107 53.9979 112.839 53.9756C112.571 53.9756 112.281 53.9644 111.969 53.9421C111.678 53.9198 111.411 53.8974 111.165 53.8751C110.92 53.8751 110.786 53.8751 110.763 53.8751C110.629 53.8751 110.417 53.8863 110.127 53.9086C109.837 53.9309 109.547 53.9421 109.257 53.9421C108.989 53.9644 108.732 53.9867 108.487 54.009C108.263 54.0314 108.141 54.0425 108.118 54.0425C108.051 54.0425 108.007 53.9756 107.984 53.8416C107.962 53.7077 107.951 53.585 107.951 53.4734ZM126.68 48.7526C126.68 48.5071 126.669 48.1054 126.647 47.5474C126.647 46.9894 126.636 46.409 126.613 45.8064C126.591 45.1814 126.569 44.6011 126.546 44.0654C126.524 43.5074 126.502 43.1057 126.479 42.8601C126.323 42.7039 126.055 42.5588 125.676 42.4249C125.296 42.291 125.029 42.224 124.872 42.224C124.761 42.224 124.705 42.1347 124.705 41.9562C124.705 41.7776 124.75 41.6772 124.839 41.6548C125.062 41.5432 125.341 41.4093 125.676 41.2531C126.033 41.0968 126.39 40.9294 126.747 40.7509C127.127 40.55 127.484 40.3603 127.819 40.1817C128.176 40.0032 128.455 39.8469 128.656 39.713C128.723 39.713 128.79 39.7353 128.856 39.7799C128.923 39.8023 128.957 39.8469 128.957 39.9139C128.957 39.9808 128.946 40.0813 128.923 40.2152C128.901 40.3491 128.89 40.6058 128.89 40.9852C128.89 41.1638 128.89 41.4093 128.89 41.7218C128.912 42.0343 128.935 42.2575 128.957 42.3914C129.76 41.7218 130.519 41.2084 131.234 40.8513C131.97 40.4719 132.64 40.2822 133.242 40.2822C134.046 40.2822 134.794 40.4272 135.486 40.7174C136.2 41.0076 136.814 41.4316 137.327 41.9896C137.863 42.5476 138.276 43.2284 138.566 44.0319C138.878 44.8131 139.034 45.7059 139.034 46.7104C139.034 47.3576 138.967 47.9938 138.834 48.6187C138.722 49.2437 138.51 49.8352 138.197 50.3932C137.885 50.9512 137.461 51.4757 136.925 51.9667C136.412 52.4355 135.765 52.8596 134.983 53.239C134.314 53.5515 133.711 53.7635 133.175 53.8751C132.662 53.9644 132.171 54.009 131.702 54.009C131.189 54.009 130.709 53.9867 130.263 53.9421C129.816 53.8974 129.437 53.8528 129.124 53.8082V59.935C129.124 60.4707 129.147 60.8836 129.191 61.1738C129.258 61.464 129.336 61.676 129.426 61.8099C129.537 61.9439 129.66 62.022 129.794 62.0443C129.95 62.0666 130.129 62.0778 130.33 62.0778L131.702 62.1113C131.747 62.1113 131.78 62.1782 131.803 62.3121C131.847 62.4461 131.87 62.5465 131.87 62.6135C131.87 62.7474 131.847 62.8701 131.803 62.9817C131.78 63.1157 131.747 63.1826 131.702 63.1826C131.546 63.1826 131.323 63.1715 131.033 63.1491C130.765 63.1491 130.464 63.138 130.129 63.1157C129.794 63.0933 129.459 63.071 129.124 63.0487C128.812 63.0487 128.522 63.0487 128.254 63.0487C127.316 63.0487 126.591 63.071 126.078 63.1157C125.564 63.1603 125.263 63.1826 125.174 63.1826C125.129 63.1826 125.096 63.071 125.073 62.8478C125.073 62.6469 125.073 62.4795 125.073 62.3456C125.073 62.2787 125.084 62.234 125.107 62.2117C125.151 62.1894 125.263 62.1671 125.441 62.1447C125.776 62.1001 126.022 62.0443 126.178 61.9773C126.334 61.9327 126.435 61.8769 126.479 61.8099C126.524 61.6983 126.569 61.4193 126.613 60.9729C126.658 60.5265 126.68 60.0466 126.68 59.5333V48.7526ZM129.124 51.6319C129.437 51.9667 129.917 52.2681 130.564 52.5359C131.234 52.7814 131.892 52.9042 132.539 52.9042C133.03 52.9042 133.51 52.7703 133.979 52.5024C134.448 52.2123 134.861 51.8217 135.218 51.3306C135.597 50.8173 135.898 50.2258 136.122 49.5562C136.367 48.8642 136.49 48.1165 136.49 47.313C136.49 46.5095 136.356 45.7841 136.088 45.1368C135.843 44.4895 135.508 43.9427 135.084 43.4963C134.66 43.0499 134.169 42.7039 133.611 42.4584C133.075 42.2128 132.517 42.0901 131.937 42.0901C131.557 42.0901 131.066 42.1905 130.464 42.3914C129.861 42.5923 129.381 42.8155 129.024 43.061C129.024 43.2396 129.024 43.5521 129.024 43.9985C129.046 44.4449 129.057 44.9471 129.057 45.5051C129.08 46.0408 129.091 46.6211 129.091 47.246C129.113 47.8487 129.124 48.4067 129.124 48.92V51.6319ZM158.699 31.9791C158.722 32.1799 158.811 32.5259 158.967 33.0169C159.123 33.4857 159.324 34.0772 159.57 34.7914C159.815 35.4833 160.106 36.2757 160.44 37.1685C160.775 38.0613 161.143 39.0211 161.545 40.0478L164.625 47.9156C164.96 48.8084 165.239 49.5339 165.462 50.0919C165.686 50.6499 165.875 51.0963 166.032 51.4311C166.21 51.7659 166.355 52.0226 166.467 52.2011C166.601 52.3797 166.757 52.5359 166.936 52.6698C167.092 52.8038 167.315 52.893 167.605 52.9377C167.895 52.9823 168.241 53.0046 168.643 53.0046C168.732 53.0046 168.777 53.1609 168.777 53.4734C168.777 53.6966 168.755 53.8416 168.71 53.9086C168.665 53.9756 168.576 54.009 168.442 54.009C168.174 54.009 167.873 53.9979 167.538 53.9756C167.226 53.9756 166.913 53.9644 166.601 53.9421C166.288 53.9198 165.987 53.8974 165.697 53.8751C165.429 53.8751 165.206 53.8751 165.027 53.8751C164.804 53.8751 164.503 53.8863 164.123 53.9086C163.744 53.9309 163.364 53.9421 162.985 53.9421C162.628 53.9644 162.304 53.9867 162.014 54.009C161.746 54.0314 161.601 54.0425 161.579 54.0425C161.467 54.0425 161.411 53.8863 161.411 53.5738C161.411 53.1944 161.467 53.0046 161.579 53.0046L162.516 52.9377C162.829 52.9154 163.041 52.8819 163.152 52.8372C163.264 52.7926 163.32 52.6698 163.32 52.469C163.32 52.3127 163.197 51.8886 162.951 51.1967C162.706 50.5048 162.416 49.7347 162.081 48.8866C161.925 48.4848 161.791 48.1612 161.679 47.9156C161.59 47.6701 161.512 47.4804 161.445 47.3465C161.378 47.1902 161.322 47.0786 161.277 47.0117C161.255 46.9224 161.233 46.8554 161.21 46.8108C161.166 46.7215 161.076 46.6769 160.943 46.6769L153.577 46.7104C153.443 46.7104 153.343 46.7885 153.276 46.9447L152.706 48.3509C152.439 48.9982 152.227 49.5562 152.07 50.0249C151.914 50.4713 151.78 50.8507 151.669 51.1632C151.579 51.4534 151.512 51.6989 151.468 51.8998C151.445 52.0784 151.434 52.2234 151.434 52.335C151.434 52.6029 151.523 52.7703 151.702 52.8372C151.881 52.9042 152.126 52.9377 152.439 52.9377H153.443C153.555 52.9377 153.61 53.027 153.61 53.2055C153.633 53.3618 153.644 53.518 153.644 53.6742C153.644 53.8974 153.465 54.009 153.108 54.009C152.997 54.009 152.796 53.9979 152.506 53.9756C152.238 53.9756 151.936 53.9644 151.602 53.9421C151.289 53.9421 150.988 53.9309 150.698 53.9086C150.407 53.9086 150.195 53.9086 150.061 53.9086C149.861 53.9086 149.615 53.9086 149.325 53.9086C149.057 53.9309 148.789 53.9421 148.521 53.9421C148.276 53.9644 148.042 53.9756 147.818 53.9756C147.617 53.9979 147.484 54.009 147.417 54.009C147.305 54.009 147.227 53.9867 147.182 53.9421C147.16 53.9198 147.149 53.8416 147.149 53.7077C147.149 53.5961 147.16 53.4622 147.182 53.306C147.227 53.1274 147.271 53.0381 147.316 53.0381C147.74 53.0158 148.097 52.96 148.387 52.8707C148.7 52.7591 148.99 52.5359 149.258 52.2011C149.548 51.844 149.838 51.3529 150.128 50.728C150.441 50.0807 150.832 49.2102 151.3 48.1165L155.619 37.9385C155.909 37.2689 156.166 36.6216 156.389 35.9967C156.635 35.3494 156.847 34.7691 157.025 34.2557C157.204 33.72 157.349 33.2625 157.461 32.883C157.595 32.4813 157.684 32.1799 157.728 31.9791H158.699ZM157.394 36.5324L154.113 44.7015C154.09 44.8355 154.135 44.9359 154.247 45.0029C154.425 45.0475 154.805 45.0921 155.385 45.1368C155.987 45.1591 157.014 45.1703 158.465 45.1703H160.507C160.619 45.1703 160.652 45.1145 160.608 45.0029L159.202 41.2196C159.068 40.8848 158.923 40.5054 158.766 40.0813C158.61 39.6349 158.454 39.1996 158.298 38.7755C158.141 38.3291 157.996 37.9162 157.862 37.5368C157.728 37.135 157.617 36.8002 157.528 36.5324H157.394ZM179.662 53.4734C179.662 53.1832 179.717 53.0381 179.829 53.0381C180.052 53.0381 180.275 53.027 180.499 53.0046C180.722 52.9823 180.856 52.9488 180.9 52.9042C180.923 52.8819 180.945 52.7926 180.967 52.6364C181.012 52.4801 181.046 52.1676 181.068 51.6989C181.112 51.2302 181.146 50.5717 181.168 49.7236C181.213 48.8754 181.235 47.7482 181.235 46.3421C181.235 45.4269 181.124 44.6904 180.9 44.1324C180.677 43.5521 180.387 43.1168 180.03 42.8267C179.695 42.5142 179.316 42.3133 178.892 42.224C178.468 42.1124 178.043 42.0566 177.619 42.0566C177.463 42.0566 177.24 42.1124 176.95 42.224C176.682 42.3356 176.392 42.4807 176.079 42.6592C175.789 42.8155 175.499 42.9941 175.209 43.1949C174.941 43.3735 174.729 43.5409 174.573 43.6971V49.9579C174.573 50.5606 174.573 51.0516 174.573 51.4311C174.573 51.7882 174.584 52.0672 174.606 52.2681C174.628 52.4466 174.64 52.5806 174.64 52.6698C174.662 52.7368 174.695 52.7814 174.74 52.8038C174.807 52.8707 174.986 52.9265 175.276 52.9712C175.588 53.0158 175.957 53.0381 176.381 53.0381C176.47 53.0381 176.515 53.172 176.515 53.4399C176.515 53.8193 176.459 54.009 176.347 54.009C176.258 54.009 176.09 53.9979 175.845 53.9756C175.622 53.9756 175.365 53.9644 175.075 53.9421C174.785 53.9198 174.483 53.8974 174.171 53.8751C173.858 53.8751 173.591 53.8751 173.367 53.8751C173.122 53.8751 172.843 53.8751 172.53 53.8751C172.218 53.8974 171.917 53.9198 171.626 53.9421C171.336 53.9644 171.08 53.9756 170.856 53.9756C170.633 53.9979 170.477 54.009 170.388 54.009C170.343 54.009 170.298 53.9532 170.254 53.8416C170.231 53.73 170.22 53.6184 170.22 53.5068C170.22 53.1944 170.265 53.0381 170.354 53.0381C170.667 53.0381 170.99 53.0158 171.325 52.9712C171.682 52.9265 171.883 52.8707 171.928 52.8038C171.95 52.7591 171.972 52.6364 171.995 52.4355C172.039 52.2346 172.062 51.9221 172.062 51.498C172.084 51.0516 172.095 50.4825 172.095 49.7905C172.117 49.0986 172.129 48.2281 172.129 47.1791V35.2936C172.129 34.7133 172.106 34.1888 172.062 33.72C172.039 33.229 172.006 32.883 171.961 32.6821L170.254 32.6152C170.12 32.6152 170.053 32.4478 170.053 32.113C170.053 31.9567 170.097 31.8675 170.187 31.8451C170.455 31.7782 170.767 31.7001 171.124 31.6108C171.504 31.5215 171.883 31.4099 172.263 31.276C172.664 31.1421 173.055 31.0081 173.434 30.8742C173.814 30.718 174.137 30.5617 174.405 30.4055C174.472 30.4055 174.539 30.4278 174.606 30.4724C174.673 30.4948 174.707 30.5283 174.707 30.5729C174.707 30.6175 174.695 30.6957 174.673 30.8073C174.651 30.8965 174.628 31.0974 174.606 31.4099C174.606 31.7001 174.595 32.1241 174.573 32.6821C174.55 33.2178 174.539 33.9321 174.539 34.8249V42.9271C175.521 41.9004 176.369 41.1973 177.084 40.8178C177.82 40.4384 178.512 40.2487 179.159 40.2487C179.695 40.2487 180.242 40.338 180.8 40.5165C181.38 40.6728 181.883 40.9741 182.307 41.4205C182.753 41.8669 183.11 42.4918 183.378 43.2954C183.646 44.0766 183.746 45.081 183.679 46.3086L183.545 52.2011C183.545 52.402 183.568 52.5471 183.612 52.6364C183.657 52.7256 183.702 52.7926 183.746 52.8372C183.791 52.8819 184.003 52.9265 184.382 52.9712C184.762 52.9935 185.141 53.0046 185.521 53.0046C185.677 53.0046 185.755 53.1051 185.755 53.306C185.755 53.4845 185.744 53.6519 185.722 53.8082C185.699 53.9421 185.643 54.009 185.554 54.009C185.487 54.009 185.286 53.9979 184.952 53.9756C184.639 53.9756 184.293 53.9644 183.914 53.9421C183.557 53.9198 183.222 53.8974 182.909 53.8751C182.619 53.8751 182.463 53.8751 182.441 53.8751C182.307 53.8751 182.095 53.8863 181.804 53.9086C181.537 53.9309 181.258 53.9532 180.967 53.9756C180.677 53.9979 180.421 54.0202 180.197 54.0425C179.974 54.0648 179.851 54.076 179.829 54.076C179.762 54.076 179.717 54.009 179.695 53.8751C179.673 53.7189 179.662 53.585 179.662 53.4734ZM198.627 51.0628C198.672 51.0628 198.727 51.0851 198.794 51.1297C198.861 51.1744 198.917 51.219 198.962 51.2637C199.029 51.3753 199.04 51.5203 198.995 51.6989C198.75 51.9891 198.415 52.2904 197.991 52.6029C197.589 52.893 197.154 53.172 196.685 53.4399C196.239 53.6854 195.77 53.8863 195.279 54.0425C194.81 54.2211 194.386 54.3104 194.007 54.3104C192.935 54.3104 191.998 54.1318 191.194 53.7747C190.413 53.3952 189.766 52.9042 189.252 52.3016C188.761 51.6989 188.393 51.007 188.148 50.2258C187.902 49.4446 187.779 48.641 187.779 47.8152C187.779 46.476 188.069 45.2037 188.65 43.9985C189.23 42.7932 190.145 41.8669 191.395 41.2196C191.663 41.0857 191.953 40.9629 192.266 40.8513C192.578 40.7397 192.891 40.6393 193.203 40.55C193.516 40.4384 193.817 40.3603 194.107 40.3156C194.397 40.2487 194.643 40.2152 194.844 40.2152C195.469 40.2152 196.038 40.3603 196.551 40.6504C197.064 40.9183 197.5 41.2866 197.857 41.7553C198.236 42.224 198.515 42.7597 198.694 43.3623C198.895 43.965 198.995 44.5899 198.995 45.2372C198.995 45.572 198.962 45.7841 198.895 45.8733C198.828 45.9626 198.616 46.0296 198.259 46.0742C198.147 46.0966 197.89 46.1189 197.489 46.1412C197.087 46.1635 196.607 46.197 196.049 46.2416C195.513 46.2863 194.922 46.3309 194.274 46.3756C193.649 46.4202 193.058 46.4648 192.5 46.5095C191.942 46.5541 191.462 46.5988 191.06 46.6434C190.659 46.6657 190.402 46.6769 190.29 46.6769V46.9112C190.29 48.6968 190.781 50.0919 191.763 51.0963C192.768 52.0784 194.085 52.5694 195.714 52.5694C195.915 52.5694 196.149 52.5248 196.417 52.4355C196.707 52.3239 196.986 52.19 197.254 52.0337C197.544 51.8775 197.812 51.7101 198.058 51.5315C198.303 51.3529 198.493 51.1967 198.627 51.0628ZM190.357 45.2037C190.357 45.3153 190.424 45.3711 190.558 45.3711H196.384C196.562 45.3711 196.652 45.3042 196.652 45.1703C196.652 44.7462 196.573 44.3221 196.417 43.898C196.283 43.4516 196.071 43.0499 195.781 42.6927C195.513 42.3356 195.178 42.0454 194.777 41.8222C194.375 41.5767 193.928 41.454 193.437 41.454C192.991 41.454 192.578 41.599 192.199 41.8892C191.842 42.157 191.518 42.4918 191.228 42.8936C190.96 43.2954 190.748 43.7083 190.592 44.1324C190.435 44.5565 190.357 44.9136 190.357 45.2037ZM203.755 44.1659C203.644 44.1659 203.421 44.0877 203.086 43.9315C202.773 43.7529 202.494 43.5632 202.249 43.3623C202.093 43.2061 202.014 43.0833 202.014 42.9941C202.014 42.6816 202.081 42.4249 202.215 42.224C202.305 42.1124 202.55 41.945 202.952 41.7218C203.376 41.4986 203.867 41.2754 204.425 41.0522C204.983 40.829 205.563 40.6393 206.166 40.483C206.791 40.3045 207.36 40.2152 207.873 40.2152C208.208 40.2152 208.599 40.3156 209.045 40.5165C209.514 40.6951 209.905 40.9406 210.217 41.2531C210.708 41.7441 211.032 42.2352 211.188 42.7262C211.344 43.2173 211.422 43.7529 211.422 44.3333C211.422 44.6011 211.411 45.014 211.389 45.572C211.367 46.1077 211.333 46.6992 211.288 47.3465C211.266 47.9714 211.244 48.5852 211.221 49.1879C211.199 49.7905 211.188 50.2704 211.188 50.6275C211.188 51.0516 211.244 51.4087 211.355 51.6989C211.467 51.9667 211.601 52.19 211.757 52.3685C211.913 52.5248 212.07 52.6475 212.226 52.7368C212.404 52.8038 212.55 52.8372 212.661 52.8372C212.75 52.8372 212.851 52.8149 212.962 52.7703C213.096 52.7033 213.219 52.6364 213.331 52.5694C213.442 52.4801 213.543 52.4132 213.632 52.3685C213.744 52.3016 213.811 52.2681 213.833 52.2681C213.945 52.2681 214 52.335 214 52.469C214 52.7814 213.956 53.0046 213.866 53.1386C213.732 53.2055 213.52 53.3171 213.23 53.4734C212.94 53.6073 212.628 53.7412 212.293 53.8751C211.98 54.009 211.679 54.1206 211.389 54.2099C211.121 54.3215 210.931 54.3773 210.82 54.3773C210.663 54.3773 210.485 54.3215 210.284 54.2099C210.083 54.0983 209.882 53.9532 209.681 53.7747C209.503 53.5738 209.335 53.3394 209.179 53.0716C209.045 52.8038 208.956 52.5136 208.911 52.2011C208.398 52.6698 207.94 53.0493 207.539 53.3394C207.159 53.6073 206.802 53.8082 206.467 53.9421C206.155 54.076 205.865 54.1653 205.597 54.2099C205.329 54.2546 205.083 54.2769 204.86 54.2769C204.258 54.2769 203.733 54.1764 203.287 53.9756C202.863 53.7747 202.494 53.4957 202.182 53.1386C201.892 52.7814 201.668 52.3797 201.512 51.9333C201.378 51.4645 201.311 50.9735 201.311 50.4601C201.311 49.9691 201.546 49.5115 202.014 49.0875C202.505 48.641 203.108 48.2616 203.822 47.9491C204.559 47.6143 205.362 47.3465 206.233 47.1456C207.103 46.9224 207.929 46.7773 208.71 46.7104C208.755 46.7104 208.8 46.6992 208.844 46.6769C208.889 46.6322 208.911 46.5541 208.911 46.4425L208.945 45.1703C208.989 43.965 208.71 43.0275 208.108 42.3579C207.505 41.666 206.735 41.32 205.798 41.32C205.53 41.32 205.284 41.4205 205.061 41.6214C204.838 41.7999 204.648 42.0343 204.492 42.3244C204.358 42.5923 204.246 42.8825 204.157 43.1949C204.09 43.5074 204.057 43.7864 204.057 44.0319C204.057 44.0766 204.012 44.1101 203.923 44.1324C203.856 44.1547 203.8 44.1659 203.755 44.1659ZM208.911 48.217C208.911 48.1723 208.889 48.1165 208.844 48.0496C208.822 47.9826 208.789 47.9491 208.744 47.9491C208.655 47.9268 208.498 47.9156 208.275 47.9156C208.052 47.8933 207.829 47.8822 207.606 47.8822C206.333 47.8822 205.362 48.0719 204.693 48.4513C204.046 48.8308 203.722 49.2214 203.722 49.6231C203.722 50.4713 203.979 51.1967 204.492 51.7993C205.005 52.402 205.653 52.7033 206.434 52.7033C206.679 52.7033 207.048 52.5917 207.539 52.3685C208.03 52.123 208.454 51.8328 208.811 51.498L208.911 48.217ZM230.037 52.1342C230.082 52.1342 230.126 52.1565 230.171 52.2011C230.238 52.2234 230.271 52.2569 230.271 52.3016C230.271 52.4801 230.26 52.6698 230.238 52.8707C230.238 53.0493 230.204 53.1497 230.138 53.172C229.446 53.3506 228.72 53.5403 227.961 53.7412C227.202 53.9421 226.399 54.2657 225.551 54.7121C225.484 54.7121 225.428 54.6898 225.383 54.6452C225.361 54.6005 225.35 54.5559 225.35 54.5112C225.35 54.4666 225.383 54.3996 225.45 54.3104C225.517 54.2211 225.584 54.1318 225.651 54.0425C225.562 53.6631 225.495 53.3618 225.45 53.1386C225.428 52.893 225.406 52.614 225.383 52.3016C225.093 52.5024 224.758 52.7256 224.379 52.9712C223.999 53.1944 223.609 53.3952 223.207 53.5738C222.805 53.7524 222.392 53.8974 221.968 54.009C221.567 54.143 221.198 54.2099 220.864 54.2099C220.261 54.2099 219.636 54.076 218.989 53.8082C218.341 53.5403 217.75 53.1497 217.214 52.6364C216.701 52.123 216.277 51.4869 215.942 50.728C215.607 49.9468 215.44 49.054 215.44 48.0496C215.44 46.7104 215.685 45.5051 216.176 44.4337C216.69 43.34 217.571 42.3691 218.821 41.5209C219.535 41.0299 220.261 40.7062 220.997 40.55C221.756 40.3714 222.381 40.2822 222.872 40.2822C223.185 40.2822 223.486 40.2933 223.776 40.3156C224.066 40.338 224.334 40.3714 224.58 40.4161C224.915 40.483 225.115 40.5165 225.182 40.5165C225.249 40.5165 225.283 40.4719 225.283 40.3826V33.0504C225.283 32.8719 225.205 32.7603 225.049 32.7156C224.915 32.671 224.747 32.6487 224.546 32.6487H223.241C223.129 32.6487 223.073 32.4924 223.073 32.1799C223.073 31.9567 223.118 31.834 223.207 31.8117C223.542 31.7447 223.921 31.6666 224.345 31.5773C224.77 31.4657 225.182 31.3429 225.584 31.209C226.008 31.0751 226.421 30.9412 226.823 30.8073C227.225 30.651 227.582 30.4948 227.894 30.3385C227.961 30.3385 228.028 30.3832 228.095 30.4724C228.162 30.5617 228.185 30.651 228.162 30.7403L227.928 30.9747C227.861 31.3541 227.805 31.7224 227.76 32.0795C227.716 32.4366 227.682 32.8942 227.66 33.4522C227.638 33.9879 227.627 34.6798 227.627 35.528C227.627 36.3538 227.627 37.4252 227.627 38.7421V44.7015C227.627 45.5943 227.627 46.4648 227.627 47.313C227.649 48.1388 227.671 48.8977 227.693 49.5897C227.738 50.2593 227.783 50.8284 227.827 51.2971C227.872 51.7659 227.928 52.0784 227.995 52.2346C228.039 52.3239 228.084 52.402 228.129 52.469C228.173 52.5359 228.274 52.5694 228.43 52.5694C228.765 52.5694 229.1 52.5024 229.434 52.3685C229.792 52.2123 229.992 52.1342 230.037 52.1342ZM225.35 51.5315C225.35 51.3976 225.339 51.1521 225.316 50.7949C225.316 50.4155 225.305 49.9914 225.283 49.5227C225.283 49.054 225.283 48.5629 225.283 48.0496C225.283 47.5362 225.283 47.0563 225.283 46.6099C225.283 45.6501 225.272 44.8801 225.249 44.2998C225.249 43.7195 225.238 43.2619 225.216 42.9271C224.97 42.6146 224.58 42.3133 224.044 42.0231C223.508 41.7106 222.828 41.5544 222.002 41.5544C221.332 41.5544 220.741 41.6995 220.227 41.9896C219.714 42.2798 219.279 42.6704 218.922 43.1615C218.565 43.6302 218.297 44.177 218.118 44.802C217.94 45.4269 217.85 46.0742 217.85 46.7438C217.85 47.592 217.973 48.3732 218.219 49.0875C218.464 49.7794 218.788 50.382 219.189 50.8954C219.614 51.4087 220.116 51.8105 220.696 52.1007C221.276 52.3685 221.901 52.5024 222.571 52.5024C222.973 52.5024 223.441 52.4132 223.977 52.2346C224.513 52.0337 224.97 51.7993 225.35 51.5315Z" fill="black"/>
</svg>
