<svg width="647" height="138" viewBox="0 0 647 138" fill="none" xmlns="http://www.w3.org/2000/svg">
<path d="M136.857 1.17334V136.643H33.4805L1.3877 104.55V1.17334H136.857Z" stroke="#FFB84D" stroke-width="0.839726"/>
<path d="M151.767 136.563V1.25305H613.801L645.847 33.299V136.563H151.767Z" stroke="#FFB84D"/>
<path opacity="0.8" d="M195.865 78.0574C195.865 77.6499 195.913 77.4462 196.009 77.4462C196.392 77.3983 196.728 77.3623 197.015 77.3384C197.303 77.3144 197.531 77.2185 197.698 77.0507C197.794 76.9549 197.878 76.7751 197.95 76.5115C198.022 76.2478 198.07 75.7565 198.094 75.0374C198.118 74.3184 198.13 73.2997 198.13 71.9814C198.154 70.6632 198.166 68.9015 198.166 66.6964C198.166 64.6831 198.154 63.0652 198.13 61.8428C198.106 60.6205 198.07 59.6737 198.022 59.0026C197.998 58.3075 197.95 57.8282 197.878 57.5645C197.806 57.3009 197.722 57.1211 197.626 57.0252C197.555 56.9533 197.399 56.8814 197.159 56.8095C196.919 56.7136 196.656 56.6417 196.368 56.5938C196.081 56.5219 195.781 56.4739 195.469 56.45C195.182 56.402 194.954 56.3781 194.786 56.3781C194.69 56.3781 194.642 56.2582 194.642 56.0185C194.642 55.8747 194.654 55.7908 194.678 55.7669C194.702 55.7189 194.738 55.683 194.786 55.659C195.218 55.6351 195.745 55.6111 196.368 55.5871C197.015 55.5392 197.65 55.5032 198.274 55.4793C198.921 55.4313 199.52 55.4074 200.071 55.4074C200.647 55.3834 201.09 55.3714 201.402 55.3714C202.528 55.3714 203.487 55.3954 204.278 55.4433C205.069 55.4912 205.74 55.5631 206.291 55.659C206.866 55.7309 207.346 55.8388 207.729 55.9826C208.113 56.1264 208.472 56.2942 208.808 56.4859C209.623 56.9413 210.21 57.5166 210.569 58.2116C210.953 58.8828 211.145 59.6258 211.145 60.4407C211.145 60.8961 211.085 61.3515 210.965 61.8069C210.845 62.2623 210.629 62.7177 210.318 63.1731C210.03 63.6285 209.623 64.0839 209.095 64.5393C208.592 64.9707 207.945 65.4021 207.154 65.8336C208.232 66.0493 209.131 66.3609 209.85 66.7683C210.569 67.1518 211.133 67.5952 211.54 68.0986C211.972 68.6019 212.271 69.1532 212.439 69.7524C212.607 70.3276 212.691 70.9149 212.691 71.5141C212.691 72.6645 212.463 73.6832 212.007 74.57C211.552 75.4568 210.929 76.1999 210.138 76.7991C209.347 77.3743 208.424 77.8177 207.37 78.1293C206.315 78.4409 205.188 78.5967 203.99 78.5967C203.726 78.5967 203.379 78.5847 202.947 78.5607C202.54 78.5368 202.109 78.5008 201.653 78.4529C201.222 78.4289 200.79 78.4049 200.359 78.381C199.951 78.357 199.604 78.345 199.316 78.345C198.334 78.345 197.567 78.381 197.015 78.4529C196.488 78.5248 196.176 78.5607 196.081 78.5607C195.937 78.5607 195.865 78.393 195.865 78.0574ZM201.114 65.2943C201.114 65.486 201.138 65.6179 201.186 65.6898C201.258 65.7617 201.39 65.7976 201.581 65.7976H203.918C204.086 65.7976 204.338 65.8096 204.673 65.8336C205.033 65.8336 205.38 65.8216 205.716 65.7976C206.363 65.534 206.95 65.0426 207.477 64.3236C208.029 63.5805 208.304 62.5978 208.304 61.3755C208.304 60.5366 208.125 59.8055 207.765 59.1824C207.406 58.5592 206.902 58.0439 206.255 57.6364C205.632 57.2289 204.877 56.9174 203.99 56.7016C203.127 56.4859 202.168 56.3781 201.114 56.3781V65.2943ZM201.114 73.3836C201.114 74.3903 201.138 75.1333 201.186 75.6126C201.234 76.092 201.378 76.4635 201.617 76.7272C201.833 76.9908 202.192 77.1826 202.696 77.3024C203.223 77.3983 203.798 77.4462 204.422 77.4462C205.045 77.4462 205.656 77.3503 206.255 77.1586C206.878 76.9669 207.43 76.6672 207.909 76.2598C208.388 75.8523 208.772 75.325 209.059 74.6779C209.371 74.0068 209.527 73.2158 209.527 72.305C209.527 71.586 209.419 70.9029 209.203 70.2557C208.987 69.5846 208.568 68.9974 207.945 68.4941C207.346 67.9907 206.495 67.5833 205.392 67.2717C204.29 66.9601 202.864 66.8043 201.114 66.8043V73.3836ZM220.254 63.3529C220.325 63.3768 220.397 63.4128 220.469 63.4607C220.565 63.4847 220.613 63.5206 220.613 63.5686C220.613 63.5925 220.601 63.7004 220.577 63.8921C220.577 64.0599 220.565 64.4194 220.541 64.9707C220.517 65.498 220.493 66.265 220.469 67.2717C220.469 68.2544 220.469 69.5606 220.469 71.1905C220.469 72.293 220.469 73.2278 220.469 73.9948C220.493 74.7378 220.517 75.349 220.541 75.8284C220.565 76.2838 220.589 76.6313 220.613 76.871C220.637 77.0867 220.673 77.2185 220.721 77.2665C220.769 77.3384 220.973 77.3983 221.332 77.4462C221.692 77.4702 222.171 77.4822 222.77 77.4822C222.818 77.4822 222.842 77.5301 222.842 77.626C222.866 77.7219 222.878 77.8177 222.878 77.9136C222.878 78.3211 222.77 78.5248 222.554 78.5248C222.363 78.5248 222.123 78.5128 221.835 78.4888C221.548 78.4649 221.248 78.4409 220.937 78.4169C220.625 78.4169 220.313 78.4049 220.002 78.381C219.69 78.357 219.415 78.345 219.175 78.345C218.983 78.345 218.72 78.357 218.384 78.381C218.048 78.4049 217.701 78.4289 217.341 78.4529C217.006 78.4769 216.682 78.5008 216.371 78.5248C216.083 78.5488 215.879 78.5607 215.759 78.5607C215.664 78.5607 215.616 78.4289 215.616 78.1653C215.616 77.9735 215.628 77.8177 215.652 77.6979C215.7 77.578 215.759 77.5181 215.831 77.5181C216.239 77.5181 216.622 77.4942 216.982 77.4462C217.341 77.3743 217.545 77.3144 217.593 77.2665C217.641 77.2185 217.677 77.1107 217.701 76.9429C217.749 76.7511 217.785 76.4515 217.809 76.0441C217.833 75.6126 217.845 75.0374 217.845 74.3184C217.869 73.5753 217.881 72.6406 217.881 71.5141C217.881 70.6272 217.869 69.9082 217.845 69.3569C217.845 68.8056 217.833 68.3502 217.809 67.9907C217.809 67.6312 217.797 67.3556 217.773 67.1638C217.749 66.9481 217.725 66.7564 217.701 66.5886L216.227 65.8336C216.131 65.7856 216.059 65.7497 216.011 65.7257C215.987 65.6778 215.975 65.5939 215.975 65.474C215.975 65.2344 216.035 65.1025 216.155 65.0786C216.395 65.0067 216.682 64.9228 217.018 64.8269C217.353 64.7071 217.701 64.5752 218.06 64.4314C218.444 64.2876 218.815 64.1318 219.175 63.964C219.558 63.7723 219.918 63.5686 220.254 63.3529ZM217.881 58.4633C217.881 58.0559 218.012 57.7083 218.276 57.4207C218.564 57.1331 218.911 56.9893 219.319 56.9893C219.726 56.9893 220.074 57.1331 220.361 57.4207C220.649 57.7083 220.793 58.0559 220.793 58.4633C220.793 58.8708 220.649 59.2183 220.361 59.5059C220.074 59.7696 219.726 59.9014 219.319 59.9014C218.911 59.9014 218.564 59.7696 218.276 59.5059C218.012 59.2183 217.881 58.8708 217.881 58.4633ZM229.418 53.1064C229.538 53.1064 229.61 53.1543 229.634 53.2502C229.586 53.5858 229.55 54.197 229.526 55.0838C229.502 55.9706 229.49 57.181 229.49 58.715V73.9588C229.49 75.1093 229.502 75.9122 229.526 76.3676C229.55 76.823 229.586 77.0747 229.634 77.1226C229.778 77.3144 230.545 77.4462 231.935 77.5181C231.983 77.614 232.007 77.7458 232.007 77.9136C232.007 77.9855 231.983 78.1053 231.935 78.2731C231.911 78.4409 231.863 78.5248 231.791 78.5248C231.695 78.5248 231.515 78.5128 231.252 78.4888C230.988 78.4649 230.676 78.4409 230.317 78.4169C229.981 78.4169 229.634 78.4049 229.274 78.381C228.915 78.357 228.591 78.345 228.303 78.345C228.112 78.345 227.836 78.357 227.477 78.381C227.117 78.4049 226.746 78.4169 226.362 78.4169C226.003 78.4409 225.655 78.4649 225.319 78.4888C225.008 78.5128 224.816 78.5248 224.744 78.5248C224.648 78.5248 224.588 78.4769 224.564 78.381C224.54 78.2611 224.528 78.1293 224.528 77.9855C224.528 77.7698 224.576 77.614 224.672 77.5181C225.152 77.4702 225.559 77.4342 225.895 77.4103C226.23 77.3863 226.458 77.3144 226.578 77.1946C226.626 77.1226 226.674 76.9908 226.722 76.7991C226.77 76.5834 226.805 76.2718 226.829 75.8643C226.853 75.4329 226.865 74.8936 226.865 74.2464C226.889 73.5993 226.901 72.8083 226.901 71.8736V59.3621C226.901 58.5232 226.877 57.8282 226.829 57.2769C226.782 56.7256 226.698 56.2462 226.578 55.8388H224.6C224.552 55.8388 224.505 55.7908 224.457 55.695C224.433 55.5991 224.421 55.5152 224.421 55.4433C224.421 55.0598 224.481 54.8561 224.6 54.8321C224.888 54.7602 225.272 54.6524 225.751 54.5085C226.254 54.3408 226.746 54.173 227.225 54.0052C227.728 53.8374 228.184 53.6697 228.591 53.5019C228.999 53.3341 229.274 53.2023 229.418 53.1064ZM238.582 53.1064C238.702 53.1064 238.773 53.1543 238.797 53.2502C238.749 53.5858 238.714 54.197 238.69 55.0838C238.666 55.9706 238.654 57.181 238.654 58.715V73.9588C238.654 75.1093 238.666 75.9122 238.69 76.3676C238.714 76.823 238.749 77.0747 238.797 77.1226C238.941 77.3144 239.708 77.4462 241.098 77.5181C241.146 77.614 241.17 77.7458 241.17 77.9136C241.17 77.9855 241.146 78.1053 241.098 78.2731C241.074 78.4409 241.026 78.5248 240.955 78.5248C240.859 78.5248 240.679 78.5128 240.415 78.4888C240.152 78.4649 239.84 78.4409 239.481 78.4169C239.145 78.4169 238.797 78.4049 238.438 78.381C238.078 78.357 237.755 78.345 237.467 78.345C237.275 78.345 237 78.357 236.64 78.381C236.281 78.4049 235.909 78.4169 235.526 78.4169C235.166 78.4409 234.819 78.4649 234.483 78.4888C234.172 78.5128 233.98 78.5248 233.908 78.5248C233.812 78.5248 233.752 78.4769 233.728 78.381C233.704 78.2611 233.692 78.1293 233.692 77.9855C233.692 77.7698 233.74 77.614 233.836 77.5181C234.315 77.4702 234.723 77.4342 235.058 77.4103C235.394 77.3863 235.622 77.3144 235.741 77.1946C235.789 77.1226 235.837 76.9908 235.885 76.7991C235.933 76.5834 235.969 76.2718 235.993 75.8643C236.017 75.4329 236.029 74.8936 236.029 74.2464C236.053 73.5993 236.065 72.8083 236.065 71.8736V59.3621C236.065 58.5232 236.041 57.8282 235.993 57.2769C235.945 56.7256 235.861 56.2462 235.741 55.8388H233.764C233.716 55.8388 233.668 55.7908 233.62 55.695C233.596 55.5991 233.584 55.5152 233.584 55.4433C233.584 55.0598 233.644 54.8561 233.764 54.8321C234.052 54.7602 234.435 54.6524 234.915 54.5085C235.418 54.3408 235.909 54.173 236.389 54.0052C236.892 53.8374 237.347 53.6697 237.755 53.5019C238.162 53.3341 238.438 53.2023 238.582 53.1064ZM247.709 63.3529C247.781 63.3768 247.853 63.4128 247.925 63.4607C248.021 63.4847 248.069 63.5206 248.069 63.5686C248.069 63.5925 248.057 63.7004 248.033 63.8921C248.033 64.0599 248.021 64.4194 247.997 64.9707C247.973 65.498 247.949 66.265 247.925 67.2717C247.925 68.2544 247.925 69.5606 247.925 71.1905C247.925 72.293 247.925 73.2278 247.925 73.9948C247.949 74.7378 247.973 75.349 247.997 75.8284C248.021 76.2838 248.045 76.6313 248.069 76.871C248.093 77.0867 248.129 77.2185 248.177 77.2665C248.225 77.3384 248.428 77.3983 248.788 77.4462C249.148 77.4702 249.627 77.4822 250.226 77.4822C250.274 77.4822 250.298 77.5301 250.298 77.626C250.322 77.7219 250.334 77.8177 250.334 77.9136C250.334 78.3211 250.226 78.5248 250.01 78.5248C249.819 78.5248 249.579 78.5128 249.291 78.4888C249.004 78.4649 248.704 78.4409 248.393 78.4169C248.081 78.4169 247.769 78.4049 247.458 78.381C247.146 78.357 246.871 78.345 246.631 78.345C246.439 78.345 246.175 78.357 245.84 78.381C245.504 78.4049 245.157 78.4289 244.797 78.4529C244.462 78.4769 244.138 78.5008 243.827 78.5248C243.539 78.5488 243.335 78.5607 243.215 78.5607C243.119 78.5607 243.072 78.4289 243.072 78.1653C243.072 77.9735 243.084 77.8177 243.107 77.6979C243.155 77.578 243.215 77.5181 243.287 77.5181C243.695 77.5181 244.078 77.4942 244.438 77.4462C244.797 77.3743 245.001 77.3144 245.049 77.2665C245.097 77.2185 245.133 77.1107 245.157 76.9429C245.205 76.7511 245.241 76.4515 245.265 76.0441C245.289 75.6126 245.301 75.0374 245.301 74.3184C245.325 73.5753 245.337 72.6406 245.337 71.5141C245.337 70.6272 245.325 69.9082 245.301 69.3569C245.301 68.8056 245.289 68.3502 245.265 67.9907C245.265 67.6312 245.253 67.3556 245.229 67.1638C245.205 66.9481 245.181 66.7564 245.157 66.5886L243.683 65.8336C243.587 65.7856 243.515 65.7497 243.467 65.7257C243.443 65.6778 243.431 65.5939 243.431 65.474C243.431 65.2344 243.491 65.1025 243.611 65.0786C243.851 65.0067 244.138 64.9228 244.474 64.8269C244.809 64.7071 245.157 64.5752 245.516 64.4314C245.9 64.2876 246.271 64.1318 246.631 63.964C247.014 63.7723 247.374 63.5686 247.709 63.3529ZM245.337 58.4633C245.337 58.0559 245.468 57.7083 245.732 57.4207C246.02 57.1331 246.367 56.9893 246.775 56.9893C247.182 56.9893 247.53 57.1331 247.817 57.4207C248.105 57.7083 248.249 58.0559 248.249 58.4633C248.249 58.8708 248.105 59.2183 247.817 59.5059C247.53 59.7696 247.182 59.9014 246.775 59.9014C246.367 59.9014 246.02 59.7696 245.732 59.5059C245.468 59.2183 245.337 58.8708 245.337 58.4633ZM262.267 77.9496C262.267 77.638 262.339 77.4822 262.482 77.4822C262.722 77.4822 262.974 77.4702 263.238 77.4462C263.501 77.4222 263.657 77.3863 263.705 77.3384C263.753 77.2904 263.789 77.0747 263.813 76.6912C263.861 76.3077 263.897 75.6726 263.921 74.7857L264.028 69.8243C264.052 68.554 263.753 67.5473 263.13 66.8043C262.506 66.0373 261.608 65.6538 260.433 65.6538C260.241 65.6538 259.99 65.7257 259.678 65.8695C259.367 65.9894 259.043 66.1452 258.707 66.3369C258.372 66.5047 258.048 66.6964 257.737 66.9121C257.425 67.1039 257.186 67.2837 257.018 67.4514V74.1745C257.018 74.8217 257.018 75.349 257.018 75.7565C257.018 76.1399 257.03 76.4395 257.054 76.6553C257.078 76.847 257.09 76.9908 257.09 77.0867C257.114 77.1586 257.15 77.2065 257.197 77.2305C257.269 77.3024 257.461 77.3623 257.773 77.4103C258.084 77.4582 258.468 77.4822 258.923 77.4822C259.019 77.4822 259.067 77.626 259.067 77.9136C259.067 78.3211 259.007 78.5248 258.887 78.5248C258.791 78.5248 258.612 78.5128 258.348 78.4888C258.108 78.4888 257.833 78.4769 257.521 78.4529C257.233 78.4289 256.922 78.4049 256.586 78.381C256.251 78.381 255.963 78.381 255.723 78.381C255.46 78.381 255.16 78.381 254.825 78.381C254.489 78.4049 254.165 78.4289 253.854 78.4529C253.542 78.4769 253.267 78.4888 253.027 78.4888C252.787 78.5128 252.62 78.5248 252.524 78.5248C252.476 78.5248 252.428 78.4649 252.38 78.345C252.356 78.2252 252.344 78.1053 252.344 77.9855C252.344 77.6499 252.392 77.4822 252.488 77.4822C252.823 77.4822 253.171 77.4582 253.53 77.4103C253.914 77.3623 254.13 77.3024 254.177 77.2305C254.201 77.1826 254.225 77.0507 254.249 76.835C254.297 76.6193 254.321 76.2838 254.321 75.8284C254.345 75.349 254.357 74.7378 254.357 73.9948C254.381 73.2278 254.393 72.293 254.393 71.1905C254.393 70.1599 254.369 69.2491 254.321 68.4581C254.297 67.6671 254.261 67.0679 254.213 66.6605L252.811 65.8695C252.715 65.8216 252.655 65.7856 252.632 65.7617C252.608 65.7137 252.596 65.5939 252.596 65.4021C252.596 65.2344 252.644 65.1385 252.739 65.1145C252.955 65.0426 253.231 64.9467 253.566 64.8269C253.926 64.6831 254.285 64.5273 254.645 64.3595C255.028 64.1917 255.388 64.012 255.723 63.8202C256.059 63.6285 256.335 63.4607 256.55 63.3169C256.622 63.3169 256.706 63.3409 256.802 63.3888C256.898 63.4128 256.946 63.4487 256.946 63.4967C256.946 63.5686 256.934 63.6764 256.91 63.8202C256.886 63.9401 256.874 64.0959 256.874 64.2876C256.874 64.4075 256.862 64.5872 256.838 64.8269C256.838 65.0426 256.826 65.2703 256.802 65.51C256.778 65.7257 256.754 65.9294 256.73 66.1212C256.73 66.3129 256.73 66.4448 256.73 66.5167C256.73 66.5646 256.742 66.6006 256.766 66.6245C256.814 66.6485 256.862 66.6485 256.91 66.6245C257.797 65.6418 258.66 64.9228 259.498 64.4674C260.337 63.988 261.068 63.7483 261.692 63.7483C263.178 63.7483 264.376 64.1917 265.287 65.0786C266.222 65.9654 266.677 67.3436 266.653 69.2131L266.545 74.7857C266.521 75.6965 266.521 76.3317 266.545 76.6912C266.569 77.0268 266.605 77.2185 266.653 77.2665C266.701 77.3144 266.929 77.3623 267.336 77.4103C267.744 77.4582 268.151 77.4822 268.558 77.4822C268.726 77.4822 268.81 77.59 268.81 77.8057C268.81 77.9975 268.798 78.1653 268.774 78.3091C268.75 78.4529 268.69 78.5248 268.594 78.5248C268.523 78.5248 268.307 78.5128 267.947 78.4888C267.612 78.4888 267.24 78.4769 266.833 78.4529C266.449 78.4289 266.09 78.4049 265.754 78.381C265.443 78.381 265.275 78.381 265.251 78.381C265.107 78.381 264.879 78.381 264.568 78.381C264.28 78.4049 263.981 78.4289 263.669 78.4529C263.381 78.4769 263.118 78.4888 262.878 78.4888C262.638 78.5128 262.506 78.5248 262.482 78.5248C262.387 78.5248 262.327 78.4649 262.303 78.345C262.279 78.2012 262.267 78.0694 262.267 77.9496ZM277.242 74.8217C276.859 74.8217 276.535 74.8457 276.271 74.8936C276.032 74.9415 275.804 75.0014 275.588 75.0734C275.253 75.1932 274.905 75.373 274.546 75.6126C274.21 75.8523 274.042 76.104 274.042 76.3676C274.042 76.6553 274.246 76.9189 274.654 77.1586C274.989 77.3743 275.564 77.5541 276.379 77.6979C277.194 77.8417 278.213 77.9735 279.435 78.0934C280.634 78.1892 281.604 78.2971 282.347 78.4169C283.114 78.5607 283.702 78.7405 284.109 78.9562C284.54 79.1719 284.828 79.4236 284.972 79.7112C285.14 79.9988 285.224 80.3584 285.224 80.7898C285.224 81.7725 284.984 82.7073 284.505 83.5941C284.025 84.5049 283.366 85.2958 282.527 85.967C281.712 86.662 280.741 87.2133 279.615 87.6208C278.512 88.0522 277.314 88.2679 276.02 88.2679C274.39 88.2679 273.072 87.9683 272.065 87.3691C271.082 86.7939 270.591 85.7632 270.591 84.2772C270.591 84.0135 270.651 83.7379 270.771 83.4503C270.914 83.1866 271.142 82.875 271.454 82.5155C271.789 82.18 272.221 81.7845 272.748 81.3291C273.275 80.8977 273.934 80.3823 274.725 79.7831C274.773 79.7352 274.761 79.6873 274.689 79.6393C273.635 79.3757 272.88 78.9802 272.424 78.4529C271.993 77.9496 271.777 77.3863 271.777 76.7631C271.777 76.6433 271.849 76.4995 271.993 76.3317C272.161 76.1399 272.389 75.9482 272.676 75.7565C272.964 75.5407 273.299 75.325 273.683 75.1093C274.09 74.8936 274.522 74.7018 274.977 74.5341C275.025 74.5101 275.013 74.4502 274.941 74.3543C274.869 74.2584 274.809 74.1865 274.761 74.1386C274.474 74.0187 274.15 73.851 273.791 73.6353C273.455 73.4195 273.12 73.1319 272.784 72.7724C272.472 72.4129 272.209 71.9814 271.993 71.4781C271.777 70.9748 271.669 70.3636 271.669 69.6445C271.669 68.7577 271.861 67.9548 272.245 67.2357C272.628 66.4927 273.144 65.8575 273.791 65.3302C274.462 64.8029 275.229 64.4075 276.092 64.1438C276.954 63.8562 277.877 63.7124 278.86 63.7124C279.339 63.7124 279.795 63.8082 280.226 64C280.682 64.1678 281.077 64.3835 281.413 64.6471H282.204C283.809 64.6471 284.924 64.6112 285.547 64.5393C286.17 64.4434 286.506 64.3955 286.554 64.3955C286.65 64.3955 286.698 64.4554 286.698 64.5752C286.506 65.2463 286.338 65.6898 286.194 65.9055C286.05 66.0972 285.847 66.1931 285.583 66.1931L282.635 66.229C282.899 66.5886 283.126 67.032 283.318 67.5593C283.534 68.0866 283.642 68.6259 283.642 69.1771C283.642 70.9748 283.054 72.3649 281.88 73.3476C280.729 74.3303 279.184 74.8217 277.242 74.8217ZM277.098 64.8988C276.619 64.8988 276.199 65.0306 275.84 65.2943C275.504 65.5579 275.229 65.8935 275.013 66.301C274.797 66.7084 274.63 67.1638 274.51 67.6671C274.414 68.1465 274.366 68.6139 274.366 69.0693C274.366 69.6206 274.462 70.1718 274.654 70.7231C274.869 71.2744 275.157 71.7777 275.516 72.2331C275.9 72.6645 276.343 73.0241 276.847 73.3117C277.374 73.5753 277.949 73.7072 278.572 73.7072C278.86 73.7072 279.148 73.6472 279.435 73.5274C279.747 73.4076 280.022 73.2038 280.262 72.9162C280.502 72.6046 280.694 72.1972 280.837 71.6938C281.005 71.1905 281.089 70.5553 281.089 69.7883C281.089 68.3742 280.765 67.2117 280.118 66.301C279.495 65.3662 278.488 64.8988 277.098 64.8988ZM275.912 79.855C275.001 80.5022 274.294 81.1254 273.791 81.7246C273.287 82.3238 273.036 82.923 273.036 83.5222C273.036 84.6008 273.479 85.4277 274.366 86.0029C275.253 86.6021 276.343 86.9017 277.638 86.9017C278.453 86.9017 279.172 86.7579 279.795 86.4703C280.442 86.1827 280.981 85.7992 281.413 85.3198C281.844 84.8644 282.168 84.3371 282.383 83.7379C282.623 83.1627 282.743 82.5754 282.743 81.9762C282.743 81.7365 282.695 81.5208 282.599 81.3291C282.503 81.1373 282.228 80.9576 281.772 80.7898C281.341 80.622 280.67 80.4542 279.759 80.2865C278.848 80.1427 277.566 79.9988 275.912 79.855ZM294.108 56.4859C294.012 56.4859 293.964 56.3781 293.964 56.1624C293.964 55.9706 293.976 55.8388 294 55.7669C294.024 55.695 294.06 55.647 294.108 55.6231C294.395 55.5991 294.863 55.5751 295.51 55.5512C296.181 55.5272 296.912 55.5032 297.703 55.4793C298.494 55.4313 299.309 55.3954 300.148 55.3714C300.987 55.3474 301.73 55.3355 302.377 55.3355C304.965 55.3355 307.194 55.5631 309.064 56.0185C310.933 56.4739 312.467 57.169 313.666 58.1038C314.888 59.0146 315.775 60.1651 316.326 61.5552C316.902 62.9214 317.189 64.5393 317.189 66.4088C317.189 68.1345 316.89 69.7404 316.29 71.2264C315.715 72.7125 314.852 74.0068 313.702 75.1093C312.575 76.1879 311.161 77.0388 309.459 77.6619C307.782 78.2611 305.84 78.5607 303.635 78.5607C302.868 78.5607 302.029 78.5248 301.118 78.4529C300.232 78.381 299.441 78.345 298.746 78.345C298.386 78.345 298.003 78.357 297.595 78.381C297.212 78.4049 296.852 78.4289 296.517 78.4529C296.181 78.4769 295.893 78.5008 295.654 78.5248C295.438 78.5488 295.318 78.5607 295.294 78.5607C295.174 78.5607 295.114 78.4049 295.114 78.0934C295.114 77.6859 295.174 77.4702 295.294 77.4462C296.037 77.3264 296.541 77.2425 296.804 77.1946C297.092 77.1466 297.26 77.0747 297.308 76.9788C297.403 76.835 297.487 75.9482 297.559 74.3184C297.631 72.6645 297.667 70.1359 297.667 66.7324C297.667 64.6471 297.655 62.9933 297.631 61.7709C297.607 60.5486 297.571 59.6138 297.523 58.9666C297.475 58.2955 297.403 57.8401 297.308 57.6005C297.212 57.3368 297.092 57.1331 296.948 56.9893C296.732 56.7735 296.337 56.6417 295.762 56.5938C295.186 56.5219 294.635 56.4859 294.108 56.4859ZM300.687 72.9522C300.687 74.1266 300.747 74.9535 300.867 75.4329C301.011 75.9122 301.214 76.2598 301.478 76.4755C301.814 76.7392 302.281 76.9309 302.88 77.0507C303.503 77.1466 304.318 77.1946 305.325 77.1946C306.523 77.1946 307.638 76.9788 308.668 76.5474C309.723 76.092 310.634 75.4329 311.401 74.57C312.168 73.7072 312.767 72.6526 313.199 71.4062C313.654 70.1359 313.882 68.6858 313.882 67.056C313.882 65.3782 313.642 63.8921 313.163 62.5978C312.683 61.2796 311.904 60.1651 310.826 59.2543C309.771 58.3435 308.405 57.6484 306.727 57.169C305.073 56.6897 303.06 56.45 300.687 56.45V72.9522ZM332.001 75.361C332.049 75.361 332.109 75.3849 332.181 75.4329C332.253 75.4808 332.313 75.5288 332.361 75.5767C332.433 75.6965 332.444 75.8523 332.397 76.0441C332.133 76.3557 331.773 76.6792 331.318 77.0148C330.887 77.3264 330.419 77.626 329.916 77.9136C329.436 78.1773 328.933 78.393 328.406 78.5607C327.902 78.7525 327.447 78.8484 327.04 78.8484C325.889 78.8484 324.882 78.6566 324.02 78.2731C323.181 77.8657 322.486 77.3384 321.934 76.6912C321.407 76.0441 321.012 75.3011 320.748 74.4622C320.484 73.6233 320.352 72.7604 320.352 71.8736C320.352 70.4355 320.664 69.0693 321.287 67.775C321.91 66.4807 322.893 65.486 324.235 64.7909C324.523 64.6471 324.835 64.5153 325.17 64.3955C325.506 64.2756 325.841 64.1678 326.177 64.0719C326.512 63.9521 326.836 63.8682 327.147 63.8202C327.459 63.7483 327.723 63.7124 327.938 63.7124C328.61 63.7124 329.221 63.8682 329.772 64.1798C330.323 64.4674 330.791 64.8629 331.174 65.3662C331.582 65.8695 331.881 66.4448 332.073 67.0919C332.289 67.7391 332.397 68.4102 332.397 69.1052C332.397 69.4648 332.361 69.6925 332.289 69.7883C332.217 69.8842 331.989 69.9561 331.606 70.0041C331.486 70.028 331.21 70.052 330.779 70.076C330.347 70.0999 329.832 70.1359 329.233 70.1838C328.658 70.2318 328.022 70.2797 327.327 70.3276C326.656 70.3756 326.021 70.4235 325.422 70.4714C324.823 70.5194 324.307 70.5673 323.876 70.6152C323.444 70.6392 323.169 70.6512 323.049 70.6512V70.9029C323.049 72.8203 323.576 74.3184 324.631 75.3969C325.709 76.4515 327.124 76.9788 328.873 76.9788C329.089 76.9788 329.341 76.9309 329.628 76.835C329.94 76.7152 330.239 76.5714 330.527 76.4036C330.839 76.2358 331.126 76.0561 331.39 75.8643C331.654 75.6726 331.857 75.5048 332.001 75.361ZM323.121 69.0693C323.121 69.1891 323.193 69.2491 323.337 69.2491H329.592C329.784 69.2491 329.88 69.1771 329.88 69.0333C329.88 68.5779 329.796 68.1225 329.628 67.6671C329.484 67.1878 329.257 66.7564 328.945 66.3729C328.658 65.9894 328.298 65.6778 327.867 65.4381C327.435 65.1744 326.956 65.0426 326.428 65.0426C325.949 65.0426 325.506 65.1984 325.098 65.51C324.715 65.7976 324.367 66.1571 324.056 66.5886C323.768 67.02 323.54 67.4634 323.372 67.9188C323.205 68.3742 323.121 68.7577 323.121 69.0693ZM344.303 75.5767C344.351 75.5767 344.399 75.6007 344.447 75.6486C344.519 75.6726 344.579 75.7085 344.627 75.7565C344.747 75.8763 344.807 76.0081 344.807 76.1519C344.687 76.3437 344.471 76.5834 344.159 76.871C343.848 77.1586 343.5 77.4462 343.117 77.7338C342.757 77.9975 342.386 78.2252 342.002 78.4169C341.619 78.6326 341.295 78.7405 341.032 78.7405C340.36 78.7405 339.749 78.6566 339.198 78.4888C338.647 78.345 338.179 78.0814 337.796 77.6979C337.412 77.3144 337.113 76.7991 336.897 76.1519C336.681 75.5048 336.585 74.6899 336.609 73.7072L336.789 66.265H334.812C334.668 66.265 334.596 66.1691 334.596 65.9774C334.596 65.8096 334.62 65.6898 334.668 65.6179C334.716 65.546 334.776 65.486 334.848 65.4381C335.807 64.9108 336.502 64.4314 336.933 64C337.364 63.5446 337.724 63.1371 338.012 62.7776C338.251 62.4421 338.443 62.1065 338.587 61.7709C338.755 61.4354 338.874 61.2436 338.946 61.1957L339.522 60.9081C339.665 60.8601 339.737 60.8961 339.737 61.0159C339.737 61.1118 339.677 61.5193 339.558 62.2383C339.462 62.9334 339.414 63.7124 339.414 64.5752H342.937C343.44 64.5752 343.8 64.5633 344.016 64.5393C344.231 64.4913 344.375 64.4674 344.447 64.4674C344.519 64.4674 344.555 64.5153 344.555 64.6112C344.555 64.755 344.507 64.9228 344.411 65.1145L344.124 65.8336C344.052 66.0253 343.92 66.1212 343.728 66.1212L339.486 66.1571C339.366 66.1571 339.306 66.241 339.306 66.4088L339.234 73.5634C339.234 74.2824 339.318 74.8576 339.486 75.2891C339.677 75.7205 339.929 76.0561 340.241 76.2957C340.552 76.5115 340.912 76.6672 341.319 76.7631C341.727 76.835 342.146 76.871 342.578 76.871C342.793 76.871 343.081 76.7152 343.44 76.4036C343.824 76.092 344.112 75.8164 344.303 75.5767ZM348.568 67.9548C348.448 67.9548 348.208 67.8709 347.849 67.7031C347.513 67.5114 347.214 67.3076 346.95 67.0919C346.782 66.9241 346.698 66.7923 346.698 66.6964C346.698 66.3609 346.77 66.0852 346.914 65.8695C347.01 65.7497 347.274 65.5699 347.705 65.3302C348.16 65.0906 348.688 64.8509 349.287 64.6112C349.886 64.3715 350.509 64.1678 351.156 64C351.828 63.8082 352.439 63.7124 352.99 63.7124C353.35 63.7124 353.769 63.8202 354.248 64.0359C354.752 64.2277 355.171 64.4913 355.507 64.8269C356.034 65.3542 356.382 65.8815 356.549 66.4088C356.717 66.9361 356.801 67.5114 356.801 68.1345C356.801 68.4221 356.789 68.8656 356.765 69.4648C356.741 70.04 356.705 70.6752 356.657 71.3703C356.633 72.0414 356.609 72.7005 356.585 73.3476C356.561 73.9948 356.549 74.5101 356.549 74.8936C356.549 75.349 356.609 75.7325 356.729 76.0441C356.849 76.3317 356.993 76.5714 357.161 76.7631C357.328 76.9309 357.496 77.0627 357.664 77.1586C357.856 77.2305 358.011 77.2665 358.131 77.2665C358.227 77.2665 358.335 77.2425 358.455 77.1946C358.599 77.1226 358.73 77.0507 358.85 76.9788C358.97 76.883 359.078 76.8111 359.174 76.7631C359.294 76.6912 359.366 76.6553 359.39 76.6553C359.509 76.6553 359.569 76.7272 359.569 76.871C359.569 77.2065 359.521 77.4462 359.426 77.59C359.282 77.6619 359.054 77.7818 358.742 77.9496C358.431 78.0934 358.095 78.2372 357.736 78.381C357.4 78.5248 357.077 78.6446 356.765 78.7405C356.477 78.8603 356.274 78.9203 356.154 78.9203C355.986 78.9203 355.794 78.8603 355.579 78.7405C355.363 78.6207 355.147 78.4649 354.931 78.2731C354.74 78.0574 354.56 77.8057 354.392 77.5181C354.248 77.2305 354.152 76.9189 354.105 76.5834C353.553 77.0867 353.062 77.4942 352.63 77.8057C352.223 78.0934 351.84 78.3091 351.48 78.4529C351.144 78.5967 350.833 78.6926 350.545 78.7405C350.258 78.7884 349.994 78.8124 349.754 78.8124C349.107 78.8124 348.544 78.7046 348.065 78.4888C347.609 78.2731 347.214 77.9735 346.878 77.59C346.567 77.2065 346.327 76.7751 346.159 76.2957C346.015 75.7924 345.943 75.2651 345.943 74.7138C345.943 74.1865 346.195 73.6952 346.698 73.2398C347.226 72.7604 347.873 72.353 348.64 72.0174C349.431 71.6579 350.294 71.3703 351.228 71.1545C352.163 70.9149 353.05 70.7591 353.889 70.6872C353.937 70.6872 353.985 70.6752 354.033 70.6512C354.081 70.6033 354.105 70.5194 354.105 70.3995L354.141 69.0333C354.188 67.7391 353.889 66.7324 353.242 66.0133C352.595 65.2703 351.768 64.8988 350.761 64.8988C350.473 64.8988 350.21 65.0067 349.97 65.2224C349.73 65.4141 349.527 65.6658 349.359 65.9774C349.215 66.265 349.095 66.5766 348.999 66.9121C348.927 67.2477 348.891 67.5473 348.891 67.811C348.891 67.8589 348.844 67.8948 348.748 67.9188C348.676 67.9428 348.616 67.9548 348.568 67.9548ZM354.105 72.305C354.105 72.2571 354.081 72.1972 354.033 72.1253C354.009 72.0533 353.973 72.0174 353.925 72.0174C353.829 71.9934 353.661 71.9814 353.421 71.9814C353.182 71.9575 352.942 71.9455 352.702 71.9455C351.336 71.9455 350.294 72.1492 349.575 72.5567C348.879 72.9641 348.532 73.3836 348.532 73.815C348.532 74.7258 348.808 75.5048 349.359 76.1519C349.91 76.7991 350.605 77.1226 351.444 77.1226C351.708 77.1226 352.103 77.0028 352.63 76.7631C353.158 76.4995 353.613 76.1879 353.997 75.8284L354.105 72.305ZM365.573 63.3529C365.645 63.3768 365.717 63.4128 365.789 63.4607C365.885 63.4847 365.933 63.5206 365.933 63.5686C365.933 63.5925 365.921 63.7004 365.897 63.8921C365.897 64.0599 365.885 64.4194 365.861 64.9707C365.837 65.498 365.813 66.265 365.789 67.2717C365.789 68.2544 365.789 69.5606 365.789 71.1905C365.789 72.293 365.789 73.2278 365.789 73.9948C365.813 74.7378 365.837 75.349 365.861 75.8284C365.885 76.2838 365.909 76.6313 365.933 76.871C365.957 77.0867 365.993 77.2185 366.04 77.2665C366.088 77.3384 366.292 77.3983 366.652 77.4462C367.011 77.4702 367.491 77.4822 368.09 77.4822C368.138 77.4822 368.162 77.5301 368.162 77.626C368.186 77.7219 368.198 77.8177 368.198 77.9136C368.198 78.3211 368.09 78.5248 367.874 78.5248C367.682 78.5248 367.443 78.5128 367.155 78.4888C366.867 78.4649 366.568 78.4409 366.256 78.4169C365.945 78.4169 365.633 78.4049 365.321 78.381C365.01 78.357 364.734 78.345 364.495 78.345C364.303 78.345 364.039 78.357 363.704 78.381C363.368 78.4049 363.02 78.4289 362.661 78.4529C362.325 78.4769 362.002 78.5008 361.69 78.5248C361.403 78.5488 361.199 78.5607 361.079 78.5607C360.983 78.5607 360.935 78.4289 360.935 78.1653C360.935 77.9735 360.947 77.8177 360.971 77.6979C361.019 77.578 361.079 77.5181 361.151 77.5181C361.558 77.5181 361.942 77.4942 362.301 77.4462C362.661 77.3743 362.865 77.3144 362.913 77.2665C362.961 77.2185 362.997 77.1107 363.02 76.9429C363.068 76.7511 363.104 76.4515 363.128 76.0441C363.152 75.6126 363.164 75.0374 363.164 74.3184C363.188 73.5753 363.2 72.6406 363.2 71.5141C363.2 70.6272 363.188 69.9082 363.164 69.3569C363.164 68.8056 363.152 68.3502 363.128 67.9907C363.128 67.6312 363.116 67.3556 363.092 67.1638C363.068 66.9481 363.044 66.7564 363.02 66.5886L361.546 65.8336C361.451 65.7856 361.379 65.7497 361.331 65.7257C361.307 65.6778 361.295 65.5939 361.295 65.474C361.295 65.2344 361.355 65.1025 361.475 65.0786C361.714 65.0067 362.002 64.9228 362.337 64.8269C362.673 64.7071 363.02 64.5752 363.38 64.4314C363.763 64.2876 364.135 64.1318 364.495 63.964C364.878 63.7723 365.238 63.5686 365.573 63.3529ZM363.2 58.4633C363.2 58.0559 363.332 57.7083 363.596 57.4207C363.883 57.1331 364.231 56.9893 364.638 56.9893C365.046 56.9893 365.393 57.1331 365.681 57.4207C365.969 57.7083 366.112 58.0559 366.112 58.4633C366.112 58.8708 365.969 59.2183 365.681 59.5059C365.393 59.7696 365.046 59.9014 364.638 59.9014C364.231 59.9014 363.883 59.7696 363.596 59.5059C363.332 59.2183 363.2 58.8708 363.2 58.4633ZM374.738 53.1064C374.857 53.1064 374.929 53.1543 374.953 53.2502C374.905 53.5858 374.869 54.197 374.845 55.0838C374.822 55.9706 374.81 57.181 374.81 58.715V73.9588C374.81 75.1093 374.822 75.9122 374.845 76.3676C374.869 76.823 374.905 77.0747 374.953 77.1226C375.097 77.3144 375.864 77.4462 377.254 77.5181C377.302 77.614 377.326 77.7458 377.326 77.9136C377.326 77.9855 377.302 78.1053 377.254 78.2731C377.23 78.4409 377.182 78.5248 377.11 78.5248C377.015 78.5248 376.835 78.5128 376.571 78.4888C376.308 78.4649 375.996 78.4409 375.636 78.4169C375.301 78.4169 374.953 78.4049 374.594 78.381C374.234 78.357 373.911 78.345 373.623 78.345C373.431 78.345 373.156 78.357 372.796 78.381C372.437 78.4049 372.065 78.4169 371.682 78.4169C371.322 78.4409 370.975 78.4649 370.639 78.4888C370.327 78.5128 370.136 78.5248 370.064 78.5248C369.968 78.5248 369.908 78.4769 369.884 78.381C369.86 78.2611 369.848 78.1293 369.848 77.9855C369.848 77.7698 369.896 77.614 369.992 77.5181C370.471 77.4702 370.879 77.4342 371.214 77.4103C371.55 77.3863 371.778 77.3144 371.897 77.1946C371.945 77.1226 371.993 76.9908 372.041 76.7991C372.089 76.5834 372.125 76.2718 372.149 75.8643C372.173 75.4329 372.185 74.8936 372.185 74.2464C372.209 73.5993 372.221 72.8083 372.221 71.8736V59.3621C372.221 58.5232 372.197 57.8282 372.149 57.2769C372.101 56.7256 372.017 56.2462 371.897 55.8388H369.92C369.872 55.8388 369.824 55.7908 369.776 55.695C369.752 55.5991 369.74 55.5152 369.74 55.4433C369.74 55.0598 369.8 54.8561 369.92 54.8321C370.208 54.7602 370.591 54.6524 371.07 54.5085C371.574 54.3408 372.065 54.173 372.545 54.0052C373.048 53.8374 373.503 53.6697 373.911 53.5019C374.318 53.3341 374.594 53.2023 374.738 53.1064ZM379.299 75.1093C379.371 74.9895 379.503 74.8936 379.695 74.8217C379.887 74.7498 380.006 74.7498 380.054 74.8217C380.078 74.9415 380.114 75.0853 380.162 75.2531C380.21 75.4209 380.258 75.5647 380.306 75.6845C380.642 76.3557 381.109 76.859 381.708 77.1946C382.307 77.5301 382.919 77.6979 383.542 77.6979C384.357 77.6979 384.98 77.4942 385.411 77.0867C385.867 76.6792 386.094 76.128 386.094 75.4329C386.094 74.8576 385.903 74.3184 385.519 73.815C385.16 73.2877 384.405 72.7844 383.254 72.305C382.104 71.8496 381.241 71.3343 380.666 70.7591C380.09 70.1599 379.803 69.321 379.803 68.2424C379.803 67.5473 379.958 66.9002 380.27 66.301C380.606 65.6778 381.121 65.1265 381.816 64.6471C382.391 64.2636 382.943 64.024 383.47 63.9281C384.021 63.8082 384.572 63.7483 385.124 63.7483C385.747 63.7483 386.274 63.8082 386.706 63.9281C387.137 64.0479 387.485 64.1678 387.748 64.2876C387.796 64.6951 387.832 65.1744 387.856 65.7257C387.88 66.253 387.868 66.7324 387.82 67.1638C387.772 67.2597 387.664 67.3316 387.497 67.3795C387.353 67.4035 387.233 67.3915 387.137 67.3436C387.137 67.2477 387.125 67.0799 387.101 66.8402C387.077 66.5766 387.053 66.4088 387.029 66.3369C386.933 66.0253 386.658 65.7377 386.202 65.474C385.747 65.2104 385.1 65.0786 384.261 65.0786C383.614 65.0786 383.026 65.2463 382.499 65.5819C381.972 65.9175 381.708 66.4687 381.708 67.2357C381.708 67.787 381.912 68.2664 382.319 68.6738C382.727 69.0813 383.494 69.5007 384.62 69.9322C386.034 70.4115 387.029 70.9868 387.604 71.6579C388.18 72.329 388.467 73.1799 388.467 74.2105C388.467 74.8816 388.335 75.5048 388.072 76.08C387.808 76.6553 387.449 77.1586 386.993 77.59C386.538 77.9975 385.999 78.3211 385.375 78.5607C384.776 78.8004 384.117 78.9203 383.398 78.9203C382.679 78.9203 382.02 78.8723 381.421 78.7765C380.821 78.6806 380.318 78.5727 379.911 78.4529C379.911 78.357 379.911 78.2492 379.911 78.1293C379.911 77.9855 379.887 77.7938 379.839 77.5541C379.815 77.2904 379.755 76.9669 379.659 76.5834C379.587 76.1759 379.467 75.6845 379.299 75.1093Z" fill="white"/>
<path opacity="0.8" d="M563.156 51.2747H573.978L591.704 69.0007L573.978 86.7266H563.156" stroke="white" stroke-width="3"/>
<path d="M53.1894 44.8019H85.1917V84.8491M53.1894 44.8019L44.7031 53.2881H53.1894M53.1894 44.8019V53.2881M53.1894 93.1993L61.5396 84.8491H85.1917M53.1894 93.1993H85.1917L93.542 84.8491H85.1917M53.1894 93.1993V53.2881" stroke="white" stroke-width="4"/>
</svg>
