<svg width="647" height="138" viewBox="0 0 647 138" fill="none" xmlns="http://www.w3.org/2000/svg">
<path d="M136.857 1.13599V136.606H33.4805L1.3877 104.513V1.13599H136.857Z" stroke="#FFB84D" stroke-width="0.839726"/>
<path d="M151.767 136.525V1.2157H613.801L645.847 33.2616V136.525H151.767Z" stroke="#FFB84D"/>
<path opacity="0.8" d="M201.15 73.1305C201.15 73.8735 201.162 74.4967 201.186 75C201.21 75.4794 201.234 75.8629 201.258 76.1505C201.306 76.4381 201.342 76.6539 201.366 76.7977C201.413 76.9175 201.461 76.9894 201.509 77.0134C201.653 77.1572 201.989 77.2531 202.516 77.301C203.043 77.3489 203.535 77.3729 203.99 77.3729H204.529C204.601 77.4448 204.637 77.6006 204.637 77.8403C204.637 78.1039 204.613 78.2717 204.565 78.3436C204.517 78.4395 204.422 78.4874 204.278 78.4874C204.038 78.4874 203.714 78.4755 203.307 78.4515C202.923 78.4275 202.516 78.4035 202.085 78.3796C201.653 78.3796 201.234 78.3676 200.826 78.3436C200.419 78.3197 200.071 78.3077 199.784 78.3077C199.592 78.3077 199.292 78.3197 198.885 78.3436C198.501 78.3676 198.094 78.3796 197.662 78.3796C197.231 78.4035 196.824 78.4275 196.44 78.4515C196.057 78.4755 195.793 78.4874 195.649 78.4874C195.577 78.4874 195.517 78.4155 195.469 78.2717C195.445 78.1039 195.433 77.9601 195.433 77.8403C195.433 77.6485 195.493 77.5047 195.613 77.4089C196.069 77.3609 196.512 77.325 196.943 77.301C197.399 77.2531 197.686 77.1692 197.806 77.0493C197.854 77.0014 197.902 76.8816 197.95 76.6898C197.998 76.4741 198.034 76.0547 198.058 75.4315C198.106 74.7843 198.142 73.8616 198.166 72.6631C198.19 71.4408 198.202 69.7869 198.202 67.7017C198.202 65.4487 198.19 63.6391 198.166 62.2729C198.166 60.9067 198.142 59.8521 198.094 59.1091C198.07 58.3421 198.034 57.8268 197.986 57.5631C197.938 57.2755 197.866 57.0837 197.77 56.9879C197.65 56.8201 197.351 56.6883 196.871 56.5924C196.392 56.4965 195.697 56.4486 194.786 56.4486C194.714 56.4246 194.678 56.3407 194.678 56.1969C194.678 55.9812 194.69 55.8374 194.714 55.7655C194.738 55.6936 194.81 55.6456 194.93 55.6217C195.961 55.5018 197.075 55.4179 198.274 55.37C199.472 55.3221 200.826 55.2981 202.336 55.2981C205.572 55.2981 208.029 55.8374 209.707 56.916C211.384 57.9706 212.223 59.5285 212.223 61.5898C212.223 62.5964 212.007 63.5432 211.576 64.43C211.145 65.3169 210.533 66.1078 209.742 66.8029C208.975 67.474 208.053 68.0133 206.974 68.4207C205.896 68.8042 204.697 68.996 203.379 68.996C202.78 68.996 202.312 68.996 201.977 68.996C201.665 68.972 201.39 68.9361 201.15 68.8881V73.1305ZM201.15 67.8096C201.557 67.9054 202.013 67.9534 202.516 67.9534C204.577 67.9534 206.171 67.438 207.298 66.4074C208.424 65.3768 208.987 63.9267 208.987 62.0572C208.987 60.1397 208.328 58.7136 207.01 57.7788C205.716 56.8201 203.918 56.3407 201.617 56.3407H201.15V67.8096ZM218.035 63.3514C218.107 63.3275 218.191 63.3395 218.287 63.3874C218.382 63.4114 218.43 63.4473 218.43 63.4953C218.43 63.5672 218.394 63.7349 218.322 63.9986C218.275 64.2383 218.251 64.6457 218.251 65.221C218.251 65.5086 218.251 65.8561 218.251 66.2636C218.275 66.6471 218.287 66.9347 218.287 67.1265C218.982 66.2636 219.653 65.5565 220.3 65.0053C220.947 64.454 221.486 64.0705 221.918 63.8548C222.109 63.8068 222.301 63.7829 222.493 63.7829C222.709 63.7589 222.936 63.7469 223.176 63.7469C223.44 63.7469 223.739 63.8548 224.075 64.0705C224.434 64.2622 224.734 64.5978 224.974 65.0772V65.6165L224.039 67.486C223.991 67.5339 223.931 67.5579 223.859 67.5579C223.811 67.5579 223.787 67.5339 223.787 67.486V67.3062C223.524 66.9467 223.188 66.6471 222.781 66.4074C222.373 66.1677 221.918 66.0479 221.414 66.0479C221.127 66.0479 220.767 66.1677 220.336 66.4074C219.904 66.6471 219.521 66.9347 219.185 67.2703C218.898 67.5579 218.694 67.8096 218.574 68.0253C218.478 68.241 218.43 68.4567 218.43 68.6724V76.0427C218.43 76.3303 218.454 76.57 218.502 76.7617C218.55 76.9295 218.658 77.0613 218.826 77.1572C218.994 77.2531 219.245 77.325 219.581 77.3729C219.94 77.3969 220.432 77.4089 221.055 77.4089C221.127 77.4089 221.175 77.4688 221.199 77.5886C221.223 77.7085 221.235 77.8163 221.235 77.9122C221.235 78.1519 221.199 78.3077 221.127 78.3796C221.055 78.4515 220.959 78.4874 220.839 78.4874C220.192 78.4874 219.509 78.4635 218.79 78.4155C218.071 78.3676 217.555 78.3436 217.244 78.3436C216.717 78.3436 216.141 78.3676 215.518 78.4155C214.895 78.4635 214.332 78.4874 213.828 78.4874C213.685 78.4874 213.613 78.3796 213.613 78.1639C213.613 78.044 213.625 77.8882 213.649 77.6965C213.697 77.5047 213.745 77.4089 213.792 77.4089C214.871 77.4089 215.482 77.325 215.626 77.1572C215.65 77.1332 215.674 77.0254 215.698 76.8336C215.722 76.6179 215.734 76.2824 215.734 75.827C215.758 75.3716 215.77 74.7604 215.77 73.9934C215.794 73.2264 215.806 72.2557 215.806 71.0812C215.806 70.2184 215.794 69.5113 215.77 68.96C215.77 68.3848 215.758 67.9294 215.734 67.5938C215.71 67.2583 215.686 67.0066 215.662 66.8388C215.638 66.6471 215.614 66.5033 215.59 66.4074L214.008 65.7962C213.864 65.7722 213.792 65.6165 213.792 65.3288C213.792 65.1611 213.864 65.0652 214.008 65.0412C214.2 64.9693 214.464 64.8734 214.799 64.7536C215.159 64.6338 215.53 64.5019 215.914 64.3581C216.297 64.1903 216.669 64.0226 217.028 63.8548C217.412 63.687 217.747 63.5192 218.035 63.3514ZM238.082 75.3236C238.13 75.3236 238.19 75.3476 238.262 75.3955C238.334 75.4435 238.394 75.4914 238.442 75.5393C238.514 75.6592 238.526 75.815 238.478 76.0067C238.214 76.3183 237.855 76.6419 237.399 76.9774C236.968 77.289 236.5 77.5886 235.997 77.8762C235.518 78.1399 235.014 78.3556 234.487 78.5234C233.984 78.7151 233.528 78.811 233.121 78.811C231.97 78.811 230.964 78.6193 230.101 78.2358C229.262 77.8283 228.567 77.301 228.016 76.6539C227.488 76.0067 227.093 75.2637 226.829 74.4248C226.566 73.5859 226.434 72.7231 226.434 71.8362C226.434 70.3981 226.745 69.0319 227.368 67.7377C227.992 66.4434 228.974 65.4487 230.317 64.7536C230.604 64.6098 230.916 64.478 231.251 64.3581C231.587 64.2383 231.922 64.1304 232.258 64.0345C232.594 63.9147 232.917 63.8308 233.229 63.7829C233.54 63.711 233.804 63.675 234.02 63.675C234.691 63.675 235.302 63.8308 235.853 64.1424C236.405 64.43 236.872 64.8255 237.255 65.3288C237.663 65.8322 237.962 66.4074 238.154 67.0546C238.37 67.7017 238.478 68.3728 238.478 69.0679C238.478 69.4274 238.442 69.6551 238.37 69.751C238.298 69.8469 238.07 69.9188 237.687 69.9667C237.567 69.9907 237.291 70.0146 236.86 70.0386C236.428 70.0626 235.913 70.0985 235.314 70.1465C234.739 70.1944 234.104 70.2423 233.408 70.2903C232.737 70.3382 232.102 70.3861 231.503 70.4341C230.904 70.482 230.388 70.53 229.957 70.5779C229.526 70.6019 229.25 70.6138 229.13 70.6138V70.8655C229.13 72.783 229.657 74.281 230.712 75.3596C231.791 76.4142 233.205 76.9415 234.954 76.9415C235.17 76.9415 235.422 76.8935 235.709 76.7977C236.021 76.6778 236.321 76.534 236.608 76.3662C236.92 76.1985 237.207 76.0187 237.471 75.827C237.735 75.6352 237.938 75.4674 238.082 75.3236ZM229.202 69.0319C229.202 69.1518 229.274 69.2117 229.418 69.2117H235.673C235.865 69.2117 235.961 69.1398 235.961 68.996C235.961 68.5406 235.877 68.0852 235.709 67.6298C235.566 67.1504 235.338 66.719 235.026 66.3355C234.739 65.952 234.379 65.6404 233.948 65.4007C233.516 65.1371 233.037 65.0053 232.51 65.0053C232.03 65.0053 231.587 65.1611 231.179 65.4726C230.796 65.7603 230.448 66.1198 230.137 66.5512C229.849 66.9826 229.621 67.4261 229.454 67.8815C229.286 68.3369 229.202 68.7204 229.202 69.0319ZM246.497 64.0705C246.664 64.0705 246.748 64.1424 246.748 64.2862C246.748 64.5019 246.736 64.6817 246.712 64.8255C246.688 64.9693 246.616 65.0412 246.497 65.0412L245.706 65.0772C245.082 65.1011 244.771 65.197 244.771 65.3648C244.771 65.4607 244.783 65.5685 244.807 65.6884C244.831 65.7842 244.879 65.94 244.951 66.1557L248.474 74.8203H248.582L251.638 67.0186C251.83 66.5153 251.961 66.1438 252.033 65.9041C252.105 65.6644 252.141 65.4726 252.141 65.3288C252.141 65.1371 251.578 65.0412 250.451 65.0412C250.332 65.0412 250.272 64.8375 250.272 64.43C250.272 64.1903 250.355 64.0705 250.523 64.0705C250.715 64.0705 251.063 64.0825 251.566 64.1065C252.069 64.1304 252.632 64.1424 253.256 64.1424C253.615 64.1424 254.011 64.1304 254.442 64.1065C254.873 64.0585 255.161 64.0345 255.305 64.0345C255.449 64.0345 255.521 64.1184 255.521 64.2862C255.521 64.478 255.497 64.6457 255.449 64.7895C255.425 64.9334 255.365 65.0053 255.269 65.0053C255.125 65.0053 254.969 65.0172 254.802 65.0412C254.658 65.0412 254.538 65.0772 254.442 65.1491C254.346 65.2449 254.238 65.3528 254.118 65.4726C254.023 65.5925 253.879 65.8202 253.687 66.1557C253.519 66.4673 253.28 66.9227 252.968 67.5219C252.68 68.1211 252.297 68.9361 251.818 69.9667C251.266 71.1412 250.775 72.2437 250.343 73.2743C249.912 74.305 249.541 75.2158 249.229 76.0067C248.917 76.7977 248.666 77.4448 248.474 77.9482C248.306 78.4515 248.21 78.7751 248.186 78.9189C248.138 78.9908 247.971 79.0267 247.683 79.0267C247.443 79.0267 247.323 78.9908 247.323 78.9189C247.3 78.7751 247.228 78.5474 247.108 78.2358C246.988 77.9002 246.796 77.4328 246.533 76.8336C246.293 76.2344 245.981 75.4674 245.598 74.5327C245.214 73.5739 244.735 72.3995 244.16 71.0093C243.68 69.8349 243.285 68.8881 242.973 68.1691C242.686 67.4261 242.446 66.8508 242.254 66.4434C242.086 66.0359 241.955 65.7483 241.859 65.5805C241.763 65.3888 241.679 65.2689 241.607 65.221C241.487 65.1251 241.283 65.0772 240.996 65.0772C240.732 65.0532 240.528 65.0412 240.385 65.0412C240.289 65.0412 240.241 64.9214 240.241 64.6817C240.241 64.3461 240.265 64.1664 240.313 64.1424C240.385 64.0945 240.469 64.0705 240.564 64.0705C240.78 64.0705 241.164 64.0945 241.715 64.1424C242.266 64.1664 242.889 64.1784 243.584 64.1784C244.399 64.1784 245.046 64.1664 245.526 64.1424C246.029 64.0945 246.353 64.0705 246.497 64.0705ZM261.156 63.3155C261.228 63.3395 261.3 63.3754 261.372 63.4234C261.468 63.4473 261.516 63.4833 261.516 63.5312C261.516 63.5552 261.504 63.663 261.48 63.8548C261.48 64.0226 261.468 64.3821 261.444 64.9334C261.42 65.4607 261.396 66.2276 261.372 67.2343C261.372 68.217 261.372 69.5233 261.372 71.1531C261.372 72.2557 261.372 73.1904 261.372 73.9574C261.396 74.7004 261.42 75.3116 261.444 75.791C261.468 76.2464 261.492 76.5939 261.516 76.8336C261.54 77.0493 261.576 77.1812 261.624 77.2291C261.672 77.301 261.876 77.3609 262.235 77.4089C262.595 77.4328 263.074 77.4448 263.673 77.4448C263.721 77.4448 263.745 77.4928 263.745 77.5886C263.769 77.6845 263.781 77.7804 263.781 77.8762C263.781 78.2837 263.673 78.4874 263.457 78.4874C263.266 78.4874 263.026 78.4755 262.738 78.4515C262.451 78.4275 262.151 78.4035 261.84 78.3796C261.528 78.3796 261.216 78.3676 260.905 78.3436C260.593 78.3197 260.318 78.3077 260.078 78.3077C259.886 78.3077 259.622 78.3197 259.287 78.3436C258.951 78.3676 258.604 78.3916 258.244 78.4155C257.909 78.4395 257.585 78.4635 257.274 78.4874C256.986 78.5114 256.782 78.5234 256.662 78.5234C256.567 78.5234 256.519 78.3916 256.519 78.1279C256.519 77.9362 256.531 77.7804 256.555 77.6605C256.602 77.5407 256.662 77.4808 256.734 77.4808C257.142 77.4808 257.525 77.4568 257.885 77.4089C258.244 77.337 258.448 77.277 258.496 77.2291C258.544 77.1812 258.58 77.0733 258.604 76.9055C258.652 76.7138 258.688 76.4142 258.712 76.0067C258.736 75.5753 258.748 75 258.748 74.281C258.772 73.538 258.784 72.6032 258.784 71.4767C258.784 70.5899 258.772 69.8708 258.748 69.3196C258.748 68.7683 258.736 68.3129 258.712 67.9534C258.712 67.5938 258.7 67.3182 258.676 67.1265C258.652 66.9107 258.628 66.719 258.604 66.5512L257.13 65.7962C257.034 65.7483 256.962 65.7123 256.914 65.6884C256.89 65.6404 256.878 65.5565 256.878 65.4367C256.878 65.197 256.938 65.0652 257.058 65.0412C257.298 64.9693 257.585 64.8854 257.921 64.7895C258.256 64.6697 258.604 64.5379 258.963 64.3941C259.347 64.2503 259.718 64.0945 260.078 63.9267C260.461 63.7349 260.821 63.5312 261.156 63.3155ZM258.784 58.426C258.784 58.0185 258.915 57.671 259.179 57.3833C259.467 57.0957 259.814 56.9519 260.222 56.9519C260.629 56.9519 260.977 57.0957 261.264 57.3833C261.552 57.671 261.696 58.0185 261.696 58.426C261.696 58.8334 261.552 59.181 261.264 59.4686C260.977 59.7322 260.629 59.8641 260.222 59.8641C259.814 59.8641 259.467 59.7322 259.179 59.4686C258.915 59.181 258.784 58.8334 258.784 58.426ZM273.844 63.711C274.851 63.711 275.75 63.8907 276.541 64.2503C277.356 64.5858 278.051 65.0772 278.626 65.7243C279.201 66.3475 279.645 67.0905 279.956 67.9534C280.268 68.8162 280.424 69.763 280.424 70.7936C280.424 72.0639 280.22 73.2024 279.812 74.2091C279.429 75.1918 278.89 76.0307 278.195 76.7258C277.523 77.3969 276.732 77.9122 275.822 78.2717C274.911 78.6312 273.928 78.811 272.874 78.811C271.795 78.811 270.812 78.6432 269.925 78.3077C269.063 77.9482 268.32 77.4568 267.696 76.8336C267.097 76.1865 266.63 75.4075 266.294 74.4967C265.959 73.5859 265.791 72.5673 265.791 71.4408C265.791 70.1944 266.043 69.0919 266.546 68.1331C267.049 67.1744 267.696 66.3715 268.487 65.7243C269.278 65.0532 270.141 64.5499 271.076 64.2143C272.035 63.8788 272.957 63.711 273.844 63.711ZM272.262 65.0772C271.807 65.0772 271.352 65.185 270.896 65.4007C270.465 65.6165 270.069 65.952 269.71 66.4074C269.374 66.8628 269.099 67.4261 268.883 68.0972C268.667 68.7683 268.559 69.5473 268.559 70.4341C268.559 71.5606 268.703 72.5673 268.991 73.4541C269.278 74.317 269.662 75.048 270.141 75.6472C270.645 76.2464 271.22 76.7138 271.867 77.0493C272.514 77.3609 273.185 77.5167 273.88 77.5167C274.911 77.5167 275.786 77.0014 276.505 75.9708C277.248 74.9162 277.619 73.3702 277.619 71.3329C277.619 70.3742 277.464 69.5113 277.152 68.7443C276.864 67.9534 276.469 67.2942 275.966 66.7669C275.486 66.2157 274.923 65.7962 274.276 65.5086C273.629 65.221 272.957 65.0772 272.262 65.0772ZM299.101 76.5101C299.149 76.5101 299.173 76.558 299.173 76.6539C299.197 76.7497 299.209 76.8456 299.209 76.9415C299.209 77.4688 299.149 77.7444 299.03 77.7684C298.814 77.8163 298.514 77.8882 298.131 77.9841C297.771 78.056 297.376 78.1519 296.944 78.2717C296.513 78.3916 296.081 78.5114 295.65 78.6312C295.219 78.7751 294.847 78.9189 294.536 79.0627L294.14 78.9548C294.116 78.8589 294.092 78.6672 294.068 78.3796C294.068 78.1159 294.056 77.8283 294.032 77.5167C294.032 77.2051 294.02 76.9055 293.996 76.6179C293.996 76.3063 293.996 76.0786 293.996 75.9348C293.637 76.3183 293.217 76.6898 292.738 77.0493C292.283 77.3849 291.803 77.6845 291.3 77.9482C290.82 78.2118 290.353 78.4155 289.898 78.5593C289.442 78.7271 289.047 78.811 288.711 78.811C287.489 78.811 286.494 78.4755 285.727 77.8043C284.96 77.1332 284.577 75.9827 284.577 74.3529C284.577 73.7537 284.577 73.0826 284.577 72.3396C284.601 71.5726 284.625 70.8415 284.649 70.1465C284.673 69.4514 284.685 68.8282 284.685 68.2769C284.709 67.7017 284.721 67.2942 284.721 67.0546C284.721 66.695 284.697 66.3834 284.649 66.1198C284.625 65.8322 284.577 65.6284 284.505 65.5086C284.457 65.4367 284.241 65.3768 283.858 65.3288C283.474 65.2809 283.103 65.2569 282.743 65.2569C282.695 65.2569 282.659 65.209 282.635 65.1131C282.611 64.9933 282.599 64.8615 282.599 64.7176C282.599 64.6457 282.599 64.5499 282.599 64.43C282.623 64.2862 282.659 64.2023 282.707 64.1784C284.073 64.1304 285.176 64.0705 286.015 63.9986C286.854 63.9267 287.393 63.8907 287.633 63.8907C287.705 64.0106 287.729 64.0945 287.705 64.1424C287.633 64.5978 287.561 65.185 287.489 65.9041C287.417 66.5992 287.357 67.3781 287.309 68.241C287.261 69.0799 287.225 69.9787 287.201 70.9374C287.177 71.8722 287.165 72.8069 287.165 73.7417C287.165 74.0054 287.201 74.3289 287.273 74.7124C287.345 75.0959 287.549 75.4674 287.884 75.827C288.124 76.0906 288.436 76.3303 288.819 76.546C289.227 76.7378 289.778 76.8336 290.473 76.8336C290.641 76.8336 290.88 76.7737 291.192 76.6539C291.504 76.534 291.827 76.3902 292.163 76.2224C292.522 76.0547 292.858 75.8749 293.169 75.6831C293.481 75.4674 293.733 75.2637 293.924 75.072C293.924 74.6645 293.924 74.1012 293.924 73.3822C293.924 72.6631 293.924 71.8842 293.924 71.0453C293.948 70.2064 293.96 69.3555 293.96 68.4927C293.984 67.6298 293.996 66.8508 293.996 66.1557C293.996 65.94 293.972 65.7722 293.924 65.6524C293.9 65.5326 293.816 65.4367 293.673 65.3648C293.529 65.2929 293.313 65.233 293.026 65.185C292.762 65.1371 292.39 65.0892 291.911 65.0412C291.863 65.0172 291.827 64.9573 291.803 64.8615C291.803 64.7416 291.803 64.6098 291.803 64.466C291.803 64.2503 291.839 64.1184 291.911 64.0705C292.318 64.0705 292.75 64.0705 293.205 64.0705C293.661 64.0465 294.104 64.0345 294.536 64.0345C294.991 64.0106 295.398 63.9866 295.758 63.9626C296.141 63.9147 296.465 63.8668 296.729 63.8188L296.872 63.9626C296.848 64.2263 296.813 64.6577 296.765 65.2569C296.741 65.8561 296.705 66.5632 296.657 67.3781C296.633 68.1691 296.609 69.0439 296.585 70.0027C296.561 70.9374 296.549 71.8842 296.549 72.8429C296.549 73.8256 296.561 74.5926 296.585 75.1439C296.609 75.6712 296.645 76.0786 296.693 76.3662C296.765 76.6299 296.848 76.7977 296.944 76.8696C297.064 76.9175 297.196 76.9415 297.34 76.9415C297.867 76.9415 298.263 76.8696 298.526 76.7258C298.814 76.582 299.006 76.5101 299.101 76.5101ZM300.969 75.072C301.041 74.9521 301.173 74.8562 301.365 74.7843C301.557 74.7124 301.676 74.7124 301.724 74.7843C301.748 74.9042 301.784 75.048 301.832 75.2158C301.88 75.3835 301.928 75.5274 301.976 75.6472C302.312 76.3183 302.779 76.8216 303.378 77.1572C303.977 77.4928 304.589 77.6605 305.212 77.6605C306.027 77.6605 306.65 77.4568 307.081 77.0493C307.537 76.6419 307.764 76.0906 307.764 75.3955C307.764 74.8203 307.573 74.281 307.189 73.7777C306.83 73.2504 306.075 72.747 304.924 72.2677C303.774 71.8123 302.911 71.2969 302.336 70.7217C301.76 70.1225 301.473 69.2836 301.473 68.205C301.473 67.51 301.628 66.8628 301.94 66.2636C302.276 65.6404 302.791 65.0892 303.486 64.6098C304.061 64.2263 304.613 63.9866 305.14 63.8907C305.691 63.7709 306.242 63.711 306.794 63.711C307.417 63.711 307.944 63.7709 308.376 63.8907C308.807 64.0106 309.155 64.1304 309.418 64.2503C309.466 64.6577 309.502 65.1371 309.526 65.6884C309.55 66.2157 309.538 66.695 309.49 67.1265C309.442 67.2223 309.334 67.2942 309.166 67.3422C309.023 67.3661 308.903 67.3542 308.807 67.3062C308.807 67.2103 308.795 67.0426 308.771 66.8029C308.747 66.5392 308.723 66.3715 308.699 66.2996C308.603 65.988 308.328 65.7003 307.872 65.4367C307.417 65.173 306.77 65.0412 305.931 65.0412C305.284 65.0412 304.696 65.209 304.169 65.5446C303.642 65.8801 303.378 66.4314 303.378 67.1984C303.378 67.7496 303.582 68.229 303.989 68.6365C304.397 69.0439 305.164 69.4634 306.29 69.8948C307.704 70.3742 308.699 70.9494 309.274 71.6205C309.85 72.2916 310.137 73.1425 310.137 74.1731C310.137 74.8443 310.005 75.4674 309.742 76.0427C309.478 76.6179 309.119 77.1212 308.663 77.5527C308.208 77.9601 307.668 78.2837 307.045 78.5234C306.446 78.7631 305.787 78.8829 305.068 78.8829C304.349 78.8829 303.69 78.835 303.091 78.7391C302.491 78.6432 301.988 78.5354 301.581 78.4155C301.581 78.3197 301.581 78.2118 301.581 78.092C301.581 77.9482 301.557 77.7564 301.509 77.5167C301.485 77.2531 301.425 76.9295 301.329 76.546C301.257 76.1385 301.137 75.6472 300.969 75.072ZM320.47 78.0201C320.47 77.6126 320.518 77.4089 320.613 77.4089C320.997 77.3609 321.332 77.325 321.62 77.301C321.908 77.277 322.135 77.1812 322.303 77.0134C322.399 76.9175 322.483 76.7378 322.555 76.4741C322.627 76.2104 322.675 75.7191 322.699 75C322.723 74.281 322.735 73.2623 322.735 71.9441C322.759 70.6258 322.771 68.8642 322.771 66.6591C322.771 64.6457 322.759 63.0279 322.735 61.8055C322.711 60.5831 322.675 59.6364 322.627 58.9652C322.603 58.2702 322.555 57.7908 322.483 57.5271C322.411 57.2635 322.327 57.0837 322.231 56.9879C322.159 56.916 322.004 56.8441 321.764 56.7721C321.524 56.6763 321.261 56.6044 320.973 56.5564C320.685 56.4845 320.386 56.4366 320.074 56.4126C319.787 56.3647 319.559 56.3407 319.391 56.3407C319.295 56.3407 319.247 56.2209 319.247 55.9812C319.247 55.8374 319.259 55.7535 319.283 55.7295C319.307 55.6816 319.343 55.6456 319.391 55.6217C319.822 55.5977 320.35 55.5737 320.973 55.5498C321.62 55.5018 322.255 55.4659 322.878 55.4419C323.526 55.394 324.125 55.37 324.676 55.37C325.251 55.346 325.695 55.334 326.006 55.334C327.133 55.334 328.092 55.358 328.882 55.406C329.673 55.4539 330.345 55.5258 330.896 55.6217C331.471 55.6936 331.95 55.8014 332.334 55.9452C332.717 56.0891 333.077 56.2568 333.412 56.4486C334.227 56.904 334.815 57.4792 335.174 58.1743C335.558 58.8454 335.749 59.5884 335.749 60.4033C335.749 60.8587 335.689 61.3141 335.57 61.7695C335.45 62.2249 335.234 62.6803 334.922 63.1357C334.635 63.5911 334.227 64.0465 333.7 64.5019C333.197 64.9334 332.55 65.3648 331.759 65.7962C332.837 66.0119 333.736 66.3235 334.455 66.731C335.174 67.1145 335.737 67.5579 336.145 68.0612C336.576 68.5646 336.876 69.1158 337.044 69.715C337.211 70.2903 337.295 70.8775 337.295 71.4767C337.295 72.6272 337.068 73.6458 336.612 74.5327C336.157 75.4195 335.534 76.1625 334.743 76.7617C333.952 77.337 333.029 77.7804 331.974 78.092C330.92 78.4035 329.793 78.5593 328.595 78.5593C328.331 78.5593 327.984 78.5474 327.552 78.5234C327.145 78.4994 326.713 78.4635 326.258 78.4155C325.827 78.3916 325.395 78.3676 324.964 78.3436C324.556 78.3197 324.209 78.3077 323.921 78.3077C322.938 78.3077 322.171 78.3436 321.62 78.4155C321.093 78.4874 320.781 78.5234 320.685 78.5234C320.542 78.5234 320.47 78.3556 320.47 78.0201ZM325.719 65.2569C325.719 65.4487 325.743 65.5805 325.791 65.6524C325.862 65.7243 325.994 65.7603 326.186 65.7603H328.523C328.691 65.7603 328.942 65.7722 329.278 65.7962C329.637 65.7962 329.985 65.7842 330.321 65.7603C330.968 65.4966 331.555 65.0053 332.082 64.2862C332.634 63.5432 332.909 62.5605 332.909 61.3381C332.909 60.4992 332.729 59.7682 332.37 59.145C332.01 58.5218 331.507 58.0065 330.86 57.5991C330.237 57.1916 329.482 56.88 328.595 56.6643C327.732 56.4486 326.773 56.3407 325.719 56.3407V65.2569ZM325.719 73.3462C325.719 74.3529 325.743 75.0959 325.791 75.5753C325.839 76.0547 325.982 76.4262 326.222 76.6898C326.438 76.9535 326.797 77.1452 327.301 77.2651C327.828 77.3609 328.403 77.4089 329.026 77.4089C329.649 77.4089 330.261 77.313 330.86 77.1212C331.483 76.9295 332.034 76.6299 332.514 76.2224C332.993 75.815 333.377 75.2877 333.664 74.6405C333.976 73.9694 334.132 73.1785 334.132 72.2677C334.132 71.5486 334.024 70.8655 333.808 70.2184C333.592 69.5473 333.173 68.96 332.55 68.4567C331.95 67.9534 331.1 67.5459 329.997 67.2343C328.894 66.9227 327.468 66.7669 325.719 66.7669V73.3462ZM344.858 63.3155C344.93 63.3395 345.002 63.3754 345.074 63.4234C345.17 63.4473 345.218 63.4833 345.218 63.5312C345.218 63.5552 345.206 63.663 345.182 63.8548C345.182 64.0226 345.17 64.3821 345.146 64.9334C345.122 65.4607 345.098 66.2276 345.074 67.2343C345.074 68.217 345.074 69.5233 345.074 71.1531C345.074 72.2557 345.074 73.1904 345.074 73.9574C345.098 74.7004 345.122 75.3116 345.146 75.791C345.17 76.2464 345.194 76.5939 345.218 76.8336C345.242 77.0493 345.278 77.1812 345.326 77.2291C345.374 77.301 345.577 77.3609 345.937 77.4089C346.296 77.4328 346.776 77.4448 347.375 77.4448C347.423 77.4448 347.447 77.4928 347.447 77.5886C347.471 77.6845 347.483 77.7804 347.483 77.8762C347.483 78.2837 347.375 78.4874 347.159 78.4874C346.968 78.4874 346.728 78.4755 346.44 78.4515C346.153 78.4275 345.853 78.4035 345.541 78.3796C345.23 78.3796 344.918 78.3676 344.607 78.3436C344.295 78.3197 344.019 78.3077 343.78 78.3077C343.588 78.3077 343.324 78.3197 342.989 78.3436C342.653 78.3676 342.306 78.3916 341.946 78.4155C341.611 78.4395 341.287 78.4635 340.975 78.4874C340.688 78.5114 340.484 78.5234 340.364 78.5234C340.268 78.5234 340.22 78.3916 340.22 78.1279C340.22 77.9362 340.232 77.7804 340.256 77.6605C340.304 77.5407 340.364 77.4808 340.436 77.4808C340.844 77.4808 341.227 77.4568 341.587 77.4089C341.946 77.337 342.15 77.277 342.198 77.2291C342.246 77.1812 342.282 77.0733 342.306 76.9055C342.354 76.7138 342.39 76.4142 342.414 76.0067C342.437 75.5753 342.449 75 342.449 74.281C342.473 73.538 342.485 72.6032 342.485 71.4767C342.485 70.5899 342.473 69.8708 342.449 69.3196C342.449 68.7683 342.437 68.3129 342.414 67.9534C342.414 67.5938 342.402 67.3182 342.378 67.1265C342.354 66.9107 342.33 66.719 342.306 66.5512L340.832 65.7962C340.736 65.7483 340.664 65.7123 340.616 65.6884C340.592 65.6404 340.58 65.5565 340.58 65.4367C340.58 65.197 340.64 65.0652 340.76 65.0412C340.999 64.9693 341.287 64.8854 341.623 64.7895C341.958 64.6697 342.306 64.5379 342.665 64.3941C343.049 64.2503 343.42 64.0945 343.78 63.9267C344.163 63.7349 344.523 63.5312 344.858 63.3155ZM342.485 58.426C342.485 58.0185 342.617 57.671 342.881 57.3833C343.169 57.0957 343.516 56.9519 343.924 56.9519C344.331 56.9519 344.679 57.0957 344.966 57.3833C345.254 57.671 345.398 58.0185 345.398 58.426C345.398 58.8334 345.254 59.181 344.966 59.4686C344.679 59.7322 344.331 59.8641 343.924 59.8641C343.516 59.8641 343.169 59.7322 342.881 59.4686C342.617 59.181 342.485 58.8334 342.485 58.426ZM354.023 53.069C354.143 53.069 354.215 53.117 354.239 53.2129C354.191 53.5484 354.155 54.1596 354.131 55.0464C354.107 55.9333 354.095 57.1437 354.095 58.6776V73.9215C354.095 75.072 354.107 75.8749 354.131 76.3303C354.155 76.7857 354.191 77.0374 354.239 77.0853C354.382 77.277 355.149 77.4089 356.539 77.4808C356.587 77.5766 356.611 77.7085 356.611 77.8762C356.611 77.9482 356.587 78.068 356.539 78.2358C356.516 78.4035 356.468 78.4874 356.396 78.4874C356.3 78.4874 356.12 78.4755 355.856 78.4515C355.593 78.4275 355.281 78.4035 354.922 78.3796C354.586 78.3796 354.239 78.3676 353.879 78.3436C353.519 78.3197 353.196 78.3077 352.908 78.3077C352.717 78.3077 352.441 78.3197 352.081 78.3436C351.722 78.3676 351.35 78.3796 350.967 78.3796C350.607 78.4035 350.26 78.4275 349.924 78.4515C349.613 78.4755 349.421 78.4874 349.349 78.4874C349.253 78.4874 349.193 78.4395 349.169 78.3436C349.145 78.2238 349.133 78.092 349.133 77.9482C349.133 77.7324 349.181 77.5766 349.277 77.4808C349.756 77.4328 350.164 77.3969 350.499 77.3729C350.835 77.3489 351.063 77.277 351.183 77.1572C351.23 77.0853 351.278 76.9535 351.326 76.7617C351.374 76.546 351.41 76.2344 351.434 75.827C351.458 75.3955 351.47 74.8562 351.47 74.2091C351.494 73.5619 351.506 72.771 351.506 71.8362V59.3248C351.506 58.4859 351.482 57.7908 351.434 57.2395C351.386 56.6883 351.302 56.2089 351.183 55.8014H349.205C349.157 55.8014 349.109 55.7535 349.061 55.6576C349.037 55.5617 349.025 55.4779 349.025 55.406C349.025 55.0225 349.085 54.8187 349.205 54.7948C349.493 54.7229 349.876 54.615 350.356 54.4712C350.859 54.3034 351.35 54.1356 351.83 53.9679C352.333 53.8001 352.788 53.6323 353.196 53.4645C353.603 53.2967 353.879 53.1649 354.023 53.069ZM363.186 53.069C363.306 53.069 363.378 53.117 363.402 53.2129C363.354 53.5484 363.318 54.1596 363.294 55.0464C363.27 55.9333 363.258 57.1437 363.258 58.6776V73.9215C363.258 75.072 363.27 75.8749 363.294 76.3303C363.318 76.7857 363.354 77.0374 363.402 77.0853C363.546 77.277 364.313 77.4089 365.703 77.4808C365.751 77.5766 365.775 77.7085 365.775 77.8762C365.775 77.9482 365.751 78.068 365.703 78.2358C365.679 78.4035 365.631 78.4874 365.559 78.4874C365.463 78.4874 365.284 78.4755 365.02 78.4515C364.756 78.4275 364.445 78.4035 364.085 78.3796C363.75 78.3796 363.402 78.3676 363.043 78.3436C362.683 78.3197 362.36 78.3077 362.072 78.3077C361.88 78.3077 361.605 78.3197 361.245 78.3436C360.886 78.3676 360.514 78.3796 360.131 78.3796C359.771 78.4035 359.423 78.4275 359.088 78.4515C358.776 78.4755 358.585 78.4874 358.513 78.4874C358.417 78.4874 358.357 78.4395 358.333 78.3436C358.309 78.2238 358.297 78.092 358.297 77.9482C358.297 77.7324 358.345 77.5766 358.441 77.4808C358.92 77.4328 359.328 77.3969 359.663 77.3729C359.999 77.3489 360.226 77.277 360.346 77.1572C360.394 77.0853 360.442 76.9535 360.49 76.7617C360.538 76.546 360.574 76.2344 360.598 75.827C360.622 75.3955 360.634 74.8562 360.634 74.2091C360.658 73.5619 360.67 72.771 360.67 71.8362V59.3248C360.67 58.4859 360.646 57.7908 360.598 57.2395C360.55 56.6883 360.466 56.2089 360.346 55.8014H358.369C358.321 55.8014 358.273 55.7535 358.225 55.6576C358.201 55.5617 358.189 55.4779 358.189 55.406C358.189 55.0225 358.249 54.8187 358.369 54.7948C358.656 54.7229 359.04 54.615 359.519 54.4712C360.023 54.3034 360.514 54.1356 360.993 53.9679C361.497 53.8001 361.952 53.6323 362.36 53.4645C362.767 53.2967 363.043 53.1649 363.186 53.069ZM367.748 75.072C367.82 74.9521 367.952 74.8562 368.144 74.7843C368.335 74.7124 368.455 74.7124 368.503 74.7843C368.527 74.9042 368.563 75.048 368.611 75.2158C368.659 75.3835 368.707 75.5274 368.755 75.6472C369.09 76.3183 369.558 76.8216 370.157 77.1572C370.756 77.4928 371.367 77.6605 371.991 77.6605C372.806 77.6605 373.429 77.4568 373.86 77.0493C374.316 76.6419 374.543 76.0906 374.543 75.3955C374.543 74.8203 374.351 74.281 373.968 73.7777C373.608 73.2504 372.853 72.747 371.703 72.2677C370.553 71.8123 369.69 71.2969 369.114 70.7217C368.539 70.1225 368.252 69.2836 368.252 68.205C368.252 67.51 368.407 66.8628 368.719 66.2636C369.054 65.6404 369.57 65.0892 370.265 64.6098C370.84 64.2263 371.391 63.9866 371.919 63.8907C372.47 63.7709 373.021 63.711 373.573 63.711C374.196 63.711 374.723 63.7709 375.154 63.8907C375.586 64.0106 375.933 64.1304 376.197 64.2503C376.245 64.6577 376.281 65.1371 376.305 65.6884C376.329 66.2157 376.317 66.695 376.269 67.1265C376.221 67.2223 376.113 67.2942 375.945 67.3422C375.802 67.3661 375.682 67.3542 375.586 67.3062C375.586 67.2103 375.574 67.0426 375.55 66.8029C375.526 66.5392 375.502 66.3715 375.478 66.2996C375.382 65.988 375.106 65.7003 374.651 65.4367C374.196 65.173 373.549 65.0412 372.71 65.0412C372.063 65.0412 371.475 65.209 370.948 65.5446C370.421 65.8801 370.157 66.4314 370.157 67.1984C370.157 67.7496 370.361 68.229 370.768 68.6365C371.176 69.0439 371.943 69.4634 373.069 69.8948C374.483 70.3742 375.478 70.9494 376.053 71.6205C376.628 72.2916 376.916 73.1425 376.916 74.1731C376.916 74.8443 376.784 75.4674 376.521 76.0427C376.257 76.6179 375.897 77.1212 375.442 77.5527C374.987 77.9601 374.447 78.2837 373.824 78.5234C373.225 78.7631 372.566 78.8829 371.847 78.8829C371.128 78.8829 370.469 78.835 369.869 78.7391C369.27 78.6432 368.767 78.5354 368.359 78.4155C368.359 78.3197 368.359 78.2118 368.359 78.092C368.359 77.9482 368.335 77.7564 368.288 77.5167C368.264 77.2531 368.204 76.9295 368.108 76.546C368.036 76.1385 367.916 75.6472 367.748 75.072Z" fill="white"/>
<path opacity="0.8" d="M563.156 51.2373H573.978L591.704 68.9633L573.978 86.6893H563.156" stroke="white" stroke-width="3"/>
<path d="M90.9434 69.3722L69.1224 91.1932L72.7986 94.8693L98.2957 69.3722L69.1224 40.199L39.9492 69.3722L51.6491 81.072H45.3831L49.2492 84.9381H58.4233V74.3505L55.0296 70.9568V77.1003L47.3015 69.3722L69.1224 47.5512L90.9434 69.3722Z" fill="white"/>
</svg>
