<svg width="647" height="138" viewBox="0 0 647 138" fill="none" xmlns="http://www.w3.org/2000/svg">
<path d="M136.857 1.21082V136.681H33.4805L1.3877 104.588V1.21082H136.857Z" stroke="#FFB84D" stroke-width="0.839726"/>
<path d="M151.767 136.6V1.29053H613.801L645.847 33.3364V136.6H151.767Z" stroke="#FFB84D"/>
<path opacity="0.8" d="M195.505 73.1334C195.529 73.0615 195.649 72.9657 195.865 72.8458C196.081 72.702 196.224 72.6301 196.296 72.6301C196.44 72.6301 196.512 72.6541 196.512 72.702C197.135 74.2839 197.902 75.5423 198.813 76.477C199.748 77.4118 200.922 77.8792 202.336 77.8792C203.774 77.8792 204.829 77.4717 205.5 76.6568C206.195 75.8179 206.543 74.8232 206.543 73.6727C206.543 73.1454 206.459 72.6421 206.291 72.1627C206.147 71.6834 205.896 71.216 205.536 70.7606C205.177 70.3052 204.685 69.8618 204.062 69.4303C203.463 68.9749 202.708 68.5076 201.797 68.0282C199.927 67.0695 198.573 66.0748 197.734 65.0441C196.919 63.9895 196.512 62.6952 196.512 61.1613C196.512 60.3703 196.656 59.6153 196.943 58.8963C197.231 58.1533 197.65 57.5061 198.202 56.9548C198.777 56.3796 199.484 55.9362 200.323 55.6246C201.186 55.289 202.18 55.1213 203.307 55.1213C204.41 55.1213 205.224 55.2051 205.752 55.3729C206.279 55.5407 206.675 55.6246 206.938 55.6246C207.082 55.6246 207.19 55.6126 207.262 55.5886C207.334 55.5407 207.43 55.4568 207.549 55.337L207.837 55.3729C207.909 55.6605 207.969 56.0081 208.017 56.4155C208.065 56.823 208.113 57.2425 208.161 57.6739C208.209 58.0813 208.256 58.4888 208.304 58.8963C208.352 59.2798 208.412 59.5913 208.484 59.831C208.46 59.879 208.352 59.9509 208.161 60.0467C207.993 60.1426 207.849 60.1906 207.729 60.1906C207.609 60.1906 207.525 60.1786 207.477 60.1546C207.118 58.9322 206.579 57.9735 205.86 57.2784C205.165 56.5594 204.17 56.1998 202.876 56.1998C202.348 56.1998 201.845 56.2957 201.366 56.4875C200.886 56.6552 200.467 56.9069 200.107 57.2425C199.748 57.554 199.46 57.9495 199.244 58.4289C199.053 58.8843 198.957 59.4116 198.957 60.0108C198.957 60.5621 199.029 61.0654 199.172 61.5208C199.34 61.9522 199.604 62.3837 199.963 62.8151C200.323 63.2225 200.79 63.63 201.366 64.0375C201.965 64.421 202.696 64.8284 203.559 65.2599C204.661 65.8111 205.584 66.3624 206.327 66.9137C207.07 67.4649 207.657 68.0402 208.089 68.6394C208.544 69.2146 208.856 69.8258 209.023 70.473C209.215 71.0961 209.311 71.7553 209.311 72.4503C209.311 73.3372 209.143 74.1761 208.808 74.967C208.496 75.758 208.029 76.4531 207.406 77.0523C206.782 77.6275 206.015 78.0829 205.105 78.4185C204.194 78.778 203.151 78.9577 201.977 78.9577C201.425 78.9577 200.898 78.9098 200.395 78.8139C199.915 78.742 199.472 78.6462 199.065 78.5263C198.681 78.4304 198.334 78.3466 198.022 78.2746C197.734 78.1788 197.519 78.1308 197.375 78.1308C197.255 78.1308 197.147 78.1428 197.051 78.1668C196.979 78.1908 196.86 78.2866 196.692 78.4544H196.368C196.296 78.1428 196.248 77.8073 196.224 77.4477C196.2 77.0882 196.164 76.6927 196.116 76.2613C196.093 75.8299 196.033 75.3625 195.937 74.8592C195.841 74.3319 195.697 73.7566 195.505 73.1334ZM216.953 63.3903C217.025 63.4143 217.097 63.4502 217.169 63.4982C217.265 63.5222 217.313 63.5581 217.313 63.606C217.313 63.63 217.301 63.7379 217.277 63.9296C217.277 64.0974 217.265 64.4569 217.241 65.0082C217.217 65.5355 217.193 66.3025 217.169 67.3091C217.169 68.2918 217.169 69.5981 217.169 71.228C217.169 72.3305 217.169 73.2653 217.169 74.0323C217.193 74.7753 217.217 75.3865 217.241 75.8658C217.265 76.3212 217.289 76.6688 217.313 76.9085C217.337 77.1242 217.373 77.256 217.421 77.3039C217.469 77.3758 217.672 77.4358 218.032 77.4837C218.391 77.5077 218.871 77.5196 219.47 77.5196C219.518 77.5196 219.542 77.5676 219.542 77.6635C219.566 77.7593 219.578 77.8552 219.578 77.9511C219.578 78.3585 219.47 78.5623 219.254 78.5623C219.062 78.5623 218.823 78.5503 218.535 78.5263C218.247 78.5023 217.948 78.4784 217.636 78.4544C217.325 78.4544 217.013 78.4424 216.702 78.4185C216.39 78.3945 216.114 78.3825 215.875 78.3825C215.683 78.3825 215.419 78.3945 215.084 78.4185C214.748 78.4424 214.401 78.4664 214.041 78.4904C213.705 78.5143 213.382 78.5383 213.07 78.5623C212.783 78.5862 212.579 78.5982 212.459 78.5982C212.363 78.5982 212.315 78.4664 212.315 78.2027C212.315 78.011 212.327 77.8552 212.351 77.7354C212.399 77.6155 212.459 77.5556 212.531 77.5556C212.939 77.5556 213.322 77.5316 213.682 77.4837C214.041 77.4118 214.245 77.3519 214.293 77.3039C214.341 77.256 214.377 77.1481 214.401 76.9804C214.449 76.7886 214.484 76.489 214.508 76.0815C214.532 75.6501 214.544 75.0749 214.544 74.3558C214.568 73.6128 214.58 72.678 214.58 71.5515C214.58 70.6647 214.568 69.9457 214.544 69.3944C214.544 68.8431 214.532 68.3877 214.508 68.0282C214.508 67.6687 214.496 67.393 214.472 67.2013C214.449 66.9856 214.425 66.7938 214.401 66.626L212.927 65.871C212.831 65.8231 212.759 65.7872 212.711 65.7632C212.687 65.7153 212.675 65.6314 212.675 65.5115C212.675 65.2718 212.735 65.14 212.855 65.116C213.094 65.0441 213.382 64.9603 213.717 64.8644C214.053 64.7445 214.401 64.6127 214.76 64.4689C215.144 64.3251 215.515 64.1693 215.875 64.0015C216.258 63.8098 216.618 63.606 216.953 63.3903ZM214.58 58.5008C214.58 58.0933 214.712 57.7458 214.976 57.4582C215.263 57.1705 215.611 57.0267 216.018 57.0267C216.426 57.0267 216.773 57.1705 217.061 57.4582C217.349 57.7458 217.492 58.0933 217.492 58.5008C217.492 58.9083 217.349 59.2558 217.061 59.5434C216.773 59.8071 216.426 59.9389 216.018 59.9389C215.611 59.9389 215.263 59.8071 214.976 59.5434C214.712 59.2558 214.58 58.9083 214.58 58.5008ZM227.807 74.8592C227.424 74.8592 227.1 74.8831 226.837 74.9311C226.597 74.979 226.369 75.0389 226.154 75.1108C225.818 75.2307 225.471 75.4104 225.111 75.6501C224.775 75.8898 224.608 76.1415 224.608 76.4051C224.608 76.6927 224.811 76.9564 225.219 77.1961C225.554 77.4118 226.13 77.5916 226.945 77.7354C227.76 77.8792 228.778 78.011 230.001 78.1308C231.199 78.2267 232.17 78.3346 232.913 78.4544C233.68 78.5982 234.267 78.778 234.674 78.9937C235.106 79.2094 235.393 79.4611 235.537 79.7487C235.705 80.0363 235.789 80.3958 235.789 80.8273C235.789 81.81 235.549 82.7447 235.07 83.6316C234.59 84.5424 233.931 85.3333 233.092 86.0044C232.278 86.6995 231.307 87.2508 230.18 87.6582C229.078 88.0897 227.879 88.3054 226.585 88.3054C224.955 88.3054 223.637 88.0058 222.63 87.4066C221.648 86.8313 221.156 85.8007 221.156 84.3147C221.156 84.051 221.216 83.7754 221.336 83.4878C221.48 83.2241 221.708 82.9125 222.019 82.553C222.355 82.2174 222.786 81.822 223.313 81.3666C223.841 80.9351 224.5 80.4198 225.291 79.8206C225.339 79.7727 225.327 79.7247 225.255 79.6768C224.2 79.4131 223.445 79.0177 222.99 78.4904C222.558 77.987 222.343 77.4238 222.343 76.8006C222.343 76.6808 222.415 76.5369 222.558 76.3692C222.726 76.1774 222.954 75.9857 223.242 75.7939C223.529 75.5782 223.865 75.3625 224.248 75.1468C224.656 74.9311 225.087 74.7393 225.542 74.5715C225.59 74.5476 225.578 74.4877 225.507 74.3918C225.435 74.2959 225.375 74.224 225.327 74.1761C225.039 74.0562 224.716 73.8884 224.356 73.6727C224.02 73.457 223.685 73.1694 223.349 72.8099C223.038 72.4503 222.774 72.0189 222.558 71.5156C222.343 71.0122 222.235 70.4011 222.235 69.682C222.235 68.7952 222.427 67.9922 222.81 67.2732C223.194 66.5302 223.709 65.895 224.356 65.3677C225.027 64.8404 225.794 64.4449 226.657 64.1813C227.52 63.8937 228.443 63.7499 229.425 63.7499C229.905 63.7499 230.36 63.8457 230.792 64.0375C231.247 64.2052 231.642 64.421 231.978 64.6846H232.769C234.375 64.6846 235.489 64.6487 236.112 64.5768C236.736 64.4809 237.071 64.4329 237.119 64.4329C237.215 64.4329 237.263 64.4929 237.263 64.6127C237.071 65.2838 236.903 65.7272 236.76 65.943C236.616 66.1347 236.412 66.2306 236.148 66.2306L233.2 66.2665C233.464 66.626 233.692 67.0695 233.883 67.5968C234.099 68.1241 234.207 68.6634 234.207 69.2146C234.207 71.0122 233.62 72.4024 232.445 73.3851C231.295 74.3678 229.749 74.8592 227.807 74.8592ZM227.664 64.9363C227.184 64.9363 226.765 65.0681 226.405 65.3318C226.07 65.5954 225.794 65.931 225.578 66.3384C225.363 66.7459 225.195 67.2013 225.075 67.7046C224.979 68.184 224.931 68.6514 224.931 69.1068C224.931 69.658 225.027 70.2093 225.219 70.7606C225.435 71.3119 225.722 71.8152 226.082 72.2706C226.465 72.702 226.909 73.0615 227.412 73.3492C227.939 73.6128 228.515 73.7446 229.138 73.7446C229.425 73.7446 229.713 73.6847 230.001 73.5649C230.312 73.445 230.588 73.2413 230.827 72.9537C231.067 72.6421 231.259 72.2346 231.403 71.7313C231.57 71.228 231.654 70.5928 231.654 69.8258C231.654 68.4117 231.331 67.2492 230.684 66.3384C230.06 65.4037 229.054 64.9363 227.664 64.9363ZM226.477 79.8925C225.566 80.5397 224.859 81.1628 224.356 81.762C223.853 82.3612 223.601 82.9605 223.601 83.5597C223.601 84.6382 224.044 85.4651 224.931 86.0404C225.818 86.6396 226.909 86.9392 228.203 86.9392C229.018 86.9392 229.737 86.7954 230.36 86.5078C231.007 86.2201 231.547 85.8366 231.978 85.3573C232.409 84.9019 232.733 84.3746 232.949 83.7754C233.188 83.2001 233.308 82.6129 233.308 82.0137C233.308 81.774 233.26 81.5583 233.164 81.3666C233.069 81.1748 232.793 80.9951 232.337 80.8273C231.906 80.6595 231.235 80.4917 230.324 80.3239C229.413 80.1801 228.131 80.0363 226.477 79.8925ZM248.223 77.987C248.223 77.6754 248.295 77.5196 248.439 77.5196C248.678 77.5196 248.93 77.5077 249.194 77.4837C249.457 77.4597 249.613 77.4238 249.661 77.3758C249.709 77.3279 249.745 77.1122 249.769 76.7287C249.817 76.3452 249.853 75.71 249.877 74.8232L249.985 69.8618C250.008 68.5914 249.709 67.5848 249.086 66.8418C248.463 66.0748 247.564 65.6913 246.389 65.6913C246.198 65.6913 245.946 65.7632 245.634 65.907C245.323 66.0268 244.999 66.1826 244.664 66.3744C244.328 66.5422 244.004 66.7339 243.693 66.9496C243.381 67.1414 243.142 67.3211 242.974 67.4889V74.212C242.974 74.8592 242.974 75.3865 242.974 75.7939C242.974 76.1774 242.986 76.477 243.01 76.6927C243.034 76.8845 243.046 77.0283 243.046 77.1242C243.07 77.1961 243.106 77.244 243.154 77.268C243.225 77.3399 243.417 77.3998 243.729 77.4477C244.04 77.4957 244.424 77.5196 244.879 77.5196C244.975 77.5196 245.023 77.6635 245.023 77.9511C245.023 78.3585 244.963 78.5623 244.843 78.5623C244.747 78.5623 244.568 78.5503 244.304 78.5263C244.064 78.5263 243.789 78.5143 243.477 78.4904C243.19 78.4664 242.878 78.4424 242.542 78.4185C242.207 78.4185 241.919 78.4185 241.68 78.4185C241.416 78.4185 241.116 78.4185 240.781 78.4185C240.445 78.4424 240.122 78.4664 239.81 78.4904C239.498 78.5143 239.223 78.5263 238.983 78.5263C238.743 78.5503 238.576 78.5623 238.48 78.5623C238.432 78.5623 238.384 78.5023 238.336 78.3825C238.312 78.2627 238.3 78.1428 238.3 78.023C238.3 77.6874 238.348 77.5196 238.444 77.5196C238.779 77.5196 239.127 77.4957 239.486 77.4477C239.87 77.3998 240.086 77.3399 240.134 77.268C240.158 77.22 240.181 77.0882 240.205 76.8725C240.253 76.6568 240.277 76.3212 240.277 75.8658C240.301 75.3865 240.313 74.7753 240.313 74.0323C240.337 73.2653 240.349 72.3305 240.349 71.228C240.349 70.1973 240.325 69.2865 240.277 68.4956C240.253 67.7046 240.217 67.1054 240.169 66.698L238.767 65.907C238.671 65.8591 238.612 65.8231 238.588 65.7991C238.564 65.7512 238.552 65.6314 238.552 65.4396C238.552 65.2718 238.6 65.176 238.695 65.152C238.911 65.0801 239.187 64.9842 239.522 64.8644C239.882 64.7206 240.241 64.5648 240.601 64.397C240.984 64.2292 241.344 64.0495 241.68 63.8577C242.015 63.666 242.291 63.4982 242.506 63.3544C242.578 63.3544 242.662 63.3783 242.758 63.4263C242.854 63.4502 242.902 63.4862 242.902 63.5341C242.902 63.606 242.89 63.7139 242.866 63.8577C242.842 63.9775 242.83 64.1333 242.83 64.3251C242.83 64.4449 242.818 64.6247 242.794 64.8644C242.794 65.0801 242.782 65.3078 242.758 65.5475C242.734 65.7632 242.71 65.9669 242.686 66.1587C242.686 66.3504 242.686 66.4822 242.686 66.5541C242.686 66.6021 242.698 66.638 242.722 66.662C242.77 66.686 242.818 66.686 242.866 66.662C243.753 65.6793 244.616 64.9602 245.455 64.5049C246.293 64.0255 247.024 63.7858 247.648 63.7858C249.134 63.7858 250.332 64.2292 251.243 65.116C252.178 66.0029 252.633 67.381 252.609 69.2506L252.501 74.8232C252.477 75.734 252.477 76.3692 252.501 76.7287C252.525 77.0642 252.561 77.256 252.609 77.3039C252.657 77.3519 252.885 77.3998 253.292 77.4477C253.7 77.4957 254.107 77.5196 254.515 77.5196C254.682 77.5196 254.766 77.6275 254.766 77.8432C254.766 78.035 254.754 78.2027 254.73 78.3466C254.706 78.4904 254.646 78.5623 254.55 78.5623C254.479 78.5623 254.263 78.5503 253.903 78.5263C253.568 78.5263 253.196 78.5143 252.789 78.4904C252.405 78.4664 252.046 78.4424 251.71 78.4185C251.399 78.4185 251.231 78.4185 251.207 78.4185C251.063 78.4185 250.835 78.4185 250.524 78.4185C250.236 78.4424 249.937 78.4664 249.625 78.4904C249.337 78.5143 249.074 78.5263 248.834 78.5263C248.594 78.5503 248.463 78.5623 248.439 78.5623C248.343 78.5623 248.283 78.5023 248.259 78.3825C248.235 78.2387 248.223 78.1069 248.223 77.987ZM277.049 54.9415C278.823 54.9415 280.417 55.2291 281.831 55.8044C283.245 56.3556 284.444 57.1466 285.426 58.1772C286.433 59.2079 287.2 60.4422 287.727 61.8803C288.255 63.3184 288.518 64.9123 288.518 66.662C288.518 68.4357 288.219 70.0895 287.619 71.6234C287.044 73.1334 286.217 74.4517 285.139 75.5782C284.084 76.6808 282.802 77.5556 281.292 78.2027C279.806 78.8259 278.152 79.1375 276.33 79.1375C274.533 79.1375 272.903 78.8499 271.441 78.2746C270.003 77.6994 268.768 76.8965 267.738 75.8658C266.731 74.8112 265.952 73.5649 265.401 72.1268C264.874 70.6887 264.61 69.0948 264.61 67.3451C264.61 65.5714 264.909 63.9296 265.509 62.4196C266.108 60.9096 266.947 59.6033 268.025 58.5008C269.128 57.3743 270.434 56.4994 271.944 55.8763C273.478 55.2531 275.18 54.9415 277.049 54.9415ZM276.33 56.0201C275.012 56.0201 273.838 56.2598 272.807 56.7391C271.8 57.2185 270.949 57.9016 270.254 58.7884C269.583 59.6513 269.068 60.7179 268.708 61.9882C268.349 63.2345 268.169 64.6367 268.169 66.1946C268.169 67.9443 268.361 69.5502 268.744 71.0122C269.152 72.4503 269.727 73.6967 270.47 74.7513C271.237 75.7819 272.172 76.5849 273.274 77.1601C274.377 77.7354 275.635 78.023 277.049 78.023C278.32 78.023 279.446 77.7713 280.429 77.268C281.436 76.7646 282.275 76.0576 282.946 75.1468C283.617 74.236 284.12 73.1454 284.456 71.8751C284.815 70.5808 284.995 69.1427 284.995 67.5608C284.995 65.883 284.791 64.3371 284.384 62.9229C283.976 61.5088 283.401 60.2864 282.658 59.2558C281.915 58.2252 281.004 57.4342 279.926 56.8829C278.847 56.3077 277.649 56.0201 276.33 56.0201ZM307.739 76.5849C307.786 76.5849 307.81 76.6328 307.81 76.7287C307.834 76.8246 307.846 76.9204 307.846 77.0163C307.846 77.5436 307.786 77.8192 307.667 77.8432C307.451 77.8912 307.151 77.9631 306.768 78.0589C306.408 78.1308 306.013 78.2267 305.581 78.3466C305.15 78.4664 304.718 78.5862 304.287 78.7061C303.856 78.8499 303.484 78.9937 303.173 79.1375L302.777 79.0296C302.753 78.9338 302.729 78.742 302.705 78.4544C302.705 78.1908 302.693 77.9031 302.669 77.5916C302.669 77.28 302.657 76.9804 302.633 76.6927C302.633 76.3812 302.633 76.1535 302.633 76.0096C302.274 76.3931 301.854 76.7646 301.375 77.1242C300.92 77.4597 300.44 77.7593 299.937 78.023C299.457 78.2866 298.99 78.4904 298.535 78.6342C298.079 78.8019 297.684 78.8858 297.348 78.8858C296.126 78.8858 295.131 78.5503 294.364 77.8792C293.597 77.2081 293.214 76.0576 293.214 74.4277C293.214 73.8285 293.214 73.1574 293.214 72.4144C293.238 71.6474 293.262 70.9164 293.286 70.2213C293.31 69.5262 293.322 68.903 293.322 68.3518C293.346 67.7765 293.358 67.3691 293.358 67.1294C293.358 66.7699 293.334 66.4583 293.286 66.1946C293.262 65.907 293.214 65.7033 293.142 65.5834C293.094 65.5115 292.878 65.4516 292.495 65.4037C292.111 65.3557 291.74 65.3318 291.38 65.3318C291.332 65.3318 291.296 65.2838 291.272 65.1879C291.248 65.0681 291.236 64.9363 291.236 64.7925C291.236 64.7206 291.236 64.6247 291.236 64.5049C291.26 64.361 291.296 64.2772 291.344 64.2532C292.71 64.2052 293.813 64.1453 294.652 64.0734C295.491 64.0015 296.03 63.9656 296.27 63.9656C296.342 64.0854 296.366 64.1693 296.342 64.2172C296.27 64.6726 296.198 65.2599 296.126 65.9789C296.054 66.674 295.994 67.453 295.946 68.3158C295.898 69.1547 295.862 70.0535 295.838 71.0122C295.814 71.947 295.802 72.8818 295.802 73.8165C295.802 74.0802 295.838 74.4038 295.91 74.7873C295.982 75.1708 296.186 75.5423 296.521 75.9018C296.761 76.1654 297.073 76.4051 297.456 76.6208C297.864 76.8126 298.415 76.9085 299.11 76.9085C299.278 76.9085 299.517 76.8485 299.829 76.7287C300.141 76.6088 300.464 76.465 300.8 76.2973C301.159 76.1295 301.495 75.9497 301.806 75.758C302.118 75.5423 302.37 75.3385 302.561 75.1468C302.561 74.7393 302.561 74.1761 302.561 73.457C302.561 72.738 302.561 71.959 302.561 71.1201C302.585 70.2812 302.597 69.4303 302.597 68.5675C302.621 67.7046 302.633 66.9257 302.633 66.2306C302.633 66.0149 302.609 65.8471 302.561 65.7272C302.537 65.6074 302.453 65.5115 302.31 65.4396C302.166 65.3677 301.95 65.3078 301.663 65.2599C301.399 65.2119 301.027 65.164 300.548 65.116C300.5 65.0921 300.464 65.0322 300.44 64.9363C300.44 64.8164 300.44 64.6846 300.44 64.5408C300.44 64.3251 300.476 64.1933 300.548 64.1453C300.955 64.1453 301.387 64.1453 301.842 64.1453C302.298 64.1214 302.741 64.1094 303.173 64.1094C303.628 64.0854 304.035 64.0614 304.395 64.0375C304.778 63.9895 305.102 63.9416 305.366 63.8937L305.509 64.0375C305.485 64.3011 305.45 64.7326 305.402 65.3318C305.378 65.931 305.342 66.638 305.294 67.453C305.27 68.2439 305.246 69.1188 305.222 70.0775C305.198 71.0122 305.186 71.959 305.186 72.9177C305.186 73.9004 305.198 74.6674 305.222 75.2187C305.246 75.746 305.282 76.1535 305.33 76.4411C305.402 76.7047 305.485 76.8725 305.581 76.9444C305.701 76.9923 305.833 77.0163 305.977 77.0163C306.504 77.0163 306.9 76.9444 307.163 76.8006C307.451 76.6568 307.643 76.5849 307.739 76.5849ZM318.954 75.6142C319.002 75.6142 319.05 75.6381 319.098 75.6861C319.17 75.71 319.23 75.746 319.278 75.7939C319.397 75.9138 319.457 76.0456 319.457 76.1894C319.337 76.3812 319.122 76.6208 318.81 76.9085C318.499 77.1961 318.151 77.4837 317.768 77.7713C317.408 78.035 317.037 78.2627 316.653 78.4544C316.27 78.6701 315.946 78.778 315.682 78.778C315.011 78.778 314.4 78.6941 313.849 78.5263C313.297 78.3825 312.83 78.1189 312.447 77.7354C312.063 77.3519 311.763 76.8365 311.548 76.1894C311.332 75.5423 311.236 74.7273 311.26 73.7446L311.44 66.3025H309.463C309.319 66.3025 309.247 66.2066 309.247 66.0149C309.247 65.8471 309.271 65.7272 309.319 65.6553C309.367 65.5834 309.427 65.5235 309.498 65.4756C310.457 64.9483 311.152 64.4689 311.584 64.0375C312.015 63.5821 312.375 63.1746 312.662 62.8151C312.902 62.4795 313.094 62.144 313.238 61.8084C313.405 61.4729 313.525 61.2811 313.597 61.2332L314.172 60.9456C314.316 60.8976 314.388 60.9336 314.388 61.0534C314.388 61.1493 314.328 61.5567 314.208 62.2758C314.112 62.9709 314.064 63.7499 314.064 64.6127H317.588C318.091 64.6127 318.451 64.6007 318.666 64.5768C318.882 64.5288 319.026 64.5049 319.098 64.5049C319.17 64.5049 319.206 64.5528 319.206 64.6487C319.206 64.7925 319.158 64.9603 319.062 65.152L318.774 65.871C318.702 66.0628 318.57 66.1587 318.379 66.1587L314.136 66.1946C314.017 66.1946 313.957 66.2785 313.957 66.4463L313.885 73.6008C313.885 74.3199 313.969 74.8951 314.136 75.3265C314.328 75.758 314.58 76.0935 314.891 76.3332C315.203 76.5489 315.562 76.7047 315.97 76.8006C316.377 76.8725 316.797 76.9085 317.228 76.9085C317.444 76.9085 317.732 76.7527 318.091 76.4411C318.475 76.1295 318.762 75.8538 318.954 75.6142Z" fill="white"/>
<path opacity="0.8" d="M563.156 51.3121H573.978L591.704 69.0381L573.978 86.7641H563.156" stroke="white" stroke-width="3"/>
<path d="M69.1227 89.0662L47.3017 67.2452L59.2375 55.3095L55.5613 51.6334L39.9495 67.2452L69.1227 96.4185L98.2959 67.2452L86.5961 55.5454L82.684 51.6334L79.0079 55.3095L83.2155 59.5171L90.9437 67.2452L69.1227 89.0662Z" fill="white"/>
<rect x="66.1025" y="38.1882" width="6.04004" height="30.9625" fill="white"/>
</svg>
