<svg width="85" height="85" viewBox="0 0 85 85" fill="none" xmlns="http://www.w3.org/2000/svg">
<rect x="42.3579" y="0.928786" width="58.6359" height="58.6359" transform="rotate(45 42.3579 0.928786)" fill="#070707" stroke="url(#paint0_linear_223_72)"/>
<path d="M52.1777 50.0374C52.262 50.0374 52.3041 50.1217 52.3041 50.2902C52.3041 50.3955 52.283 50.5219 52.2409 50.6694C52.2198 50.8169 52.1882 50.9117 52.1461 50.9538C52.0618 50.9749 51.8406 50.9749 51.4825 50.9538C51.1454 50.9538 50.7662 50.9433 50.3448 50.9222C49.9234 50.9222 49.5021 50.9117 49.0807 50.8906C48.6594 50.8696 48.3434 50.859 48.1327 50.859C47.8167 50.859 47.448 50.8696 47.0266 50.8906C46.6264 50.9117 46.2366 50.9328 45.8574 50.9538C45.4782 50.9749 45.1411 50.996 44.8461 51.017C44.5723 51.0381 44.3932 51.0486 44.3089 51.0486C44.2457 51.0486 44.193 50.996 44.1509 50.8906C44.1298 50.7853 44.1193 50.6694 44.1193 50.543C44.1193 50.4166 44.1404 50.3007 44.1825 50.1954C44.2246 50.0901 44.2773 50.0374 44.3405 50.0374C44.4458 50.0374 44.5933 50.0374 44.7829 50.0374C44.9936 50.0163 45.1938 49.9952 45.3834 49.9742C45.573 49.932 45.7415 49.8899 45.889 49.8478C46.0365 49.7846 46.1102 49.7214 46.1102 49.6582C46.1102 49.616 46.1102 49.5634 46.1102 49.5002C46.1102 49.437 46.0891 49.3316 46.047 49.1841C46.0049 49.0367 45.9206 48.8471 45.7942 48.6153C45.6888 48.3836 45.5098 48.0676 45.257 47.6673L41.4332 41.6946L38.4626 45.866C37.957 46.6455 37.5251 47.3302 37.167 47.9201C36.8299 48.51 36.6613 48.9524 36.6613 49.2473C36.6613 49.4159 36.7245 49.5528 36.8509 49.6582C36.9984 49.7635 37.167 49.8478 37.3566 49.911C37.5673 49.9531 37.7885 49.9847 38.0202 50.0058C38.273 50.0269 38.5153 50.0374 38.747 50.0374C38.8524 50.0374 38.9156 50.0795 38.9366 50.1638C38.9577 50.227 38.9683 50.3429 38.9683 50.5114C38.9683 50.7432 38.9261 50.8906 38.8418 50.9538C38.7786 51.017 38.6944 51.0486 38.589 51.0486C38.1255 51.0486 37.5567 51.017 36.8826 50.9538C36.2295 50.9117 35.6922 50.8906 35.2709 50.8906C35.0813 50.8906 34.8285 50.9012 34.5124 50.9222C34.1964 50.9433 33.8804 50.9538 33.5644 50.9538C33.2484 50.9749 32.964 50.996 32.7112 51.017C32.4583 51.0381 32.3109 51.0486 32.2687 51.0486C32.1845 51.0486 32.1423 50.9433 32.1423 50.7326C32.1423 50.6062 32.1423 50.4587 32.1423 50.2902C32.1634 50.1217 32.2266 50.0374 32.3319 50.0374C32.5637 50.0163 32.7849 49.9847 32.9956 49.9426C33.2273 49.9004 33.4696 49.7951 33.7224 49.6266C33.9963 49.458 34.3018 49.2052 34.6388 48.8681C34.9759 48.531 35.3762 48.0465 35.8397 47.4145L40.7695 40.7149L36.7245 34.1418C36.4296 33.6783 36.1557 33.2991 35.9029 33.0042C35.6712 32.6882 35.4289 32.4459 35.1761 32.2773C34.9233 32.0877 34.6388 31.9613 34.3228 31.8981C34.0068 31.8138 33.6487 31.7717 33.2484 31.7717C33.122 31.7717 33.0482 31.719 33.0272 31.6137C33.0061 31.4873 32.9956 31.3714 32.9956 31.2661C32.9956 31.1818 33.0061 31.087 33.0272 30.9817C33.0693 30.8763 33.122 30.8237 33.1852 30.8237C33.438 30.8237 33.7224 30.8342 34.0384 30.8553C34.3544 30.8763 34.6704 30.8974 34.9865 30.9185C35.3235 30.9395 35.6396 30.9606 35.9345 30.9817C36.2505 31.0027 36.5349 31.0133 36.7877 31.0133C37.0827 31.0133 37.4092 31.0027 37.7674 30.9817C38.1466 30.9606 38.5153 30.9395 38.8734 30.9185C39.2316 30.8974 39.5581 30.8763 39.8531 30.8553C40.1691 30.8342 40.4114 30.8237 40.5799 30.8237C40.6431 30.8237 40.6853 30.8763 40.7063 30.9817C40.7274 31.0659 40.7379 31.1713 40.7379 31.2977C40.7379 31.403 40.7169 31.5084 40.6747 31.6137C40.6326 31.698 40.5694 31.7401 40.4851 31.7401C40.0006 31.7401 39.6108 31.7717 39.3159 31.8349C39.0209 31.8981 38.8734 32.014 38.8734 32.1825C38.8734 32.3721 38.9472 32.6355 39.0947 32.9726C39.2632 33.2886 39.4949 33.6889 39.7899 34.1734L42.476 38.5976L45.415 34.5526C45.7942 33.9838 46.0786 33.5098 46.2682 33.1306C46.4578 32.7514 46.5526 32.5091 46.5526 32.4037C46.5526 32.2352 46.363 32.0877 45.9838 31.9613C45.6256 31.8138 45.1937 31.7401 44.6881 31.7401C44.646 31.7401 44.6144 31.698 44.5933 31.6137C44.5933 31.5084 44.5933 31.403 44.5933 31.2977C44.5933 31.1923 44.6144 31.0975 44.6565 31.0133C44.6987 30.9079 44.7513 30.8553 44.8145 30.8553C45.4887 30.8553 46.1418 30.8763 46.7738 30.9185C47.4059 30.9395 47.9958 30.9501 48.5435 30.9501C48.6699 30.9501 48.8595 30.9501 49.1123 30.9501C49.3862 30.929 49.6601 30.9079 49.934 30.8869C50.2289 30.8658 50.4923 30.8553 50.724 30.8553C50.9558 30.8342 51.0927 30.8237 51.1348 30.8237C51.2191 30.8237 51.2612 30.8974 51.2612 31.0449C51.2612 31.1713 51.2402 31.2977 51.198 31.4241C51.177 31.5505 51.1454 31.6348 51.1032 31.6769C50.5555 31.7401 50.1236 31.8138 49.8076 31.8981C49.5126 31.9613 49.2598 32.0456 49.0491 32.1509C48.8595 32.2352 48.7015 32.3616 48.5751 32.5301C48.4487 32.6776 48.3012 32.8567 48.1327 33.0674L43.108 39.5773L46.4578 44.6967C47.3005 46.024 48.0274 47.0879 48.6383 47.8885C49.2493 48.668 49.6812 49.1631 49.934 49.3738C50.2289 49.6055 50.5239 49.774 50.8188 49.8794C51.1138 49.9847 51.5667 50.0374 52.1777 50.0374Z" fill="white"/>
<defs>
<linearGradient id="paint0_linear_223_72" x1="72.1759" y1="0.22168" x2="72.1759" y2="59.8576" gradientUnits="userSpaceOnUse">
<stop stop-color="#FFB84D"/>
<stop offset="1" stop-color="#996E2E"/>
</linearGradient>
</defs>
</svg>
