<svg width="180" height="180" viewBox="0 0 180 180" fill="none" xmlns="http://www.w3.org/2000/svg">
<rect x="89.9185" y="2.94664" width="123.094" height="123.094" transform="rotate(45 89.9185 2.94664)" stroke="#FFB84D" stroke-width="3"/>
<rect x="89.9185" y="12.705" width="109.294" height="109.294" transform="rotate(45 89.9185 12.705)" fill="#FFB84D"/>
<path fill-rule="evenodd" clip-rule="evenodd" d="M82.4668 86.0565L69.8372 73.4269H59.1349V83.0132L52.3889 89.7592L59.1349 96.5051V106.548H69.8372L82.4668 93.9184H103.102V102.592H110.97V96.5051H108.433V99.6499H106.652V95.5922L109.34 92.9039H114.261L116.949 95.5922V99.6499H115.308V96.5051H112.897V102.592H120.854V92.2445H127.448V86.0565H82.4668ZM62.6854 86.0565V77.4338H67.4532L79.6264 89.6071L66.6417 102.592H62.6854V93.1576L59.1349 89.6071L62.6854 86.0565Z" fill="black"/>
</svg>
