<svg width="44" height="60" viewBox="0 0 44 60" fill="none" xmlns="http://www.w3.org/2000/svg">
<g opacity="0.4">
<path d="M6.58451 45.2636V27.063L0.310303 21.1352V0.834717L2.73564 3.26005V18.173L6.23807 21.6754V4.21303H8.3248V22.0811H9.62904V4.21303H12.176V21.6754L15.6785 18.173V3.26005L18.1038 0.834717V21.1352L12.176 27.063V45.2636L18.1164 51.204L9.38027 59.9401L0.64416 51.204L6.58451 45.2636Z" fill="white"/>
<path fill-rule="evenodd" clip-rule="evenodd" d="M37.0669 26.2477L37.0669 44.4484L43.0072 50.3888L34.2711 59.1249L25.535 50.3888L31.4753 44.4484L31.4753 26.2477L25.5476 20.32L25.5476 6.76248L31.4753 0.834718L37.4133 0.834718L43.3411 6.76248L43.3411 20.32L37.0669 26.2477ZM29.7291 18.6536L33.1768 22.1013L35.4978 22.1013L38.9455 18.6536L38.9455 7.92519L36.4897 5.46942L32.1849 5.46942L29.7291 7.92519L29.7291 18.6536Z" fill="white"/>
</g>
</svg>
